  0
SECTION
  2
HEADER
  9
$ANGBASE
  50
0.0
  9
$ANGDIR
  70
1
  9
$MEASUREMENT
  70
1
  0
ENDSEC
  0
SECTION
  2
TABLES
  0
TABLE
  2
LTYPE
  70
4
  0
LTYPE
  5
40F
  2
CONTINUOUS
  70
0
  3
Solid line
  72
65
  73
0
  40
0.0
  0
LTYPE
  5
410
  2
DASHDOT
 70
0
  3
Dash Dot ____ _ ____ _
 72
65
 73
4
 40
2.0
 49
1.25
 49
-0.25
 49
0.25
 49
-0.25
  0
LTYPE
  5
411
  2
DASHED
 70
0
  3
Dashed __ __ __ __ __
 72
65
 73
2
 40
0.75
 49
0.5
 49
-0.25
  0
LTYPE
  5
43B
  2
DOTTED
 70
0
  3
Dotted .  .  .  .
 72
65
 73
2
 40
0.2
 49
0.0
 49
-0.2
  0
ENDTAB
  0
TABLE
  2
STYLE
  70
4
  0
STYLE
  2
KICAD
  70
0
  40
0
  41
1
  42
1
  50
0
  71
0
  3
isocp.shx
  0
STYLE
  2
KICADB
  70
0
  40
0
  41
1
  42
1
  50
0
  71
0
  3
isocp.shx
  0
STYLE
  2
KICADI
  70
0
  40
0
  41
1
  42
1
  50
15
  71
0
  3
isocp.shx
  0
STYLE
  2
KICADBI
  70
0
  40
0
  41
1
  42
1
  50
15
  71
0
  3
isocp.shx
  0
ENDTAB
  0
TABLE
  2
LAYER
  70
1
  0
LAYER
  2
BLACK
  70
0
  62
7
  6
CONTINUOUS
  0
ENDTAB
  0
ENDSEC
  0
SECTION
  2
ENTITIES
0
LINE
8
BLACK
6
CONTINUOUS
10
162.2329119999999989
20
-133.458707000000004
11
162.4264969999999835
21
-133.5337020000000052
0
LINE
8
BLACK
6
CONTINUOUS
10
162.4264969999999835
20
-133.5337020000000052
11
162.603004999999996
21
-133.6429919999999925
0
LINE
8
BLACK
6
CONTINUOUS
10
162.603004999999996
20
-133.6429919999999925
11
162.7564260000000047
21
-133.7828529999999887
0
LINE
8
BLACK
6
CONTINUOUS
10
162.7564260000000047
20
-133.7828529999999887
11
162.8815349999999853
21
-133.9485249999999894
0
LINE
8
BLACK
6
CONTINUOUS
10
162.8815349999999853
20
-133.9485249999999894
11
162.9740720000000067
21
-134.134364000000005
0
LINE
8
BLACK
6
CONTINUOUS
10
162.9740720000000067
20
-134.134364000000005
11
163.0308859999999811
21
-134.3340429999999799
0
LINE
8
BLACK
6
CONTINUOUS
10
163.0308859999999811
20
-134.3340429999999799
11
163.0500409999999931
21
-134.5407610000000034
0
LINE
8
BLACK
6
CONTINUOUS
10
163.0500409999999931
20
-134.5407610000000034
11
163.0308859999999811
21
-134.7474789999999985
0
LINE
8
BLACK
6
CONTINUOUS
10
163.0308859999999811
20
-134.7474789999999985
11
162.9740720000000067
21
-134.9471580000000017
0
LINE
8
BLACK
6
CONTINUOUS
10
162.9740720000000067
20
-134.9471580000000017
11
162.8815349999999853
21
-135.1329969999999889
0
LINE
8
BLACK
6
CONTINUOUS
10
162.8815349999999853
20
-135.1329969999999889
11
162.7564260000000047
21
-135.2986689999999896
0
LINE
8
BLACK
6
CONTINUOUS
10
162.7564260000000047
20
-135.2986689999999896
11
162.603004999999996
21
-135.4385299999999859
0
LINE
8
BLACK
6
CONTINUOUS
10
162.603004999999996
20
-135.4385299999999859
11
162.4264969999999835
21
-135.5478200000000015
0
LINE
8
BLACK
6
CONTINUOUS
10
162.4264969999999835
20
-135.5478200000000015
11
162.2329119999999989
21
-135.6228150000000028
0
LINE
8
BLACK
6
CONTINUOUS
10
162.2329119999999989
20
-135.6228150000000028
11
162.0288429999999948
21
-135.6609619999999836
0
LINE
8
BLACK
6
CONTINUOUS
10
162.0288429999999948
20
-135.6609619999999836
11
161.8212389999999914
21
-135.6609619999999836
0
LINE
8
BLACK
6
CONTINUOUS
10
161.8212389999999914
20
-135.6609619999999836
11
161.6171699999999873
21
-135.6228150000000028
0
LINE
8
BLACK
6
CONTINUOUS
10
161.6171699999999873
20
-135.6228150000000028
11
161.4235850000000028
21
-135.5478200000000015
0
LINE
8
BLACK
6
CONTINUOUS
10
161.4235850000000028
20
-135.5478200000000015
11
161.2470769999999902
21
-135.4385299999999859
0
LINE
8
BLACK
6
CONTINUOUS
10
161.2470769999999902
20
-135.4385299999999859
11
161.0936559999999815
21
-135.2986689999999896
0
LINE
8
BLACK
6
CONTINUOUS
10
161.0936559999999815
20
-135.2986689999999896
11
160.9685470000000009
21
-135.1329969999999889
0
LINE
8
BLACK
6
CONTINUOUS
10
160.9685470000000009
20
-135.1329969999999889
11
160.8760099999999795
21
-134.9471580000000017
0
LINE
8
BLACK
6
CONTINUOUS
10
160.8760099999999795
20
-134.9471580000000017
11
160.8191960000000051
21
-134.7474789999999985
0
LINE
8
BLACK
6
CONTINUOUS
10
160.8191960000000051
20
-134.7474789999999985
11
160.8000409999999931
21
-134.5407610000000034
0
LINE
8
BLACK
6
CONTINUOUS
10
160.8000409999999931
20
-134.5407610000000034
11
160.8191960000000051
21
-134.3340429999999799
0
LINE
8
BLACK
6
CONTINUOUS
10
160.8191960000000051
20
-134.3340429999999799
11
160.8760099999999795
21
-134.134364000000005
0
LINE
8
BLACK
6
CONTINUOUS
10
160.8760099999999795
20
-134.134364000000005
11
160.9685470000000009
21
-133.9485249999999894
0
LINE
8
BLACK
6
CONTINUOUS
10
160.9685470000000009
20
-133.9485249999999894
11
161.0936559999999815
21
-133.7828529999999887
0
LINE
8
BLACK
6
CONTINUOUS
10
161.0936559999999815
20
-133.7828529999999887
11
161.2470769999999902
21
-133.6429919999999925
0
LINE
8
BLACK
6
CONTINUOUS
10
161.2470769999999902
20
-133.6429919999999925
11
161.4235850000000028
21
-133.5337020000000052
0
LINE
8
BLACK
6
CONTINUOUS
10
161.4235850000000028
20
-133.5337020000000052
11
161.6171699999999873
21
-133.458707000000004
0
LINE
8
BLACK
6
CONTINUOUS
10
161.6171699999999873
20
-133.458707000000004
11
161.8212389999999914
21
-133.4205599999999947
0
LINE
8
BLACK
6
CONTINUOUS
10
161.8212389999999914
20
-133.4205599999999947
11
162.0288429999999948
21
-133.4205599999999947
0
LINE
8
BLACK
6
CONTINUOUS
10
162.0288429999999948
20
-133.4205599999999947
11
162.2329119999999989
21
-133.458707000000004
0
LINE
8
BLACK
6
CONTINUOUS
10
160.8638179999999807
20
-134.739137999999997
11
160.9183390000000031
21
-134.9307589999999948
0
LINE
8
BLACK
6
CONTINUOUS
10
160.9183390000000031
20
-134.9307589999999948
11
161.0071419999999875
21
-135.1090999999999838
0
LINE
8
BLACK
6
CONTINUOUS
10
161.0071419999999875
20
-135.1090999999999838
11
161.1272029999999802
21
-135.2680859999999825
0
LINE
8
BLACK
6
CONTINUOUS
10
161.1272029999999802
20
-135.2680859999999825
11
161.2744339999999852
21
-135.4023039999999867
0
LINE
8
BLACK
6
CONTINUOUS
10
161.2744339999999852
20
-135.4023039999999867
11
161.4438199999999881
21
-135.5071839999999952
0
LINE
8
BLACK
6
CONTINUOUS
10
161.4438199999999881
20
-135.5071839999999952
11
161.6295929999999998
21
-135.5791529999999909
0
LINE
8
BLACK
6
CONTINUOUS
10
161.6295929999999998
20
-135.5791529999999909
11
161.8254279999999881
21
-135.615760999999992
0
LINE
8
BLACK
6
CONTINUOUS
10
161.8254279999999881
20
-135.615760999999992
11
162.0246539999999982
21
-135.615760999999992
0
LINE
8
BLACK
6
CONTINUOUS
10
162.0246539999999982
20
-135.615760999999992
11
162.2204889999999864
21
-135.5791529999999909
0
LINE
8
BLACK
6
CONTINUOUS
10
162.2204889999999864
20
-135.5791529999999909
11
162.4062619999999981
21
-135.5071839999999952
0
LINE
8
BLACK
6
CONTINUOUS
10
162.4062619999999981
20
-135.5071839999999952
11
162.575648000000001
21
-135.4023039999999867
0
LINE
8
BLACK
6
CONTINUOUS
10
162.575648000000001
20
-135.4023039999999867
11
162.722879000000006
21
-135.2680859999999825
0
LINE
8
BLACK
6
CONTINUOUS
10
162.722879000000006
20
-135.2680859999999825
11
162.8429399999999987
21
-135.1090999999999838
0
LINE
8
BLACK
6
CONTINUOUS
10
162.8429399999999987
20
-135.1090999999999838
11
162.9317429999999831
21
-134.9307589999999948
0
LINE
8
BLACK
6
CONTINUOUS
10
162.9317429999999831
20
-134.9307589999999948
11
162.9862640000000056
21
-134.739137999999997
0
LINE
8
BLACK
6
CONTINUOUS
10
162.9862640000000056
20
-134.739137999999997
11
163.0046459999999797
21
-134.5407610000000034
0
LINE
8
BLACK
6
CONTINUOUS
10
163.0046459999999797
20
-134.5407610000000034
11
162.9862640000000056
21
-134.3423839999999814
0
LINE
8
BLACK
6
CONTINUOUS
10
162.9862640000000056
20
-134.3423839999999814
11
162.9317429999999831
21
-134.1507629999999835
0
LINE
8
BLACK
6
CONTINUOUS
10
162.9317429999999831
20
-134.1507629999999835
11
162.8429399999999987
21
-133.9724219999999946
0
LINE
8
BLACK
6
CONTINUOUS
10
162.8429399999999987
20
-133.9724219999999946
11
162.722879000000006
21
-133.8134359999999958
0
LINE
8
BLACK
6
CONTINUOUS
10
162.722879000000006
20
-133.8134359999999958
11
162.575648000000001
21
-133.6792179999999917
0
LINE
8
BLACK
6
CONTINUOUS
10
162.575648000000001
20
-133.6792179999999917
11
162.4062619999999981
21
-133.5743379999999831
0
LINE
8
BLACK
6
CONTINUOUS
10
162.4062619999999981
20
-133.5743379999999831
11
162.2204889999999864
21
-133.5023689999999874
0
LINE
8
BLACK
6
CONTINUOUS
10
162.2204889999999864
20
-133.5023689999999874
11
162.0246539999999982
21
-133.4657609999999863
0
LINE
8
BLACK
6
CONTINUOUS
10
162.0246539999999982
20
-133.4657609999999863
11
161.8254279999999881
21
-133.4657609999999863
0
LINE
8
BLACK
6
CONTINUOUS
10
161.8254279999999881
20
-133.4657609999999863
11
161.6295929999999998
21
-133.5023689999999874
0
LINE
8
BLACK
6
CONTINUOUS
10
161.6295929999999998
20
-133.5023689999999874
11
161.4438199999999881
21
-133.5743379999999831
0
LINE
8
BLACK
6
CONTINUOUS
10
161.4438199999999881
20
-133.5743379999999831
11
161.2744339999999852
21
-133.6792179999999917
0
LINE
8
BLACK
6
CONTINUOUS
10
161.2744339999999852
20
-133.6792179999999917
11
161.1272029999999802
21
-133.8134359999999958
0
LINE
8
BLACK
6
CONTINUOUS
10
161.1272029999999802
20
-133.8134359999999958
11
161.0071419999999875
21
-133.9724219999999946
0
LINE
8
BLACK
6
CONTINUOUS
10
161.0071419999999875
20
-133.9724219999999946
11
160.9183390000000031
21
-134.1507629999999835
0
LINE
8
BLACK
6
CONTINUOUS
10
160.9183390000000031
20
-134.1507629999999835
11
160.8638179999999807
21
-134.3423839999999814
0
LINE
8
BLACK
6
CONTINUOUS
10
160.8638179999999807
20
-134.3423839999999814
11
160.8454360000000065
21
-134.5407610000000034
0
LINE
8
BLACK
6
CONTINUOUS
10
160.8454360000000065
20
-134.5407610000000034
11
160.8638179999999807
21
-134.739137999999997
0
LINE
8
BLACK
6
CONTINUOUS
10
176.6392950000000042
20
-115.4317959999999914
11
188.7636509999999817
21
-122.4317959999999914
0
LINE
8
BLACK
6
CONTINUOUS
10
188.7636509999999817
20
-122.4317959999999914
11
188.770984999999996
21
-122.4382279999999952
0
LINE
8
BLACK
6
CONTINUOUS
10
188.770984999999996
20
-122.4382279999999952
11
188.775936999999999
21
-122.4567100000000011
0
LINE
8
BLACK
6
CONTINUOUS
10
188.775936999999999
20
-122.4567100000000011
11
188.772800999999987
21
-122.4659469999999999
0
LINE
8
BLACK
6
CONTINUOUS
10
188.772800999999987
20
-122.4659469999999999
11
181.7728019999999844
21
-134.5903030000000058
0
LINE
8
BLACK
6
CONTINUOUS
10
181.7728019999999844
20
-134.5903030000000058
11
181.7663699999999949
21
-134.5976369999999918
0
LINE
8
BLACK
6
CONTINUOUS
10
181.7663699999999949
20
-134.5976369999999918
11
181.747887999999989
21
-134.6025889999999947
0
LINE
8
BLACK
6
CONTINUOUS
10
181.747887999999989
20
-134.6025889999999947
11
181.7386510000000044
21
-134.5994529999999827
0
LINE
8
BLACK
6
CONTINUOUS
10
181.7386510000000044
20
-134.5994529999999827
11
169.6142949999999985
21
-127.5994539999999944
0
LINE
8
BLACK
6
CONTINUOUS
10
169.6142949999999985
20
-127.5994539999999944
11
169.6069609999999841
21
-127.5930219999999906
0
LINE
8
BLACK
6
CONTINUOUS
10
169.6069609999999841
20
-127.5930219999999906
11
169.6020089999999811
21
-127.5745399999999989
0
LINE
8
BLACK
6
CONTINUOUS
10
169.6020089999999811
20
-127.5745399999999989
11
169.6051439999999957
21
-127.5653030000000001
0
LINE
8
BLACK
6
CONTINUOUS
10
169.6051439999999957
20
-127.5653030000000001
11
176.6051439999999957
21
-115.4409469999999942
0
LINE
8
BLACK
6
CONTINUOUS
10
176.6051439999999957
20
-115.4409469999999942
11
176.6115759999999852
21
-115.433612999999994
0
LINE
8
BLACK
6
CONTINUOUS
10
176.6115759999999852
20
-115.433612999999994
11
176.6300579999999911
21
-115.4286609999999911
0
LINE
8
BLACK
6
CONTINUOUS
10
176.6300579999999911
20
-115.4286609999999911
11
176.6392950000000042
21
-115.4317959999999914
0
LINE
8
BLACK
6
CONTINUOUS
10
169.6609459999999956
20
-127.5686520000000002
11
181.7419999999999902
21
-134.5436509999999828
0
LINE
8
BLACK
6
CONTINUOUS
10
181.7419999999999902
20
-134.5436509999999828
11
188.7169999999999845
21
-122.4625969999999882
0
LINE
8
BLACK
6
CONTINUOUS
10
188.7169999999999845
20
-122.4625969999999882
11
176.6359449999999924
21
-115.4875969999999938
0
LINE
8
BLACK
6
CONTINUOUS
10
176.6359449999999924
20
-115.4875969999999938
11
169.6609459999999956
21
-127.5686520000000002
0
LINE
8
BLACK
6
CONTINUOUS
10
161.195414999999997
20
-115.6112779999999987
11
161.2089449999999999
21
-115.6248080000000016
0
LINE
8
BLACK
6
CONTINUOUS
10
161.2089449999999999
20
-115.6248080000000016
11
161.2108479999999986
21
-115.6343749999999915
0
LINE
8
BLACK
6
CONTINUOUS
10
161.2108479999999986
20
-115.6343749999999915
11
161.2108479999999986
21
-129.6343750000000057
0
LINE
8
BLACK
6
CONTINUOUS
10
161.2108479999999986
20
-129.6343750000000057
11
161.2089449999999999
21
-129.6439419999999814
0
LINE
8
BLACK
6
CONTINUOUS
10
161.2089449999999999
20
-129.6439419999999814
11
161.195414999999997
21
-129.6574719999999843
0
LINE
8
BLACK
6
CONTINUOUS
10
161.195414999999997
20
-129.6574719999999843
11
161.1858479999999929
21
-129.6593749999999829
0
LINE
8
BLACK
6
CONTINUOUS
10
161.1858479999999929
20
-129.6593749999999829
11
147.1858479999999929
21
-129.6593749999999829
0
LINE
8
BLACK
6
CONTINUOUS
10
147.1858479999999929
20
-129.6593749999999829
11
147.1762809999999888
21
-129.6574719999999843
0
LINE
8
BLACK
6
CONTINUOUS
10
147.1762809999999888
20
-129.6574719999999843
11
147.1627509999999859
21
-129.6439419999999814
0
LINE
8
BLACK
6
CONTINUOUS
10
147.1627509999999859
20
-129.6439419999999814
11
147.1608479999999872
21
-129.6343750000000057
0
LINE
8
BLACK
6
CONTINUOUS
10
147.1608479999999872
20
-129.6343750000000057
11
147.1608479999999872
21
-115.6343749999999915
0
LINE
8
BLACK
6
CONTINUOUS
10
147.1608479999999872
20
-115.6343749999999915
11
147.1627509999999859
21
-115.6248080000000016
0
LINE
8
BLACK
6
CONTINUOUS
10
147.1627509999999859
20
-115.6248080000000016
11
147.1762809999999888
21
-115.6112779999999987
0
LINE
8
BLACK
6
CONTINUOUS
10
147.1762809999999888
20
-115.6112779999999987
11
147.1858479999999929
21
-115.609375
0
LINE
8
BLACK
6
CONTINUOUS
10
147.1858479999999929
20
-115.609375
11
161.1858479999999929
21
-115.609375
0
LINE
8
BLACK
6
CONTINUOUS
10
161.1858479999999929
20
-115.609375
11
161.195414999999997
21
-115.6112779999999987
0
LINE
8
BLACK
6
CONTINUOUS
10
147.2108479999999986
20
-115.6593749999999972
11
147.2108479999999986
21
-129.609375
0
LINE
8
BLACK
6
CONTINUOUS
10
147.2108479999999986
20
-129.609375
11
161.1608479999999872
21
-129.609375
0
LINE
8
BLACK
6
CONTINUOUS
10
161.1608479999999872
20
-129.609375
11
161.1608479999999872
21
-115.6593749999999972
0
LINE
8
BLACK
6
CONTINUOUS
10
161.1608479999999872
20
-115.6593749999999972
11
147.2108479999999986
21
-115.6593749999999972
0
LINE
8
BLACK
6
CONTINUOUS
10
142.1454149999999856
20
-113.2300279999999901
11
142.1589449999999886
21
-113.2435579999999931
0
LINE
8
BLACK
6
CONTINUOUS
10
142.1589449999999886
20
-113.2435579999999931
11
142.1608479999999872
21
-113.2531249999999972
0
LINE
8
BLACK
6
CONTINUOUS
10
142.1608479999999872
20
-113.2531249999999972
11
142.1608479999999872
21
-127.2531249999999972
0
LINE
8
BLACK
6
CONTINUOUS
10
142.1608479999999872
20
-127.2531249999999972
11
142.1589449999999886
21
-127.2626920000000013
0
LINE
8
BLACK
6
CONTINUOUS
10
142.1589449999999886
20
-127.2626920000000013
11
142.1454149999999856
21
-127.27622199999999
0
LINE
8
BLACK
6
CONTINUOUS
10
142.1454149999999856
20
-127.27622199999999
11
142.1358479999999815
21
-127.2781249999999886
0
LINE
8
BLACK
6
CONTINUOUS
10
142.1358479999999815
20
-127.2781249999999886
11
128.1358479999999815
21
-127.2781249999999886
0
LINE
8
BLACK
6
CONTINUOUS
10
128.1358479999999815
20
-127.2781249999999886
11
128.1262810000000059
21
-127.27622199999999
0
LINE
8
BLACK
6
CONTINUOUS
10
128.1262810000000059
20
-127.27622199999999
11
128.1127510000000029
21
-127.2626920000000013
0
LINE
8
BLACK
6
CONTINUOUS
10
128.1127510000000029
20
-127.2626920000000013
11
128.1108480000000043
21
-127.2531249999999972
0
LINE
8
BLACK
6
CONTINUOUS
10
128.1108480000000043
20
-127.2531249999999972
11
128.1108480000000043
21
-113.2531249999999972
0
LINE
8
BLACK
6
CONTINUOUS
10
128.1108480000000043
20
-113.2531249999999972
11
128.1127510000000029
21
-113.2435579999999931
0
LINE
8
BLACK
6
CONTINUOUS
10
128.1127510000000029
20
-113.2435579999999931
11
128.1262810000000059
21
-113.2300279999999901
0
LINE
8
BLACK
6
CONTINUOUS
10
128.1262810000000059
20
-113.2300279999999901
11
128.1358479999999815
21
-113.2281249999999915
0
LINE
8
BLACK
6
CONTINUOUS
10
128.1358479999999815
20
-113.2281249999999915
11
142.1358479999999815
21
-113.2281249999999915
0
LINE
8
BLACK
6
CONTINUOUS
10
142.1358479999999815
20
-113.2281249999999915
11
142.1454149999999856
21
-113.2300279999999901
0
LINE
8
BLACK
6
CONTINUOUS
10
128.1608479999999872
20
-113.2781249999999886
11
128.1608479999999872
21
-127.2281249999999915
0
LINE
8
BLACK
6
CONTINUOUS
10
128.1608479999999872
20
-127.2281249999999915
11
142.1108480000000043
21
-127.2281249999999915
0
LINE
8
BLACK
6
CONTINUOUS
10
142.1108480000000043
20
-127.2281249999999915
11
142.1108480000000043
21
-113.2781249999999886
0
LINE
8
BLACK
6
CONTINUOUS
10
142.1108480000000043
20
-113.2781249999999886
11
128.1608479999999872
21
-113.2781249999999886
0
LINE
8
BLACK
6
CONTINUOUS
10
123.0954149999999885
20
-110.8487779999999958
11
123.1089449999999914
21
-110.8623079999999987
0
LINE
8
BLACK
6
CONTINUOUS
10
123.1089449999999914
20
-110.8623079999999987
11
123.1108479999999901
21
-110.8718749999999886
0
LINE
8
BLACK
6
CONTINUOUS
10
123.1108479999999901
20
-110.8718749999999886
11
123.1108479999999901
21
-124.8718749999999886
0
LINE
8
BLACK
6
CONTINUOUS
10
123.1108479999999901
20
-124.8718749999999886
11
123.1089449999999914
21
-124.8814419999999927
0
LINE
8
BLACK
6
CONTINUOUS
10
123.1089449999999914
20
-124.8814419999999927
11
123.0954149999999885
21
-124.8949719999999957
0
LINE
8
BLACK
6
CONTINUOUS
10
123.0954149999999885
20
-124.8949719999999957
11
123.0858479999999986
21
-124.8968749999999943
0
LINE
8
BLACK
6
CONTINUOUS
10
123.0858479999999986
20
-124.8968749999999943
11
109.0858479999999986
21
-124.8968749999999943
0
LINE
8
BLACK
6
CONTINUOUS
10
109.0858479999999986
20
-124.8968749999999943
11
109.0762809999999945
21
-124.8949719999999957
0
LINE
8
BLACK
6
CONTINUOUS
10
109.0762809999999945
20
-124.8949719999999957
11
109.0627509999999916
21
-124.8814419999999927
0
LINE
8
BLACK
6
CONTINUOUS
10
109.0627509999999916
20
-124.8814419999999927
11
109.0608479999999929
21
-124.8718749999999886
0
LINE
8
BLACK
6
CONTINUOUS
10
109.0608479999999929
20
-124.8718749999999886
11
109.0608479999999929
21
-110.8718749999999886
0
LINE
8
BLACK
6
CONTINUOUS
10
109.0608479999999929
20
-110.8718749999999886
11
109.0627509999999916
21
-110.8623079999999987
0
LINE
8
BLACK
6
CONTINUOUS
10
109.0627509999999916
20
-110.8623079999999987
11
109.0762809999999945
21
-110.8487779999999958
0
LINE
8
BLACK
6
CONTINUOUS
10
109.0762809999999945
20
-110.8487779999999958
11
109.0858479999999986
21
-110.8468749999999972
0
LINE
8
BLACK
6
CONTINUOUS
10
109.0858479999999986
20
-110.8468749999999972
11
123.0858479999999986
21
-110.8468749999999972
0
LINE
8
BLACK
6
CONTINUOUS
10
123.0858479999999986
20
-110.8468749999999972
11
123.0954149999999885
21
-110.8487779999999958
0
LINE
8
BLACK
6
CONTINUOUS
10
109.1108479999999901
20
-110.8968749999999943
11
109.1108479999999901
21
-124.8468749999999972
0
LINE
8
BLACK
6
CONTINUOUS
10
109.1108479999999901
20
-124.8468749999999972
11
123.0608479999999929
21
-124.8468749999999972
0
LINE
8
BLACK
6
CONTINUOUS
10
123.0608479999999929
20
-124.8468749999999972
11
123.0608479999999929
21
-110.8968749999999943
0
LINE
8
BLACK
6
CONTINUOUS
10
123.0608479999999929
20
-110.8968749999999943
11
109.1108479999999901
21
-110.8968749999999943
0
LINE
8
BLACK
6
CONTINUOUS
10
71.898539999999997
20
-109.6581529999999987
11
71.9120699999999999
21
-109.6716830000000016
0
LINE
8
BLACK
6
CONTINUOUS
10
71.9120699999999999
20
-109.6716830000000016
11
71.9139729999999986
21
-109.6812499999999915
0
LINE
8
BLACK
6
CONTINUOUS
10
71.9139729999999986
20
-109.6812499999999915
11
71.9139729999999986
21
-123.6812499999999915
0
LINE
8
BLACK
6
CONTINUOUS
10
71.9139729999999986
20
-123.6812499999999915
11
71.9120699999999999
21
-123.6908169999999956
0
LINE
8
BLACK
6
CONTINUOUS
10
71.9120699999999999
20
-123.6908169999999956
11
71.898539999999997
21
-123.7043469999999985
0
LINE
8
BLACK
6
CONTINUOUS
10
71.898539999999997
20
-123.7043469999999985
11
71.8889729999999929
21
-123.7062499999999972
0
LINE
8
BLACK
6
CONTINUOUS
10
71.8889729999999929
20
-123.7062499999999972
11
57.888973
21
-123.7062499999999972
0
LINE
8
BLACK
6
CONTINUOUS
10
57.888973
20
-123.7062499999999972
11
57.8794059999999959
21
-123.7043469999999985
0
LINE
8
BLACK
6
CONTINUOUS
10
57.8794059999999959
20
-123.7043469999999985
11
57.8658760000000001
21
-123.6908169999999956
0
LINE
8
BLACK
6
CONTINUOUS
10
57.8658760000000001
20
-123.6908169999999956
11
57.8639729999999943
21
-123.6812499999999915
0
LINE
8
BLACK
6
CONTINUOUS
10
57.8639729999999943
20
-123.6812499999999915
11
57.8639729999999943
21
-109.6812499999999915
0
LINE
8
BLACK
6
CONTINUOUS
10
57.8639729999999943
20
-109.6812499999999915
11
57.8658760000000001
21
-109.6716830000000016
0
LINE
8
BLACK
6
CONTINUOUS
10
57.8658760000000001
20
-109.6716830000000016
11
57.8794059999999959
21
-109.6581529999999987
0
LINE
8
BLACK
6
CONTINUOUS
10
57.8794059999999959
20
-109.6581529999999987
11
57.888973
21
-109.65625
0
LINE
8
BLACK
6
CONTINUOUS
10
57.888973
20
-109.65625
11
71.8889729999999929
21
-109.65625
0
LINE
8
BLACK
6
CONTINUOUS
10
71.8889729999999929
20
-109.65625
11
71.898539999999997
21
-109.6581529999999987
0
LINE
8
BLACK
6
CONTINUOUS
10
57.9139729999999986
20
-109.7062499999999972
11
57.9139729999999986
21
-123.65625
0
LINE
8
BLACK
6
CONTINUOUS
10
57.9139729999999986
20
-123.65625
11
71.8639730000000014
21
-123.65625
0
LINE
8
BLACK
6
CONTINUOUS
10
71.8639730000000014
20
-123.65625
11
71.8639730000000014
21
-109.7062499999999972
0
LINE
8
BLACK
6
CONTINUOUS
10
71.8639730000000014
20
-109.7062499999999972
11
57.9139729999999986
21
-109.7062499999999972
0
LINE
8
BLACK
6
CONTINUOUS
10
78.2937189999999958
20
-120.3616959999999949
11
78.4873039999999946
21
-120.4366909999999962
0
LINE
8
BLACK
6
CONTINUOUS
10
78.4873039999999946
20
-120.4366909999999962
11
78.663811999999993
21
-120.5459809999999976
0
LINE
8
BLACK
6
CONTINUOUS
10
78.663811999999993
20
-120.5459809999999976
11
78.8172330000000017
21
-120.6858419999999938
0
LINE
8
BLACK
6
CONTINUOUS
10
78.8172330000000017
20
-120.6858419999999938
11
78.9423419999999965
21
-120.8515139999999946
0
LINE
8
BLACK
6
CONTINUOUS
10
78.9423419999999965
20
-120.8515139999999946
11
79.0348789999999894
21
-121.037352999999996
0
LINE
8
BLACK
6
CONTINUOUS
10
79.0348789999999894
20
-121.037352999999996
11
79.0916929999999923
21
-121.2370319999999992
0
LINE
8
BLACK
6
CONTINUOUS
10
79.0916929999999923
20
-121.2370319999999992
11
79.1108479999999901
21
-121.4437499999999943
0
LINE
8
BLACK
6
CONTINUOUS
10
79.1108479999999901
20
-121.4437499999999943
11
79.0916929999999923
21
-121.6504679999999894
0
LINE
8
BLACK
6
CONTINUOUS
10
79.0916929999999923
20
-121.6504679999999894
11
79.0348789999999894
21
-121.8501469999999927
0
LINE
8
BLACK
6
CONTINUOUS
10
79.0348789999999894
20
-121.8501469999999927
11
78.9423419999999965
21
-122.0359859999999941
0
LINE
8
BLACK
6
CONTINUOUS
10
78.9423419999999965
20
-122.0359859999999941
11
78.8172330000000017
21
-122.2016579999999948
0
LINE
8
BLACK
6
CONTINUOUS
10
78.8172330000000017
20
-122.2016579999999948
11
78.663811999999993
21
-122.341518999999991
0
LINE
8
BLACK
6
CONTINUOUS
10
78.663811999999993
20
-122.341518999999991
11
78.4873039999999946
21
-122.4508089999999925
0
LINE
8
BLACK
6
CONTINUOUS
10
78.4873039999999946
20
-122.4508089999999925
11
78.2937189999999958
21
-122.5258039999999937
0
LINE
8
BLACK
6
CONTINUOUS
10
78.2937189999999958
20
-122.5258039999999937
11
78.0896499999999918
21
-122.5639509999999888
0
LINE
8
BLACK
6
CONTINUOUS
10
78.0896499999999918
20
-122.5639509999999888
11
77.8820460000000026
21
-122.5639509999999888
0
LINE
8
BLACK
6
CONTINUOUS
10
77.8820460000000026
20
-122.5639509999999888
11
77.6779769999999985
21
-122.5258039999999937
0
LINE
8
BLACK
6
CONTINUOUS
10
77.6779769999999985
20
-122.5258039999999937
11
77.4843919999999997
21
-122.4508089999999925
0
LINE
8
BLACK
6
CONTINUOUS
10
77.4843919999999997
20
-122.4508089999999925
11
77.3078840000000014
21
-122.341518999999991
0
LINE
8
BLACK
6
CONTINUOUS
10
77.3078840000000014
20
-122.341518999999991
11
77.1544629999999927
21
-122.2016579999999948
0
LINE
8
BLACK
6
CONTINUOUS
10
77.1544629999999927
20
-122.2016579999999948
11
77.0293539999999979
21
-122.0359859999999941
0
LINE
8
BLACK
6
CONTINUOUS
10
77.0293539999999979
20
-122.0359859999999941
11
76.9368169999999907
21
-121.8501469999999927
0
LINE
8
BLACK
6
CONTINUOUS
10
76.9368169999999907
20
-121.8501469999999927
11
76.8800030000000021
21
-121.6504679999999894
0
LINE
8
BLACK
6
CONTINUOUS
10
76.8800030000000021
20
-121.6504679999999894
11
76.8608479999999901
21
-121.4437499999999943
0
LINE
8
BLACK
6
CONTINUOUS
10
76.8608479999999901
20
-121.4437499999999943
11
76.8800030000000021
21
-121.2370319999999992
0
LINE
8
BLACK
6
CONTINUOUS
10
76.8800030000000021
20
-121.2370319999999992
11
76.9368169999999907
21
-121.037352999999996
0
LINE
8
BLACK
6
CONTINUOUS
10
76.9368169999999907
20
-121.037352999999996
11
77.0293539999999979
21
-120.8515139999999946
0
LINE
8
BLACK
6
CONTINUOUS
10
77.0293539999999979
20
-120.8515139999999946
11
77.1544629999999927
21
-120.6858419999999938
0
LINE
8
BLACK
6
CONTINUOUS
10
77.1544629999999927
20
-120.6858419999999938
11
77.3078840000000014
21
-120.5459809999999976
0
LINE
8
BLACK
6
CONTINUOUS
10
77.3078840000000014
20
-120.5459809999999976
11
77.4843919999999997
21
-120.4366909999999962
0
LINE
8
BLACK
6
CONTINUOUS
10
77.4843919999999997
20
-120.4366909999999962
11
77.6779769999999985
21
-120.3616959999999949
0
LINE
8
BLACK
6
CONTINUOUS
10
77.6779769999999985
20
-120.3616959999999949
11
77.8820460000000026
21
-120.3235489999999999
0
LINE
8
BLACK
6
CONTINUOUS
10
77.8820460000000026
20
-120.3235489999999999
11
78.0896499999999918
21
-120.3235489999999999
0
LINE
8
BLACK
6
CONTINUOUS
10
78.0896499999999918
20
-120.3235489999999999
11
78.2937189999999958
21
-120.3616959999999949
0
LINE
8
BLACK
6
CONTINUOUS
10
76.9246249999999918
20
-121.6421269999999879
11
76.9791460000000001
21
-121.8337479999999999
0
LINE
8
BLACK
6
CONTINUOUS
10
76.9791460000000001
20
-121.8337479999999999
11
77.0679489999999987
21
-122.0120889999999889
0
LINE
8
BLACK
6
CONTINUOUS
10
77.0679489999999987
20
-122.0120889999999889
11
77.1880099999999914
21
-122.1710749999999877
0
LINE
8
BLACK
6
CONTINUOUS
10
77.1880099999999914
20
-122.1710749999999877
11
77.3352409999999963
21
-122.3052929999999918
0
LINE
8
BLACK
6
CONTINUOUS
10
77.3352409999999963
20
-122.3052929999999918
11
77.5046269999999993
21
-122.4101730000000003
0
LINE
8
BLACK
6
CONTINUOUS
10
77.5046269999999993
20
-122.4101730000000003
11
77.6903999999999968
21
-122.4821419999999961
0
LINE
8
BLACK
6
CONTINUOUS
10
77.6903999999999968
20
-122.4821419999999961
11
77.8862349999999992
21
-122.5187499999999972
0
LINE
8
BLACK
6
CONTINUOUS
10
77.8862349999999992
20
-122.5187499999999972
11
78.0854609999999951
21
-122.5187499999999972
0
LINE
8
BLACK
6
CONTINUOUS
10
78.0854609999999951
20
-122.5187499999999972
11
78.2812959999999975
21
-122.4821419999999961
0
LINE
8
BLACK
6
CONTINUOUS
10
78.2812959999999975
20
-122.4821419999999961
11
78.4670689999999951
21
-122.4101730000000003
0
LINE
8
BLACK
6
CONTINUOUS
10
78.4670689999999951
20
-122.4101730000000003
11
78.636454999999998
21
-122.3052929999999918
0
LINE
8
BLACK
6
CONTINUOUS
10
78.636454999999998
20
-122.3052929999999918
11
78.783686000000003
21
-122.1710749999999877
0
LINE
8
BLACK
6
CONTINUOUS
10
78.783686000000003
20
-122.1710749999999877
11
78.9037469999999956
21
-122.0120889999999889
0
LINE
8
BLACK
6
CONTINUOUS
10
78.9037469999999956
20
-122.0120889999999889
11
78.9925499999999943
21
-121.8337479999999999
0
LINE
8
BLACK
6
CONTINUOUS
10
78.9925499999999943
20
-121.8337479999999999
11
79.0470710000000025
21
-121.6421269999999879
0
LINE
8
BLACK
6
CONTINUOUS
10
79.0470710000000025
20
-121.6421269999999879
11
79.0654529999999909
21
-121.4437499999999943
0
LINE
8
BLACK
6
CONTINUOUS
10
79.0654529999999909
20
-121.4437499999999943
11
79.0470710000000025
21
-121.2453730000000007
0
LINE
8
BLACK
6
CONTINUOUS
10
79.0470710000000025
20
-121.2453730000000007
11
78.9925499999999943
21
-121.0537519999999887
0
LINE
8
BLACK
6
CONTINUOUS
10
78.9925499999999943
20
-121.0537519999999887
11
78.9037469999999956
21
-120.8754109999999997
0
LINE
8
BLACK
6
CONTINUOUS
10
78.9037469999999956
20
-120.8754109999999997
11
78.783686000000003
21
-120.716425000000001
0
LINE
8
BLACK
6
CONTINUOUS
10
78.783686000000003
20
-120.716425000000001
11
78.636454999999998
21
-120.5822069999999968
0
LINE
8
BLACK
6
CONTINUOUS
10
78.636454999999998
20
-120.5822069999999968
11
78.4670689999999951
21
-120.4773269999999883
0
LINE
8
BLACK
6
CONTINUOUS
10
78.4670689999999951
20
-120.4773269999999883
11
78.2812959999999975
21
-120.4053579999999926
0
LINE
8
BLACK
6
CONTINUOUS
10
78.2812959999999975
20
-120.4053579999999926
11
78.0854609999999951
21
-120.3687499999999915
0
LINE
8
BLACK
6
CONTINUOUS
10
78.0854609999999951
20
-120.3687499999999915
11
77.8862349999999992
21
-120.3687499999999915
0
LINE
8
BLACK
6
CONTINUOUS
10
77.8862349999999992
20
-120.3687499999999915
11
77.6903999999999968
21
-120.4053579999999926
0
LINE
8
BLACK
6
CONTINUOUS
10
77.6903999999999968
20
-120.4053579999999926
11
77.5046269999999993
21
-120.4773269999999883
0
LINE
8
BLACK
6
CONTINUOUS
10
77.5046269999999993
20
-120.4773269999999883
11
77.3352409999999963
21
-120.5822069999999968
0
LINE
8
BLACK
6
CONTINUOUS
10
77.3352409999999963
20
-120.5822069999999968
11
77.1880099999999914
21
-120.716425000000001
0
LINE
8
BLACK
6
CONTINUOUS
10
77.1880099999999914
20
-120.716425000000001
11
77.0679489999999987
21
-120.8754109999999997
0
LINE
8
BLACK
6
CONTINUOUS
10
77.0679489999999987
20
-120.8754109999999997
11
76.9791460000000001
21
-121.0537519999999887
0
LINE
8
BLACK
6
CONTINUOUS
10
76.9791460000000001
20
-121.0537519999999887
11
76.9246249999999918
21
-121.2453730000000007
0
LINE
8
BLACK
6
CONTINUOUS
10
76.9246249999999918
20
-121.2453730000000007
11
76.9062430000000035
21
-121.4437499999999943
0
LINE
8
BLACK
6
CONTINUOUS
10
76.9062430000000035
20
-121.4437499999999943
11
76.9246249999999918
21
-121.6421269999999879
0
LINE
8
BLACK
6
CONTINUOUS
10
90.9485399999999942
20
-100.133152999999993
11
90.9620699999999971
21
-100.1466829999999959
0
LINE
8
BLACK
6
CONTINUOUS
10
90.9620699999999971
20
-100.1466829999999959
11
90.9639729999999957
21
-100.15625
0
LINE
8
BLACK
6
CONTINUOUS
10
90.9639729999999957
20
-100.15625
11
90.9639729999999957
21
-114.15625
0
LINE
8
BLACK
6
CONTINUOUS
10
90.9639729999999957
20
-114.15625
11
90.9620699999999971
21
-114.1658169999999899
0
LINE
8
BLACK
6
CONTINUOUS
10
90.9620699999999971
20
-114.1658169999999899
11
90.9485399999999942
21
-114.1793469999999928
0
LINE
8
BLACK
6
CONTINUOUS
10
90.9485399999999942
20
-114.1793469999999928
11
90.9389729999999901
21
-114.1812499999999915
0
LINE
8
BLACK
6
CONTINUOUS
10
90.9389729999999901
20
-114.1812499999999915
11
76.9389729999999901
21
-114.1812499999999915
0
LINE
8
BLACK
6
CONTINUOUS
10
76.9389729999999901
20
-114.1812499999999915
11
76.9294060000000002
21
-114.1793469999999928
0
LINE
8
BLACK
6
CONTINUOUS
10
76.9294060000000002
20
-114.1793469999999928
11
76.9158759999999972
21
-114.1658169999999899
0
LINE
8
BLACK
6
CONTINUOUS
10
76.9158759999999972
20
-114.1658169999999899
11
76.9139729999999986
21
-114.15625
0
LINE
8
BLACK
6
CONTINUOUS
10
76.9139729999999986
20
-114.15625
11
76.9139729999999986
21
-100.15625
0
LINE
8
BLACK
6
CONTINUOUS
10
76.9139729999999986
20
-100.15625
11
76.9158759999999972
21
-100.1466829999999959
0
LINE
8
BLACK
6
CONTINUOUS
10
76.9158759999999972
20
-100.1466829999999959
11
76.9294060000000002
21
-100.133152999999993
0
LINE
8
BLACK
6
CONTINUOUS
10
76.9294060000000002
20
-100.133152999999993
11
76.9389729999999901
21
-100.1312499999999943
0
LINE
8
BLACK
6
CONTINUOUS
10
76.9389729999999901
20
-100.1312499999999943
11
90.9389729999999901
21
-100.1312499999999943
0
LINE
8
BLACK
6
CONTINUOUS
10
90.9389729999999901
20
-100.1312499999999943
11
90.9485399999999942
21
-100.133152999999993
0
LINE
8
BLACK
6
CONTINUOUS
10
76.9639729999999957
20
-100.1812499999999915
11
76.9639729999999957
21
-114.1312499999999943
0
LINE
8
BLACK
6
CONTINUOUS
10
76.9639729999999957
20
-114.1312499999999943
11
90.9139729999999986
21
-114.1312499999999943
0
LINE
8
BLACK
6
CONTINUOUS
10
90.9139729999999986
20
-114.1312499999999943
11
90.9139729999999986
21
-100.1812499999999915
0
LINE
8
BLACK
6
CONTINUOUS
10
90.9139729999999986
20
-100.1812499999999915
11
76.9639729999999957
21
-100.1812499999999915
0
LINE
8
BLACK
6
CONTINUOUS
10
167.148539999999997
20
-96.5612780000000015
11
167.1620699999999999
21
-96.5748079999999902
0
LINE
8
BLACK
6
CONTINUOUS
10
167.1620699999999999
20
-96.5748079999999902
11
167.1639729999999986
21
-96.5843749999999943
0
LINE
8
BLACK
6
CONTINUOUS
10
167.1639729999999986
20
-96.5843749999999943
11
167.1639729999999986
21
-110.5843749999999943
0
LINE
8
BLACK
6
CONTINUOUS
10
167.1639729999999986
20
-110.5843749999999943
11
167.1620699999999999
21
-110.5939419999999984
0
LINE
8
BLACK
6
CONTINUOUS
10
167.1620699999999999
20
-110.5939419999999984
11
167.148539999999997
21
-110.6074720000000013
0
LINE
8
BLACK
6
CONTINUOUS
10
167.148539999999997
20
-110.6074720000000013
11
167.1389729999999929
21
-110.609375
0
LINE
8
BLACK
6
CONTINUOUS
10
167.1389729999999929
20
-110.609375
11
153.1389729999999929
21
-110.609375
0
LINE
8
BLACK
6
CONTINUOUS
10
153.1389729999999929
20
-110.609375
11
153.1294059999999888
21
-110.6074720000000013
0
LINE
8
BLACK
6
CONTINUOUS
10
153.1294059999999888
20
-110.6074720000000013
11
153.1158759999999859
21
-110.5939419999999984
0
LINE
8
BLACK
6
CONTINUOUS
10
153.1158759999999859
20
-110.5939419999999984
11
153.1139729999999872
21
-110.5843749999999943
0
LINE
8
BLACK
6
CONTINUOUS
10
153.1139729999999872
20
-110.5843749999999943
11
153.1139729999999872
21
-96.5843749999999943
0
LINE
8
BLACK
6
CONTINUOUS
10
153.1139729999999872
20
-96.5843749999999943
11
153.1158759999999859
21
-96.5748079999999902
0
LINE
8
BLACK
6
CONTINUOUS
10
153.1158759999999859
20
-96.5748079999999902
11
153.1294059999999888
21
-96.5612780000000015
0
LINE
8
BLACK
6
CONTINUOUS
10
153.1294059999999888
20
-96.5612780000000015
11
153.1389729999999929
21
-96.5593749999999886
0
LINE
8
BLACK
6
CONTINUOUS
10
153.1389729999999929
20
-96.5593749999999886
11
167.1389729999999929
21
-96.5593749999999886
0
LINE
8
BLACK
6
CONTINUOUS
10
167.1389729999999929
20
-96.5593749999999886
11
167.148539999999997
21
-96.5612780000000015
0
LINE
8
BLACK
6
CONTINUOUS
10
153.1639729999999986
20
-96.609375
11
153.1639729999999986
21
-110.5593749999999886
0
LINE
8
BLACK
6
CONTINUOUS
10
153.1639729999999986
20
-110.5593749999999886
11
167.1139729999999872
21
-110.5593749999999886
0
LINE
8
BLACK
6
CONTINUOUS
10
167.1139729999999872
20
-110.5593749999999886
11
167.1139729999999872
21
-96.609375
0
LINE
8
BLACK
6
CONTINUOUS
10
167.1139729999999872
20
-96.609375
11
153.1639729999999986
21
-96.609375
0
LINE
8
BLACK
6
CONTINUOUS
10
185.4499689999999816
20
-106.0741960000000006
11
185.6435539999999946
21
-106.1491910000000018
0
LINE
8
BLACK
6
CONTINUOUS
10
185.6435539999999946
20
-106.1491910000000018
11
185.8200619999999788
21
-106.2584809999999891
0
LINE
8
BLACK
6
CONTINUOUS
10
185.8200619999999788
20
-106.2584809999999891
11
185.9734829999999874
21
-106.3983419999999995
0
LINE
8
BLACK
6
CONTINUOUS
10
185.9734829999999874
20
-106.3983419999999995
11
186.0985919999999965
21
-106.5640140000000002
0
LINE
8
BLACK
6
CONTINUOUS
10
186.0985919999999965
20
-106.5640140000000002
11
186.1911289999999894
21
-106.7498530000000017
0
LINE
8
BLACK
6
CONTINUOUS
10
186.1911289999999894
20
-106.7498530000000017
11
186.2479429999999923
21
-106.9495319999999907
0
LINE
8
BLACK
6
CONTINUOUS
10
186.2479429999999923
20
-106.9495319999999907
11
186.2670980000000043
21
-107.15625
0
LINE
8
BLACK
6
CONTINUOUS
10
186.2670980000000043
20
-107.15625
11
186.2479429999999923
21
-107.3629679999999951
0
LINE
8
BLACK
6
CONTINUOUS
10
186.2479429999999923
20
-107.3629679999999951
11
186.1911289999999894
21
-107.5626469999999983
0
LINE
8
BLACK
6
CONTINUOUS
10
186.1911289999999894
20
-107.5626469999999983
11
186.0985919999999965
21
-107.7484859999999998
0
LINE
8
BLACK
6
CONTINUOUS
10
186.0985919999999965
20
-107.7484859999999998
11
185.9734829999999874
21
-107.9141580000000005
0
LINE
8
BLACK
6
CONTINUOUS
10
185.9734829999999874
20
-107.9141580000000005
11
185.8200619999999788
21
-108.0540189999999967
0
LINE
8
BLACK
6
CONTINUOUS
10
185.8200619999999788
20
-108.0540189999999967
11
185.6435539999999946
21
-108.1633089999999982
0
LINE
8
BLACK
6
CONTINUOUS
10
185.6435539999999946
20
-108.1633089999999982
11
185.4499689999999816
21
-108.2383039999999994
0
LINE
8
BLACK
6
CONTINUOUS
10
185.4499689999999816
20
-108.2383039999999994
11
185.2458999999999776
21
-108.2764509999999945
0
LINE
8
BLACK
6
CONTINUOUS
10
185.2458999999999776
20
-108.2764509999999945
11
185.0382960000000026
21
-108.2764509999999945
0
LINE
8
BLACK
6
CONTINUOUS
10
185.0382960000000026
20
-108.2764509999999945
11
184.8342269999999985
21
-108.2383039999999994
0
LINE
8
BLACK
6
CONTINUOUS
10
184.8342269999999985
20
-108.2383039999999994
11
184.6406419999999855
21
-108.1633089999999982
0
LINE
8
BLACK
6
CONTINUOUS
10
184.6406419999999855
20
-108.1633089999999982
11
184.4641340000000014
21
-108.0540189999999967
0
LINE
8
BLACK
6
CONTINUOUS
10
184.4641340000000014
20
-108.0540189999999967
11
184.3107129999999927
21
-107.9141580000000005
0
LINE
8
BLACK
6
CONTINUOUS
10
184.3107129999999927
20
-107.9141580000000005
11
184.1856039999999837
21
-107.7484859999999998
0
LINE
8
BLACK
6
CONTINUOUS
10
184.1856039999999837
20
-107.7484859999999998
11
184.0930669999999907
21
-107.5626469999999983
0
LINE
8
BLACK
6
CONTINUOUS
10
184.0930669999999907
20
-107.5626469999999983
11
184.0362529999999879
21
-107.3629679999999951
0
LINE
8
BLACK
6
CONTINUOUS
10
184.0362529999999879
20
-107.3629679999999951
11
184.0170980000000043
21
-107.15625
0
LINE
8
BLACK
6
CONTINUOUS
10
184.0170980000000043
20
-107.15625
11
184.0362529999999879
21
-106.9495319999999907
0
LINE
8
BLACK
6
CONTINUOUS
10
184.0362529999999879
20
-106.9495319999999907
11
184.0930669999999907
21
-106.7498530000000017
0
LINE
8
BLACK
6
CONTINUOUS
10
184.0930669999999907
20
-106.7498530000000017
11
184.1856039999999837
21
-106.5640140000000002
0
LINE
8
BLACK
6
CONTINUOUS
10
184.1856039999999837
20
-106.5640140000000002
11
184.3107129999999927
21
-106.3983419999999995
0
LINE
8
BLACK
6
CONTINUOUS
10
184.3107129999999927
20
-106.3983419999999995
11
184.4641340000000014
21
-106.2584809999999891
0
LINE
8
BLACK
6
CONTINUOUS
10
184.4641340000000014
20
-106.2584809999999891
11
184.6406419999999855
21
-106.1491910000000018
0
LINE
8
BLACK
6
CONTINUOUS
10
184.6406419999999855
20
-106.1491910000000018
11
184.8342269999999985
21
-106.0741960000000006
0
LINE
8
BLACK
6
CONTINUOUS
10
184.8342269999999985
20
-106.0741960000000006
11
185.0382960000000026
21
-106.0360489999999913
0
LINE
8
BLACK
6
CONTINUOUS
10
185.0382960000000026
20
-106.0360489999999913
11
185.2458999999999776
21
-106.0360489999999913
0
LINE
8
BLACK
6
CONTINUOUS
10
185.2458999999999776
20
-106.0360489999999913
11
185.4499689999999816
21
-106.0741960000000006
0
LINE
8
BLACK
6
CONTINUOUS
10
184.0808749999999918
20
-107.3546269999999936
11
184.1353959999999859
21
-107.5462479999999914
0
LINE
8
BLACK
6
CONTINUOUS
10
184.1353959999999859
20
-107.5462479999999914
11
184.2241989999999987
21
-107.7245889999999946
0
LINE
8
BLACK
6
CONTINUOUS
10
184.2241989999999987
20
-107.7245889999999946
11
184.3442599999999914
21
-107.8835749999999933
0
LINE
8
BLACK
6
CONTINUOUS
10
184.3442599999999914
20
-107.8835749999999933
11
184.4914909999999963
21
-108.0177929999999975
0
LINE
8
BLACK
6
CONTINUOUS
10
184.4914909999999963
20
-108.0177929999999975
11
184.6608769999999993
21
-108.1226729999999918
0
LINE
8
BLACK
6
CONTINUOUS
10
184.6608769999999993
20
-108.1226729999999918
11
184.8466499999999826
21
-108.1946420000000018
0
LINE
8
BLACK
6
CONTINUOUS
10
184.8466499999999826
20
-108.1946420000000018
11
185.0424849999999992
21
-108.2312499999999886
0
LINE
8
BLACK
6
CONTINUOUS
10
185.0424849999999992
20
-108.2312499999999886
11
185.2417109999999809
21
-108.2312499999999886
0
LINE
8
BLACK
6
CONTINUOUS
10
185.2417109999999809
20
-108.2312499999999886
11
185.4375459999999975
21
-108.1946420000000018
0
LINE
8
BLACK
6
CONTINUOUS
10
185.4375459999999975
20
-108.1946420000000018
11
185.6233189999999809
21
-108.1226729999999918
0
LINE
8
BLACK
6
CONTINUOUS
10
185.6233189999999809
20
-108.1226729999999918
11
185.7927049999999838
21
-108.0177929999999975
0
LINE
8
BLACK
6
CONTINUOUS
10
185.7927049999999838
20
-108.0177929999999975
11
185.9399359999999888
21
-107.8835749999999933
0
LINE
8
BLACK
6
CONTINUOUS
10
185.9399359999999888
20
-107.8835749999999933
11
186.0599969999999814
21
-107.7245889999999946
0
LINE
8
BLACK
6
CONTINUOUS
10
186.0599969999999814
20
-107.7245889999999946
11
186.1487999999999943
21
-107.5462479999999914
0
LINE
8
BLACK
6
CONTINUOUS
10
186.1487999999999943
20
-107.5462479999999914
11
186.2033209999999883
21
-107.3546269999999936
0
LINE
8
BLACK
6
CONTINUOUS
10
186.2033209999999883
20
-107.3546269999999936
11
186.2217029999999909
21
-107.15625
0
LINE
8
BLACK
6
CONTINUOUS
10
186.2217029999999909
20
-107.15625
11
186.2033209999999883
21
-106.9578729999999922
0
LINE
8
BLACK
6
CONTINUOUS
10
186.2033209999999883
20
-106.9578729999999922
11
186.1487999999999943
21
-106.7662519999999944
0
LINE
8
BLACK
6
CONTINUOUS
10
186.1487999999999943
20
-106.7662519999999944
11
186.0599969999999814
21
-106.5879109999999912
0
LINE
8
BLACK
6
CONTINUOUS
10
186.0599969999999814
20
-106.5879109999999912
11
185.9399359999999888
21
-106.4289249999999925
0
LINE
8
BLACK
6
CONTINUOUS
10
185.9399359999999888
20
-106.4289249999999925
11
185.7927049999999838
21
-106.2947069999999883
0
LINE
8
BLACK
6
CONTINUOUS
10
185.7927049999999838
20
-106.2947069999999883
11
185.6233189999999809
21
-106.189826999999994
0
LINE
8
BLACK
6
CONTINUOUS
10
185.6233189999999809
20
-106.189826999999994
11
185.4375459999999975
21
-106.1178579999999982
0
LINE
8
BLACK
6
CONTINUOUS
10
185.4375459999999975
20
-106.1178579999999982
11
185.2417109999999809
21
-106.0812499999999972
0
LINE
8
BLACK
6
CONTINUOUS
10
185.2417109999999809
20
-106.0812499999999972
11
185.0424849999999992
21
-106.0812499999999972
0
LINE
8
BLACK
6
CONTINUOUS
10
185.0424849999999992
20
-106.0812499999999972
11
184.8466499999999826
21
-106.1178579999999982
0
LINE
8
BLACK
6
CONTINUOUS
10
184.8466499999999826
20
-106.1178579999999982
11
184.6608769999999993
21
-106.189826999999994
0
LINE
8
BLACK
6
CONTINUOUS
10
184.6608769999999993
20
-106.189826999999994
11
184.4914909999999963
21
-106.2947069999999883
0
LINE
8
BLACK
6
CONTINUOUS
10
184.4914909999999963
20
-106.2947069999999883
11
184.3442599999999914
21
-106.4289249999999925
0
LINE
8
BLACK
6
CONTINUOUS
10
184.3442599999999914
20
-106.4289249999999925
11
184.2241989999999987
21
-106.5879109999999912
0
LINE
8
BLACK
6
CONTINUOUS
10
184.2241989999999987
20
-106.5879109999999912
11
184.1353959999999859
21
-106.7662519999999944
0
LINE
8
BLACK
6
CONTINUOUS
10
184.1353959999999859
20
-106.7662519999999944
11
184.0808749999999918
21
-106.9578729999999922
0
LINE
8
BLACK
6
CONTINUOUS
10
184.0808749999999918
20
-106.9578729999999922
11
184.0624929999999893
21
-107.15625
0
LINE
8
BLACK
6
CONTINUOUS
10
184.0624929999999893
20
-107.15625
11
184.0808749999999918
21
-107.3546269999999936
0
LINE
8
BLACK
6
CONTINUOUS
10
109.9985399999999913
20
-91.7987779999999987
11
110.0120699999999943
21
-91.8123080000000016
0
LINE
8
BLACK
6
CONTINUOUS
10
110.0120699999999943
20
-91.8123080000000016
11
110.0139729999999929
21
-91.8218749999999915
0
LINE
8
BLACK
6
CONTINUOUS
10
110.0139729999999929
20
-91.8218749999999915
11
110.0139729999999929
21
-105.8218749999999915
0
LINE
8
BLACK
6
CONTINUOUS
10
110.0139729999999929
20
-105.8218749999999915
11
110.0120699999999943
21
-105.8314419999999956
0
LINE
8
BLACK
6
CONTINUOUS
10
110.0120699999999943
20
-105.8314419999999956
11
109.9985399999999913
21
-105.8449719999999985
0
LINE
8
BLACK
6
CONTINUOUS
10
109.9985399999999913
20
-105.8449719999999985
11
109.9889730000000014
21
-105.8468749999999972
0
LINE
8
BLACK
6
CONTINUOUS
10
109.9889730000000014
20
-105.8468749999999972
11
95.9889730000000014
21
-105.8468749999999972
0
LINE
8
BLACK
6
CONTINUOUS
10
95.9889730000000014
20
-105.8468749999999972
11
95.9794059999999973
21
-105.8449719999999985
0
LINE
8
BLACK
6
CONTINUOUS
10
95.9794059999999973
20
-105.8449719999999985
11
95.9658759999999944
21
-105.8314419999999956
0
LINE
8
BLACK
6
CONTINUOUS
10
95.9658759999999944
20
-105.8314419999999956
11
95.9639729999999957
21
-105.8218749999999915
0
LINE
8
BLACK
6
CONTINUOUS
10
95.9639729999999957
20
-105.8218749999999915
11
95.9639729999999957
21
-91.8218749999999915
0
LINE
8
BLACK
6
CONTINUOUS
10
95.9639729999999957
20
-91.8218749999999915
11
95.9658759999999944
21
-91.8123080000000016
0
LINE
8
BLACK
6
CONTINUOUS
10
95.9658759999999944
20
-91.8123080000000016
11
95.9794059999999973
21
-91.7987779999999987
0
LINE
8
BLACK
6
CONTINUOUS
10
95.9794059999999973
20
-91.7987779999999987
11
95.9889730000000014
21
-91.796875
0
LINE
8
BLACK
6
CONTINUOUS
10
95.9889730000000014
20
-91.796875
11
109.9889730000000014
21
-91.796875
0
LINE
8
BLACK
6
CONTINUOUS
10
109.9889730000000014
20
-91.796875
11
109.9985399999999913
21
-91.7987779999999987
0
LINE
8
BLACK
6
CONTINUOUS
10
96.0139729999999929
20
-91.8468749999999972
11
96.0139729999999929
21
-105.796875
0
LINE
8
BLACK
6
CONTINUOUS
10
96.0139729999999929
20
-105.796875
11
109.9639729999999957
21
-105.796875
0
LINE
8
BLACK
6
CONTINUOUS
10
109.9639729999999957
20
-105.796875
11
109.9639729999999957
21
-91.8468749999999972
0
LINE
8
BLACK
6
CONTINUOUS
10
109.9639729999999957
20
-91.8468749999999972
11
96.0139729999999929
21
-91.8468749999999972
0
LINE
8
BLACK
6
CONTINUOUS
10
148.0985399999999856
20
-91.7987779999999987
11
148.1120699999999886
21
-91.8123080000000016
0
LINE
8
BLACK
6
CONTINUOUS
10
148.1120699999999886
20
-91.8123080000000016
11
148.1139729999999872
21
-91.8218749999999915
0
LINE
8
BLACK
6
CONTINUOUS
10
148.1139729999999872
20
-91.8218749999999915
11
148.1139729999999872
21
-105.8218749999999915
0
LINE
8
BLACK
6
CONTINUOUS
10
148.1139729999999872
20
-105.8218749999999915
11
148.1120699999999886
21
-105.8314419999999956
0
LINE
8
BLACK
6
CONTINUOUS
10
148.1120699999999886
20
-105.8314419999999956
11
148.0985399999999856
21
-105.8449719999999985
0
LINE
8
BLACK
6
CONTINUOUS
10
148.0985399999999856
20
-105.8449719999999985
11
148.0889729999999815
21
-105.8468749999999972
0
LINE
8
BLACK
6
CONTINUOUS
10
148.0889729999999815
20
-105.8468749999999972
11
134.0889729999999815
21
-105.8468749999999972
0
LINE
8
BLACK
6
CONTINUOUS
10
134.0889729999999815
20
-105.8468749999999972
11
134.0794060000000059
21
-105.8449719999999985
0
LINE
8
BLACK
6
CONTINUOUS
10
134.0794060000000059
20
-105.8449719999999985
11
134.0658760000000029
21
-105.8314419999999956
0
LINE
8
BLACK
6
CONTINUOUS
10
134.0658760000000029
20
-105.8314419999999956
11
134.0639730000000043
21
-105.8218749999999915
0
LINE
8
BLACK
6
CONTINUOUS
10
134.0639730000000043
20
-105.8218749999999915
11
134.0639730000000043
21
-91.8218749999999915
0
LINE
8
BLACK
6
CONTINUOUS
10
134.0639730000000043
20
-91.8218749999999915
11
134.0658760000000029
21
-91.8123080000000016
0
LINE
8
BLACK
6
CONTINUOUS
10
134.0658760000000029
20
-91.8123080000000016
11
134.0794060000000059
21
-91.7987779999999987
0
LINE
8
BLACK
6
CONTINUOUS
10
134.0794060000000059
20
-91.7987779999999987
11
134.0889729999999815
21
-91.796875
0
LINE
8
BLACK
6
CONTINUOUS
10
134.0889729999999815
20
-91.796875
11
148.0889729999999815
21
-91.796875
0
LINE
8
BLACK
6
CONTINUOUS
10
148.0889729999999815
20
-91.796875
11
148.0985399999999856
21
-91.7987779999999987
0
LINE
8
BLACK
6
CONTINUOUS
10
134.1139729999999872
20
-91.8468749999999972
11
134.1139729999999872
21
-105.796875
0
LINE
8
BLACK
6
CONTINUOUS
10
134.1139729999999872
20
-105.796875
11
148.0639730000000043
21
-105.796875
0
LINE
8
BLACK
6
CONTINUOUS
10
148.0639730000000043
20
-105.796875
11
148.0639730000000043
21
-91.8468749999999972
0
LINE
8
BLACK
6
CONTINUOUS
10
148.0639730000000043
20
-91.8468749999999972
11
134.1139729999999872
21
-91.8468749999999972
0
LINE
8
BLACK
6
CONTINUOUS
10
71.898539999999997
20
-90.6081530000000015
11
71.9120699999999999
21
-90.6216829999999902
0
LINE
8
BLACK
6
CONTINUOUS
10
71.9120699999999999
20
-90.6216829999999902
11
71.9139729999999986
21
-90.6312499999999943
0
LINE
8
BLACK
6
CONTINUOUS
10
71.9139729999999986
20
-90.6312499999999943
11
71.9139729999999986
21
-104.6312499999999943
0
LINE
8
BLACK
6
CONTINUOUS
10
71.9139729999999986
20
-104.6312499999999943
11
71.9120699999999999
21
-104.6408169999999984
0
LINE
8
BLACK
6
CONTINUOUS
10
71.9120699999999999
20
-104.6408169999999984
11
71.898539999999997
21
-104.6543470000000013
0
LINE
8
BLACK
6
CONTINUOUS
10
71.898539999999997
20
-104.6543470000000013
11
71.8889729999999929
21
-104.65625
0
LINE
8
BLACK
6
CONTINUOUS
10
71.8889729999999929
20
-104.65625
11
57.888973
21
-104.65625
0
LINE
8
BLACK
6
CONTINUOUS
10
57.888973
20
-104.65625
11
57.8794059999999959
21
-104.6543470000000013
0
LINE
8
BLACK
6
CONTINUOUS
10
57.8794059999999959
20
-104.6543470000000013
11
57.8658760000000001
21
-104.6408169999999984
0
LINE
8
BLACK
6
CONTINUOUS
10
57.8658760000000001
20
-104.6408169999999984
11
57.8639729999999943
21
-104.6312499999999943
0
LINE
8
BLACK
6
CONTINUOUS
10
57.8639729999999943
20
-104.6312499999999943
11
57.8639729999999943
21
-90.6312499999999943
0
LINE
8
BLACK
6
CONTINUOUS
10
57.8639729999999943
20
-90.6312499999999943
11
57.8658760000000001
21
-90.6216829999999902
0
LINE
8
BLACK
6
CONTINUOUS
10
57.8658760000000001
20
-90.6216829999999902
11
57.8794059999999959
21
-90.6081530000000015
0
LINE
8
BLACK
6
CONTINUOUS
10
57.8794059999999959
20
-90.6081530000000015
11
57.888973
21
-90.6062500000000028
0
LINE
8
BLACK
6
CONTINUOUS
10
57.888973
20
-90.6062500000000028
11
71.8889729999999929
21
-90.6062500000000028
0
LINE
8
BLACK
6
CONTINUOUS
10
71.8889729999999929
20
-90.6062500000000028
11
71.898539999999997
21
-90.6081530000000015
0
LINE
8
BLACK
6
CONTINUOUS
10
57.9139729999999986
20
-90.65625
11
57.9139729999999986
21
-104.6062499999999886
0
LINE
8
BLACK
6
CONTINUOUS
10
57.9139729999999986
20
-104.6062499999999886
11
71.8639730000000014
21
-104.6062499999999886
0
LINE
8
BLACK
6
CONTINUOUS
10
71.8639730000000014
20
-104.6062499999999886
11
71.8639730000000014
21
-90.65625
0
LINE
8
BLACK
6
CONTINUOUS
10
71.8639730000000014
20
-90.65625
11
57.9139729999999986
21
-90.65625
0
LINE
8
BLACK
6
CONTINUOUS
10
129.0485400000000027
20
-87.0362779999999958
11
129.0620700000000056
21
-87.0498079999999987
0
LINE
8
BLACK
6
CONTINUOUS
10
129.0620700000000056
20
-87.0498079999999987
11
129.0639730000000043
21
-87.0593750000000028
0
LINE
8
BLACK
6
CONTINUOUS
10
129.0639730000000043
20
-87.0593750000000028
11
129.0639730000000043
21
-101.0593749999999886
0
LINE
8
BLACK
6
CONTINUOUS
10
129.0639730000000043
20
-101.0593749999999886
11
129.0620700000000056
21
-101.0689419999999927
0
LINE
8
BLACK
6
CONTINUOUS
10
129.0620700000000056
20
-101.0689419999999927
11
129.0485400000000027
21
-101.0824719999999957
0
LINE
8
BLACK
6
CONTINUOUS
10
129.0485400000000027
20
-101.0824719999999957
11
129.0389729999999986
21
-101.0843749999999943
0
LINE
8
BLACK
6
CONTINUOUS
10
129.0389729999999986
20
-101.0843749999999943
11
115.0389729999999986
21
-101.0843749999999943
0
LINE
8
BLACK
6
CONTINUOUS
10
115.0389729999999986
20
-101.0843749999999943
11
115.0294059999999945
21
-101.0824719999999957
0
LINE
8
BLACK
6
CONTINUOUS
10
115.0294059999999945
20
-101.0824719999999957
11
115.0158759999999916
21
-101.0689419999999927
0
LINE
8
BLACK
6
CONTINUOUS
10
115.0158759999999916
20
-101.0689419999999927
11
115.0139729999999929
21
-101.0593749999999886
0
LINE
8
BLACK
6
CONTINUOUS
10
115.0139729999999929
20
-101.0593749999999886
11
115.0139729999999929
21
-87.0593750000000028
0
LINE
8
BLACK
6
CONTINUOUS
10
115.0139729999999929
20
-87.0593750000000028
11
115.0158759999999916
21
-87.0498079999999987
0
LINE
8
BLACK
6
CONTINUOUS
10
115.0158759999999916
20
-87.0498079999999987
11
115.0294059999999945
21
-87.0362779999999958
0
LINE
8
BLACK
6
CONTINUOUS
10
115.0294059999999945
20
-87.0362779999999958
11
115.0389729999999986
21
-87.0343749999999972
0
LINE
8
BLACK
6
CONTINUOUS
10
115.0389729999999986
20
-87.0343749999999972
11
129.0389729999999986
21
-87.0343749999999972
0
LINE
8
BLACK
6
CONTINUOUS
10
129.0389729999999986
20
-87.0343749999999972
11
129.0485400000000027
21
-87.0362779999999958
0
LINE
8
BLACK
6
CONTINUOUS
10
115.0639729999999901
20
-87.0843749999999943
11
115.0639729999999901
21
-101.0343749999999972
0
LINE
8
BLACK
6
CONTINUOUS
10
115.0639729999999901
20
-101.0343749999999972
11
129.0139729999999929
21
-101.0343749999999972
0
LINE
8
BLACK
6
CONTINUOUS
10
129.0139729999999929
20
-101.0343749999999972
11
129.0139729999999929
21
-87.0843749999999943
0
LINE
8
BLACK
6
CONTINUOUS
10
129.0139729999999929
20
-87.0843749999999943
11
115.0639729999999901
21
-87.0843749999999943
0
LINE
8
BLACK
6
CONTINUOUS
10
186.19853999999998
20
-87.0362779999999958
11
186.2120699999999829
21
-87.0498079999999987
0
LINE
8
BLACK
6
CONTINUOUS
10
186.2120699999999829
20
-87.0498079999999987
11
186.2139729999999815
21
-87.0593750000000028
0
LINE
8
BLACK
6
CONTINUOUS
10
186.2139729999999815
20
-87.0593750000000028
11
186.2139729999999815
21
-101.0593749999999886
0
LINE
8
BLACK
6
CONTINUOUS
10
186.2139729999999815
20
-101.0593749999999886
11
186.2120699999999829
21
-101.0689419999999927
0
LINE
8
BLACK
6
CONTINUOUS
10
186.2120699999999829
20
-101.0689419999999927
11
186.19853999999998
21
-101.0824719999999957
0
LINE
8
BLACK
6
CONTINUOUS
10
186.19853999999998
20
-101.0824719999999957
11
186.1889730000000043
21
-101.0843749999999943
0
LINE
8
BLACK
6
CONTINUOUS
10
186.1889730000000043
20
-101.0843749999999943
11
172.1889730000000043
21
-101.0843749999999943
0
LINE
8
BLACK
6
CONTINUOUS
10
172.1889730000000043
20
-101.0843749999999943
11
172.1794060000000002
21
-101.0824719999999957
0
LINE
8
BLACK
6
CONTINUOUS
10
172.1794060000000002
20
-101.0824719999999957
11
172.1658759999999972
21
-101.0689419999999927
0
LINE
8
BLACK
6
CONTINUOUS
10
172.1658759999999972
20
-101.0689419999999927
11
172.1639729999999986
21
-101.0593749999999886
0
LINE
8
BLACK
6
CONTINUOUS
10
172.1639729999999986
20
-101.0593749999999886
11
172.1639729999999986
21
-87.0593750000000028
0
LINE
8
BLACK
6
CONTINUOUS
10
172.1639729999999986
20
-87.0593750000000028
11
172.1658759999999972
21
-87.0498079999999987
0
LINE
8
BLACK
6
CONTINUOUS
10
172.1658759999999972
20
-87.0498079999999987
11
172.1794060000000002
21
-87.0362779999999958
0
LINE
8
BLACK
6
CONTINUOUS
10
172.1794060000000002
20
-87.0362779999999958
11
172.1889730000000043
21
-87.0343749999999972
0
LINE
8
BLACK
6
CONTINUOUS
10
172.1889730000000043
20
-87.0343749999999972
11
186.1889730000000043
21
-87.0343749999999972
0
LINE
8
BLACK
6
CONTINUOUS
10
186.1889730000000043
20
-87.0343749999999972
11
186.19853999999998
21
-87.0362779999999958
0
LINE
8
BLACK
6
CONTINUOUS
10
172.2139729999999815
20
-87.0843749999999943
11
172.2139729999999815
21
-101.0343749999999972
0
LINE
8
BLACK
6
CONTINUOUS
10
172.2139729999999815
20
-101.0343749999999972
11
186.1639729999999986
21
-101.0343749999999972
0
LINE
8
BLACK
6
CONTINUOUS
10
186.1639729999999986
20
-101.0343749999999972
11
186.1639729999999986
21
-87.0843749999999943
0
LINE
8
BLACK
6
CONTINUOUS
10
186.1639729999999986
20
-87.0843749999999943
11
172.2139729999999815
21
-87.0843749999999943
0
LINE
8
BLACK
6
CONTINUOUS
10
90.9485399999999942
20
-81.0831529999999958
11
90.9620699999999971
21
-81.0966829999999987
0
LINE
8
BLACK
6
CONTINUOUS
10
90.9620699999999971
20
-81.0966829999999987
11
90.9639729999999957
21
-81.1062500000000028
0
LINE
8
BLACK
6
CONTINUOUS
10
90.9639729999999957
20
-81.1062500000000028
11
90.9639729999999957
21
-95.1062499999999886
0
LINE
8
BLACK
6
CONTINUOUS
10
90.9639729999999957
20
-95.1062499999999886
11
90.9620699999999971
21
-95.1158169999999927
0
LINE
8
BLACK
6
CONTINUOUS
10
90.9620699999999971
20
-95.1158169999999927
11
90.9485399999999942
21
-95.1293469999999957
0
LINE
8
BLACK
6
CONTINUOUS
10
90.9485399999999942
20
-95.1293469999999957
11
90.9389729999999901
21
-95.1312499999999943
0
LINE
8
BLACK
6
CONTINUOUS
10
90.9389729999999901
20
-95.1312499999999943
11
76.9389729999999901
21
-95.1312499999999943
0
LINE
8
BLACK
6
CONTINUOUS
10
76.9389729999999901
20
-95.1312499999999943
11
76.9294060000000002
21
-95.1293469999999957
0
LINE
8
BLACK
6
CONTINUOUS
10
76.9294060000000002
20
-95.1293469999999957
11
76.9158759999999972
21
-95.1158169999999927
0
LINE
8
BLACK
6
CONTINUOUS
10
76.9158759999999972
20
-95.1158169999999927
11
76.9139729999999986
21
-95.1062499999999886
0
LINE
8
BLACK
6
CONTINUOUS
10
76.9139729999999986
20
-95.1062499999999886
11
76.9139729999999986
21
-81.1062500000000028
0
LINE
8
BLACK
6
CONTINUOUS
10
76.9139729999999986
20
-81.1062500000000028
11
76.9158759999999972
21
-81.0966829999999987
0
LINE
8
BLACK
6
CONTINUOUS
10
76.9158759999999972
20
-81.0966829999999987
11
76.9294060000000002
21
-81.0831529999999958
0
LINE
8
BLACK
6
CONTINUOUS
10
76.9294060000000002
20
-81.0831529999999958
11
76.9389729999999901
21
-81.0812499999999972
0
LINE
8
BLACK
6
CONTINUOUS
10
76.9389729999999901
20
-81.0812499999999972
11
90.9389729999999901
21
-81.0812499999999972
0
LINE
8
BLACK
6
CONTINUOUS
10
90.9389729999999901
20
-81.0812499999999972
11
90.9485399999999942
21
-81.0831529999999958
0
LINE
8
BLACK
6
CONTINUOUS
10
76.9639729999999957
20
-81.1312499999999943
11
76.9639729999999957
21
-95.0812499999999972
0
LINE
8
BLACK
6
CONTINUOUS
10
76.9639729999999957
20
-95.0812499999999972
11
90.9139729999999986
21
-95.0812499999999972
0
LINE
8
BLACK
6
CONTINUOUS
10
90.9139729999999986
20
-95.0812499999999972
11
90.9139729999999986
21
-81.1312499999999943
0
LINE
8
BLACK
6
CONTINUOUS
10
90.9139729999999986
20
-81.1312499999999943
11
76.9639729999999957
21
-81.1312499999999943
0
LINE
8
BLACK
6
CONTINUOUS
10
167.148539999999997
20
-77.5112779999999901
11
167.1620699999999999
21
-77.5248079999999931
0
LINE
8
BLACK
6
CONTINUOUS
10
167.1620699999999999
20
-77.5248079999999931
11
167.1639729999999986
21
-77.5343749999999972
0
LINE
8
BLACK
6
CONTINUOUS
10
167.1639729999999986
20
-77.5343749999999972
11
167.1639729999999986
21
-91.5343749999999972
0
LINE
8
BLACK
6
CONTINUOUS
10
167.1639729999999986
20
-91.5343749999999972
11
167.1620699999999999
21
-91.5439420000000013
0
LINE
8
BLACK
6
CONTINUOUS
10
167.1620699999999999
20
-91.5439420000000013
11
167.148539999999997
21
-91.55747199999999
0
LINE
8
BLACK
6
CONTINUOUS
10
167.148539999999997
20
-91.55747199999999
11
167.1389729999999929
21
-91.5593750000000028
0
LINE
8
BLACK
6
CONTINUOUS
10
167.1389729999999929
20
-91.5593750000000028
11
153.1389729999999929
21
-91.5593750000000028
0
LINE
8
BLACK
6
CONTINUOUS
10
153.1389729999999929
20
-91.5593750000000028
11
153.1294059999999888
21
-91.55747199999999
0
LINE
8
BLACK
6
CONTINUOUS
10
153.1294059999999888
20
-91.55747199999999
11
153.1158759999999859
21
-91.5439420000000013
0
LINE
8
BLACK
6
CONTINUOUS
10
153.1158759999999859
20
-91.5439420000000013
11
153.1139729999999872
21
-91.5343749999999972
0
LINE
8
BLACK
6
CONTINUOUS
10
153.1139729999999872
20
-91.5343749999999972
11
153.1139729999999872
21
-77.5343749999999972
0
LINE
8
BLACK
6
CONTINUOUS
10
153.1139729999999872
20
-77.5343749999999972
11
153.1158759999999859
21
-77.5248079999999931
0
LINE
8
BLACK
6
CONTINUOUS
10
153.1158759999999859
20
-77.5248079999999931
11
153.1294059999999888
21
-77.5112779999999901
0
LINE
8
BLACK
6
CONTINUOUS
10
153.1294059999999888
20
-77.5112779999999901
11
153.1389729999999929
21
-77.5093749999999915
0
LINE
8
BLACK
6
CONTINUOUS
10
153.1389729999999929
20
-77.5093749999999915
11
167.1389729999999929
21
-77.5093749999999915
0
LINE
8
BLACK
6
CONTINUOUS
10
167.1389729999999929
20
-77.5093749999999915
11
167.148539999999997
21
-77.5112779999999901
0
LINE
8
BLACK
6
CONTINUOUS
10
153.1639729999999986
20
-77.5593750000000028
11
153.1639729999999986
21
-91.5093749999999915
0
LINE
8
BLACK
6
CONTINUOUS
10
153.1639729999999986
20
-91.5093749999999915
11
167.1139729999999872
21
-91.5093749999999915
0
LINE
8
BLACK
6
CONTINUOUS
10
167.1139729999999872
20
-91.5093749999999915
11
167.1139729999999872
21
-77.5593750000000028
0
LINE
8
BLACK
6
CONTINUOUS
10
167.1139729999999872
20
-77.5593750000000028
11
153.1639729999999986
21
-77.5593750000000028
0
LINE
8
BLACK
6
CONTINUOUS
10
109.9985399999999913
20
-72.7487780000000015
11
110.0120699999999943
21
-72.7623079999999902
0
LINE
8
BLACK
6
CONTINUOUS
10
110.0120699999999943
20
-72.7623079999999902
11
110.0139729999999929
21
-72.7718749999999943
0
LINE
8
BLACK
6
CONTINUOUS
10
110.0139729999999929
20
-72.7718749999999943
11
110.0139729999999929
21
-86.7718749999999943
0
LINE
8
BLACK
6
CONTINUOUS
10
110.0139729999999929
20
-86.7718749999999943
11
110.0120699999999943
21
-86.7814419999999984
0
LINE
8
BLACK
6
CONTINUOUS
10
110.0120699999999943
20
-86.7814419999999984
11
109.9985399999999913
21
-86.7949720000000013
0
LINE
8
BLACK
6
CONTINUOUS
10
109.9985399999999913
20
-86.7949720000000013
11
109.9889730000000014
21
-86.796875
0
LINE
8
BLACK
6
CONTINUOUS
10
109.9889730000000014
20
-86.796875
11
95.9889730000000014
21
-86.796875
0
LINE
8
BLACK
6
CONTINUOUS
10
95.9889730000000014
20
-86.796875
11
95.9794059999999973
21
-86.7949720000000013
0
LINE
8
BLACK
6
CONTINUOUS
10
95.9794059999999973
20
-86.7949720000000013
11
95.9658759999999944
21
-86.7814419999999984
0
LINE
8
BLACK
6
CONTINUOUS
10
95.9658759999999944
20
-86.7814419999999984
11
95.9639729999999957
21
-86.7718749999999943
0
LINE
8
BLACK
6
CONTINUOUS
10
95.9639729999999957
20
-86.7718749999999943
11
95.9639729999999957
21
-72.7718749999999943
0
LINE
8
BLACK
6
CONTINUOUS
10
95.9639729999999957
20
-72.7718749999999943
11
95.9658759999999944
21
-72.7623079999999902
0
LINE
8
BLACK
6
CONTINUOUS
10
95.9658759999999944
20
-72.7623079999999902
11
95.9794059999999973
21
-72.7487780000000015
0
LINE
8
BLACK
6
CONTINUOUS
10
95.9794059999999973
20
-72.7487780000000015
11
95.9889730000000014
21
-72.7468750000000028
0
LINE
8
BLACK
6
CONTINUOUS
10
95.9889730000000014
20
-72.7468750000000028
11
109.9889730000000014
21
-72.7468750000000028
0
LINE
8
BLACK
6
CONTINUOUS
10
109.9889730000000014
20
-72.7468750000000028
11
109.9985399999999913
21
-72.7487780000000015
0
LINE
8
BLACK
6
CONTINUOUS
10
96.0139729999999929
20
-72.796875
11
96.0139729999999929
21
-86.7468750000000028
0
LINE
8
BLACK
6
CONTINUOUS
10
96.0139729999999929
20
-86.7468750000000028
11
109.9639729999999957
21
-86.7468750000000028
0
LINE
8
BLACK
6
CONTINUOUS
10
109.9639729999999957
20
-86.7468750000000028
11
109.9639729999999957
21
-72.796875
0
LINE
8
BLACK
6
CONTINUOUS
10
109.9639729999999957
20
-72.796875
11
96.0139729999999929
21
-72.796875
0
LINE
8
BLACK
6
CONTINUOUS
10
148.0985399999999856
20
-72.7487780000000015
11
148.1120699999999886
21
-72.7623079999999902
0
LINE
8
BLACK
6
CONTINUOUS
10
148.1120699999999886
20
-72.7623079999999902
11
148.1139729999999872
21
-72.7718749999999943
0
LINE
8
BLACK
6
CONTINUOUS
10
148.1139729999999872
20
-72.7718749999999943
11
148.1139729999999872
21
-86.7718749999999943
0
LINE
8
BLACK
6
CONTINUOUS
10
148.1139729999999872
20
-86.7718749999999943
11
148.1120699999999886
21
-86.7814419999999984
0
LINE
8
BLACK
6
CONTINUOUS
10
148.1120699999999886
20
-86.7814419999999984
11
148.0985399999999856
21
-86.7949720000000013
0
LINE
8
BLACK
6
CONTINUOUS
10
148.0985399999999856
20
-86.7949720000000013
11
148.0889729999999815
21
-86.796875
0
LINE
8
BLACK
6
CONTINUOUS
10
148.0889729999999815
20
-86.796875
11
134.0889729999999815
21
-86.796875
0
LINE
8
BLACK
6
CONTINUOUS
10
134.0889729999999815
20
-86.796875
11
134.0794060000000059
21
-86.7949720000000013
0
LINE
8
BLACK
6
CONTINUOUS
10
134.0794060000000059
20
-86.7949720000000013
11
134.0658760000000029
21
-86.7814419999999984
0
LINE
8
BLACK
6
CONTINUOUS
10
134.0658760000000029
20
-86.7814419999999984
11
134.0639730000000043
21
-86.7718749999999943
0
LINE
8
BLACK
6
CONTINUOUS
10
134.0639730000000043
20
-86.7718749999999943
11
134.0639730000000043
21
-72.7718749999999943
0
LINE
8
BLACK
6
CONTINUOUS
10
134.0639730000000043
20
-72.7718749999999943
11
134.0658760000000029
21
-72.7623079999999902
0
LINE
8
BLACK
6
CONTINUOUS
10
134.0658760000000029
20
-72.7623079999999902
11
134.0794060000000059
21
-72.7487780000000015
0
LINE
8
BLACK
6
CONTINUOUS
10
134.0794060000000059
20
-72.7487780000000015
11
134.0889729999999815
21
-72.7468750000000028
0
LINE
8
BLACK
6
CONTINUOUS
10
134.0889729999999815
20
-72.7468750000000028
11
148.0889729999999815
21
-72.7468750000000028
0
LINE
8
BLACK
6
CONTINUOUS
10
148.0889729999999815
20
-72.7468750000000028
11
148.0985399999999856
21
-72.7487780000000015
0
LINE
8
BLACK
6
CONTINUOUS
10
134.1139729999999872
20
-72.796875
11
134.1139729999999872
21
-86.7468750000000028
0
LINE
8
BLACK
6
CONTINUOUS
10
134.1139729999999872
20
-86.7468750000000028
11
148.0639730000000043
21
-86.7468750000000028
0
LINE
8
BLACK
6
CONTINUOUS
10
148.0639730000000043
20
-86.7468750000000028
11
148.0639730000000043
21
-72.796875
0
LINE
8
BLACK
6
CONTINUOUS
10
148.0639730000000043
20
-72.796875
11
134.1139729999999872
21
-72.796875
0
LINE
8
BLACK
6
CONTINUOUS
10
71.898539999999997
20
-71.5581529999999901
11
71.9120699999999999
21
-71.5716829999999931
0
LINE
8
BLACK
6
CONTINUOUS
10
71.9120699999999999
20
-71.5716829999999931
11
71.9139729999999986
21
-71.5812499999999972
0
LINE
8
BLACK
6
CONTINUOUS
10
71.9139729999999986
20
-71.5812499999999972
11
71.9139729999999986
21
-85.5812499999999972
0
LINE
8
BLACK
6
CONTINUOUS
10
71.9139729999999986
20
-85.5812499999999972
11
71.9120699999999999
21
-85.5908170000000013
0
LINE
8
BLACK
6
CONTINUOUS
10
71.9120699999999999
20
-85.5908170000000013
11
71.898539999999997
21
-85.60434699999999
0
LINE
8
BLACK
6
CONTINUOUS
10
71.898539999999997
20
-85.60434699999999
11
71.8889729999999929
21
-85.6062500000000028
0
LINE
8
BLACK
6
CONTINUOUS
10
71.8889729999999929
20
-85.6062500000000028
11
57.888973
21
-85.6062500000000028
0
LINE
8
BLACK
6
CONTINUOUS
10
57.888973
20
-85.6062500000000028
11
57.8794059999999959
21
-85.60434699999999
0
LINE
8
BLACK
6
CONTINUOUS
10
57.8794059999999959
20
-85.60434699999999
11
57.8658760000000001
21
-85.5908170000000013
0
LINE
8
BLACK
6
CONTINUOUS
10
57.8658760000000001
20
-85.5908170000000013
11
57.8639729999999943
21
-85.5812499999999972
0
LINE
8
BLACK
6
CONTINUOUS
10
57.8639729999999943
20
-85.5812499999999972
11
57.8639729999999943
21
-71.5812499999999972
0
LINE
8
BLACK
6
CONTINUOUS
10
57.8639729999999943
20
-71.5812499999999972
11
57.8658760000000001
21
-71.5716829999999931
0
LINE
8
BLACK
6
CONTINUOUS
10
57.8658760000000001
20
-71.5716829999999931
11
57.8794059999999959
21
-71.5581529999999901
0
LINE
8
BLACK
6
CONTINUOUS
10
57.8794059999999959
20
-71.5581529999999901
11
57.888973
21
-71.5562499999999915
0
LINE
8
BLACK
6
CONTINUOUS
10
57.888973
20
-71.5562499999999915
11
71.8889729999999929
21
-71.5562499999999915
0
LINE
8
BLACK
6
CONTINUOUS
10
71.8889729999999929
20
-71.5562499999999915
11
71.898539999999997
21
-71.5581529999999901
0
LINE
8
BLACK
6
CONTINUOUS
10
57.9139729999999986
20
-71.6062500000000028
11
57.9139729999999986
21
-85.5562499999999915
0
LINE
8
BLACK
6
CONTINUOUS
10
57.9139729999999986
20
-85.5562499999999915
11
71.8639730000000014
21
-85.5562499999999915
0
LINE
8
BLACK
6
CONTINUOUS
10
71.8639730000000014
20
-85.5562499999999915
11
71.8639730000000014
21
-71.6062500000000028
0
LINE
8
BLACK
6
CONTINUOUS
10
71.8639730000000014
20
-71.6062500000000028
11
57.9139729999999986
21
-71.6062500000000028
0
LINE
8
BLACK
6
CONTINUOUS
10
129.0485400000000027
20
-67.9862779999999987
11
129.0620700000000056
21
-67.9998080000000016
0
LINE
8
BLACK
6
CONTINUOUS
10
129.0620700000000056
20
-67.9998080000000016
11
129.0639730000000043
21
-68.0093749999999915
0
LINE
8
BLACK
6
CONTINUOUS
10
129.0639730000000043
20
-68.0093749999999915
11
129.0639730000000043
21
-82.0093749999999915
0
LINE
8
BLACK
6
CONTINUOUS
10
129.0639730000000043
20
-82.0093749999999915
11
129.0620700000000056
21
-82.0189419999999956
0
LINE
8
BLACK
6
CONTINUOUS
10
129.0620700000000056
20
-82.0189419999999956
11
129.0485400000000027
21
-82.0324719999999985
0
LINE
8
BLACK
6
CONTINUOUS
10
129.0485400000000027
20
-82.0324719999999985
11
129.0389729999999986
21
-82.0343749999999972
0
LINE
8
BLACK
6
CONTINUOUS
10
129.0389729999999986
20
-82.0343749999999972
11
115.0389729999999986
21
-82.0343749999999972
0
LINE
8
BLACK
6
CONTINUOUS
10
115.0389729999999986
20
-82.0343749999999972
11
115.0294059999999945
21
-82.0324719999999985
0
LINE
8
BLACK
6
CONTINUOUS
10
115.0294059999999945
20
-82.0324719999999985
11
115.0158759999999916
21
-82.0189419999999956
0
LINE
8
BLACK
6
CONTINUOUS
10
115.0158759999999916
20
-82.0189419999999956
11
115.0139729999999929
21
-82.0093749999999915
0
LINE
8
BLACK
6
CONTINUOUS
10
115.0139729999999929
20
-82.0093749999999915
11
115.0139729999999929
21
-68.0093749999999915
0
LINE
8
BLACK
6
CONTINUOUS
10
115.0139729999999929
20
-68.0093749999999915
11
115.0158759999999916
21
-67.9998080000000016
0
LINE
8
BLACK
6
CONTINUOUS
10
115.0158759999999916
20
-67.9998080000000016
11
115.0294059999999945
21
-67.9862779999999987
0
LINE
8
BLACK
6
CONTINUOUS
10
115.0294059999999945
20
-67.9862779999999987
11
115.0389729999999986
21
-67.984375
0
LINE
8
BLACK
6
CONTINUOUS
10
115.0389729999999986
20
-67.984375
11
129.0389729999999986
21
-67.984375
0
LINE
8
BLACK
6
CONTINUOUS
10
129.0389729999999986
20
-67.984375
11
129.0485400000000027
21
-67.9862779999999987
0
LINE
8
BLACK
6
CONTINUOUS
10
115.0639729999999901
20
-68.0343749999999972
11
115.0639729999999901
21
-81.984375
0
LINE
8
BLACK
6
CONTINUOUS
10
115.0639729999999901
20
-81.984375
11
129.0139729999999929
21
-81.984375
0
LINE
8
BLACK
6
CONTINUOUS
10
129.0139729999999929
20
-81.984375
11
129.0139729999999929
21
-68.0343749999999972
0
LINE
8
BLACK
6
CONTINUOUS
10
129.0139729999999929
20
-68.0343749999999972
11
115.0639729999999901
21
-68.0343749999999972
0
LINE
8
BLACK
6
CONTINUOUS
10
186.19853999999998
20
-67.9862779999999987
11
186.2120699999999829
21
-67.9998080000000016
0
LINE
8
BLACK
6
CONTINUOUS
10
186.2120699999999829
20
-67.9998080000000016
11
186.2139729999999815
21
-68.0093749999999915
0
LINE
8
BLACK
6
CONTINUOUS
10
186.2139729999999815
20
-68.0093749999999915
11
186.2139729999999815
21
-82.0093749999999915
0
LINE
8
BLACK
6
CONTINUOUS
10
186.2139729999999815
20
-82.0093749999999915
11
186.2120699999999829
21
-82.0189419999999956
0
LINE
8
BLACK
6
CONTINUOUS
10
186.2120699999999829
20
-82.0189419999999956
11
186.19853999999998
21
-82.0324719999999985
0
LINE
8
BLACK
6
CONTINUOUS
10
186.19853999999998
20
-82.0324719999999985
11
186.1889730000000043
21
-82.0343749999999972
0
LINE
8
BLACK
6
CONTINUOUS
10
186.1889730000000043
20
-82.0343749999999972
11
172.1889730000000043
21
-82.0343749999999972
0
LINE
8
BLACK
6
CONTINUOUS
10
172.1889730000000043
20
-82.0343749999999972
11
172.1794060000000002
21
-82.0324719999999985
0
LINE
8
BLACK
6
CONTINUOUS
10
172.1794060000000002
20
-82.0324719999999985
11
172.1658759999999972
21
-82.0189419999999956
0
LINE
8
BLACK
6
CONTINUOUS
10
172.1658759999999972
20
-82.0189419999999956
11
172.1639729999999986
21
-82.0093749999999915
0
LINE
8
BLACK
6
CONTINUOUS
10
172.1639729999999986
20
-82.0093749999999915
11
172.1639729999999986
21
-68.0093749999999915
0
LINE
8
BLACK
6
CONTINUOUS
10
172.1639729999999986
20
-68.0093749999999915
11
172.1658759999999972
21
-67.9998080000000016
0
LINE
8
BLACK
6
CONTINUOUS
10
172.1658759999999972
20
-67.9998080000000016
11
172.1794060000000002
21
-67.9862779999999987
0
LINE
8
BLACK
6
CONTINUOUS
10
172.1794060000000002
20
-67.9862779999999987
11
172.1889730000000043
21
-67.984375
0
LINE
8
BLACK
6
CONTINUOUS
10
172.1889730000000043
20
-67.984375
11
186.1889730000000043
21
-67.984375
0
LINE
8
BLACK
6
CONTINUOUS
10
186.1889730000000043
20
-67.984375
11
186.19853999999998
21
-67.9862779999999987
0
LINE
8
BLACK
6
CONTINUOUS
10
172.2139729999999815
20
-68.0343749999999972
11
172.2139729999999815
21
-81.984375
0
LINE
8
BLACK
6
CONTINUOUS
10
172.2139729999999815
20
-81.984375
11
186.1639729999999986
21
-81.984375
0
LINE
8
BLACK
6
CONTINUOUS
10
186.1639729999999986
20
-81.984375
11
186.1639729999999986
21
-68.0343749999999972
0
LINE
8
BLACK
6
CONTINUOUS
10
186.1639729999999986
20
-68.0343749999999972
11
172.2139729999999815
21
-68.0343749999999972
0
LINE
8
BLACK
6
CONTINUOUS
10
90.9485399999999942
20
-62.0331529999999987
11
90.9620699999999971
21
-62.0466829999999945
0
LINE
8
BLACK
6
CONTINUOUS
10
90.9620699999999971
20
-62.0466829999999945
11
90.9639729999999957
21
-62.0562499999999986
0
LINE
8
BLACK
6
CONTINUOUS
10
90.9639729999999957
20
-62.0562499999999986
11
90.9639729999999957
21
-76.0562499999999915
0
LINE
8
BLACK
6
CONTINUOUS
10
90.9639729999999957
20
-76.0562499999999915
11
90.9620699999999971
21
-76.0658169999999956
0
LINE
8
BLACK
6
CONTINUOUS
10
90.9620699999999971
20
-76.0658169999999956
11
90.9485399999999942
21
-76.0793469999999985
0
LINE
8
BLACK
6
CONTINUOUS
10
90.9485399999999942
20
-76.0793469999999985
11
90.9389729999999901
21
-76.0812499999999972
0
LINE
8
BLACK
6
CONTINUOUS
10
90.9389729999999901
20
-76.0812499999999972
11
76.9389729999999901
21
-76.0812499999999972
0
LINE
8
BLACK
6
CONTINUOUS
10
76.9389729999999901
20
-76.0812499999999972
11
76.9294060000000002
21
-76.0793469999999985
0
LINE
8
BLACK
6
CONTINUOUS
10
76.9294060000000002
20
-76.0793469999999985
11
76.9158759999999972
21
-76.0658169999999956
0
LINE
8
BLACK
6
CONTINUOUS
10
76.9158759999999972
20
-76.0658169999999956
11
76.9139729999999986
21
-76.0562499999999915
0
LINE
8
BLACK
6
CONTINUOUS
10
76.9139729999999986
20
-76.0562499999999915
11
76.9139729999999986
21
-62.0562499999999986
0
LINE
8
BLACK
6
CONTINUOUS
10
76.9139729999999986
20
-62.0562499999999986
11
76.9158759999999972
21
-62.0466829999999945
0
LINE
8
BLACK
6
CONTINUOUS
10
76.9158759999999972
20
-62.0466829999999945
11
76.9294060000000002
21
-62.0331529999999987
0
LINE
8
BLACK
6
CONTINUOUS
10
76.9294060000000002
20
-62.0331529999999987
11
76.9389729999999901
21
-62.03125
0
LINE
8
BLACK
6
CONTINUOUS
10
76.9389729999999901
20
-62.03125
11
90.9389729999999901
21
-62.03125
0
LINE
8
BLACK
6
CONTINUOUS
10
90.9389729999999901
20
-62.03125
11
90.9485399999999942
21
-62.0331529999999987
0
LINE
8
BLACK
6
CONTINUOUS
10
76.9639729999999957
20
-62.0812499999999972
11
76.9639729999999957
21
-76.03125
0
LINE
8
BLACK
6
CONTINUOUS
10
76.9639729999999957
20
-76.03125
11
90.9139729999999986
21
-76.03125
0
LINE
8
BLACK
6
CONTINUOUS
10
90.9139729999999986
20
-76.03125
11
90.9139729999999986
21
-62.0812499999999972
0
LINE
8
BLACK
6
CONTINUOUS
10
90.9139729999999986
20
-62.0812499999999972
11
76.9639729999999957
21
-62.0812499999999972
0
LINE
8
BLACK
6
CONTINUOUS
10
167.148539999999997
20
-58.4612780000000001
11
167.1620699999999999
21
-58.4748079999999959
0
LINE
8
BLACK
6
CONTINUOUS
10
167.1620699999999999
20
-58.4748079999999959
11
167.1639729999999986
21
-58.484375
0
LINE
8
BLACK
6
CONTINUOUS
10
167.1639729999999986
20
-58.484375
11
167.1639729999999986
21
-72.484375
0
LINE
8
BLACK
6
CONTINUOUS
10
167.1639729999999986
20
-72.484375
11
167.1620699999999999
21
-72.4939419999999899
0
LINE
8
BLACK
6
CONTINUOUS
10
167.1620699999999999
20
-72.4939419999999899
11
167.148539999999997
21
-72.5074719999999928
0
LINE
8
BLACK
6
CONTINUOUS
10
167.148539999999997
20
-72.5074719999999928
11
167.1389729999999929
21
-72.5093749999999915
0
LINE
8
BLACK
6
CONTINUOUS
10
167.1389729999999929
20
-72.5093749999999915
11
153.1389729999999929
21
-72.5093749999999915
0
LINE
8
BLACK
6
CONTINUOUS
10
153.1389729999999929
20
-72.5093749999999915
11
153.1294059999999888
21
-72.5074719999999928
0
LINE
8
BLACK
6
CONTINUOUS
10
153.1294059999999888
20
-72.5074719999999928
11
153.1158759999999859
21
-72.4939419999999899
0
LINE
8
BLACK
6
CONTINUOUS
10
153.1158759999999859
20
-72.4939419999999899
11
153.1139729999999872
21
-72.484375
0
LINE
8
BLACK
6
CONTINUOUS
10
153.1139729999999872
20
-72.484375
11
153.1139729999999872
21
-58.484375
0
LINE
8
BLACK
6
CONTINUOUS
10
153.1139729999999872
20
-58.484375
11
153.1158759999999859
21
-58.4748079999999959
0
LINE
8
BLACK
6
CONTINUOUS
10
153.1158759999999859
20
-58.4748079999999959
11
153.1294059999999888
21
-58.4612780000000001
0
LINE
8
BLACK
6
CONTINUOUS
10
153.1294059999999888
20
-58.4612780000000001
11
153.1389729999999929
21
-58.4593749999999943
0
LINE
8
BLACK
6
CONTINUOUS
10
153.1389729999999929
20
-58.4593749999999943
11
167.1389729999999929
21
-58.4593749999999943
0
LINE
8
BLACK
6
CONTINUOUS
10
167.1389729999999929
20
-58.4593749999999943
11
167.148539999999997
21
-58.4612780000000001
0
LINE
8
BLACK
6
CONTINUOUS
10
153.1639729999999986
20
-58.5093749999999986
11
153.1639729999999986
21
-72.4593749999999943
0
LINE
8
BLACK
6
CONTINUOUS
10
153.1639729999999986
20
-72.4593749999999943
11
167.1139729999999872
21
-72.4593749999999943
0
LINE
8
BLACK
6
CONTINUOUS
10
167.1139729999999872
20
-72.4593749999999943
11
167.1139729999999872
21
-58.5093749999999986
0
LINE
8
BLACK
6
CONTINUOUS
10
167.1139729999999872
20
-58.5093749999999986
11
153.1639729999999986
21
-58.5093749999999986
0
LINE
8
BLACK
6
CONTINUOUS
10
109.9985399999999913
20
-53.6987779999999972
11
110.0120699999999943
21
-53.7123080000000002
0
LINE
8
BLACK
6
CONTINUOUS
10
110.0120699999999943
20
-53.7123080000000002
11
110.0139729999999929
21
-53.7218749999999972
0
LINE
8
BLACK
6
CONTINUOUS
10
110.0139729999999929
20
-53.7218749999999972
11
110.0139729999999929
21
-67.7218749999999972
0
LINE
8
BLACK
6
CONTINUOUS
10
110.0139729999999929
20
-67.7218749999999972
11
110.0120699999999943
21
-67.7314420000000013
0
LINE
8
BLACK
6
CONTINUOUS
10
110.0120699999999943
20
-67.7314420000000013
11
109.9985399999999913
21
-67.74497199999999
0
LINE
8
BLACK
6
CONTINUOUS
10
109.9985399999999913
20
-67.74497199999999
11
109.9889730000000014
21
-67.7468750000000028
0
LINE
8
BLACK
6
CONTINUOUS
10
109.9889730000000014
20
-67.7468750000000028
11
95.9889730000000014
21
-67.7468750000000028
0
LINE
8
BLACK
6
CONTINUOUS
10
95.9889730000000014
20
-67.7468750000000028
11
95.9794059999999973
21
-67.74497199999999
0
LINE
8
BLACK
6
CONTINUOUS
10
95.9794059999999973
20
-67.74497199999999
11
95.9658759999999944
21
-67.7314420000000013
0
LINE
8
BLACK
6
CONTINUOUS
10
95.9658759999999944
20
-67.7314420000000013
11
95.9639729999999957
21
-67.7218749999999972
0
LINE
8
BLACK
6
CONTINUOUS
10
95.9639729999999957
20
-67.7218749999999972
11
95.9639729999999957
21
-53.7218749999999972
0
LINE
8
BLACK
6
CONTINUOUS
10
95.9639729999999957
20
-53.7218749999999972
11
95.9658759999999944
21
-53.7123080000000002
0
LINE
8
BLACK
6
CONTINUOUS
10
95.9658759999999944
20
-53.7123080000000002
11
95.9794059999999973
21
-53.6987779999999972
0
LINE
8
BLACK
6
CONTINUOUS
10
95.9794059999999973
20
-53.6987779999999972
11
95.9889730000000014
21
-53.6968749999999986
0
LINE
8
BLACK
6
CONTINUOUS
10
95.9889730000000014
20
-53.6968749999999986
11
109.9889730000000014
21
-53.6968749999999986
0
LINE
8
BLACK
6
CONTINUOUS
10
109.9889730000000014
20
-53.6968749999999986
11
109.9985399999999913
21
-53.6987779999999972
0
LINE
8
BLACK
6
CONTINUOUS
10
96.0139729999999929
20
-53.7468749999999957
11
96.0139729999999929
21
-67.6968749999999915
0
LINE
8
BLACK
6
CONTINUOUS
10
96.0139729999999929
20
-67.6968749999999915
11
109.9639729999999957
21
-67.6968749999999915
0
LINE
8
BLACK
6
CONTINUOUS
10
109.9639729999999957
20
-67.6968749999999915
11
109.9639729999999957
21
-53.7468749999999957
0
LINE
8
BLACK
6
CONTINUOUS
10
109.9639729999999957
20
-53.7468749999999957
11
96.0139729999999929
21
-53.7468749999999957
0
LINE
8
BLACK
6
CONTINUOUS
10
148.0985399999999856
20
-53.6987779999999972
11
148.1120699999999886
21
-53.7123080000000002
0
LINE
8
BLACK
6
CONTINUOUS
10
148.1120699999999886
20
-53.7123080000000002
11
148.1139729999999872
21
-53.7218749999999972
0
LINE
8
BLACK
6
CONTINUOUS
10
148.1139729999999872
20
-53.7218749999999972
11
148.1139729999999872
21
-67.7218749999999972
0
LINE
8
BLACK
6
CONTINUOUS
10
148.1139729999999872
20
-67.7218749999999972
11
148.1120699999999886
21
-67.7314420000000013
0
LINE
8
BLACK
6
CONTINUOUS
10
148.1120699999999886
20
-67.7314420000000013
11
148.0985399999999856
21
-67.74497199999999
0
LINE
8
BLACK
6
CONTINUOUS
10
148.0985399999999856
20
-67.74497199999999
11
148.0889729999999815
21
-67.7468750000000028
0
LINE
8
BLACK
6
CONTINUOUS
10
148.0889729999999815
20
-67.7468750000000028
11
134.0889729999999815
21
-67.7468750000000028
0
LINE
8
BLACK
6
CONTINUOUS
10
134.0889729999999815
20
-67.7468750000000028
11
134.0794060000000059
21
-67.74497199999999
0
LINE
8
BLACK
6
CONTINUOUS
10
134.0794060000000059
20
-67.74497199999999
11
134.0658760000000029
21
-67.7314420000000013
0
LINE
8
BLACK
6
CONTINUOUS
10
134.0658760000000029
20
-67.7314420000000013
11
134.0639730000000043
21
-67.7218749999999972
0
LINE
8
BLACK
6
CONTINUOUS
10
134.0639730000000043
20
-67.7218749999999972
11
134.0639730000000043
21
-53.7218749999999972
0
LINE
8
BLACK
6
CONTINUOUS
10
134.0639730000000043
20
-53.7218749999999972
11
134.0658760000000029
21
-53.7123080000000002
0
LINE
8
BLACK
6
CONTINUOUS
10
134.0658760000000029
20
-53.7123080000000002
11
134.0794060000000059
21
-53.6987779999999972
0
LINE
8
BLACK
6
CONTINUOUS
10
134.0794060000000059
20
-53.6987779999999972
11
134.0889729999999815
21
-53.6968749999999986
0
LINE
8
BLACK
6
CONTINUOUS
10
134.0889729999999815
20
-53.6968749999999986
11
148.0889729999999815
21
-53.6968749999999986
0
LINE
8
BLACK
6
CONTINUOUS
10
148.0889729999999815
20
-53.6968749999999986
11
148.0985399999999856
21
-53.6987779999999972
0
LINE
8
BLACK
6
CONTINUOUS
10
134.1139729999999872
20
-53.7468749999999957
11
134.1139729999999872
21
-67.6968749999999915
0
LINE
8
BLACK
6
CONTINUOUS
10
134.1139729999999872
20
-67.6968749999999915
11
148.0639730000000043
21
-67.6968749999999915
0
LINE
8
BLACK
6
CONTINUOUS
10
148.0639730000000043
20
-67.6968749999999915
11
148.0639730000000043
21
-53.7468749999999957
0
LINE
8
BLACK
6
CONTINUOUS
10
148.0639730000000043
20
-53.7468749999999957
11
134.1139729999999872
21
-53.7468749999999957
0
LINE
8
BLACK
6
CONTINUOUS
10
71.7453709999999916
20
-63.2116959999999963
11
71.9389559999999904
21
-63.2866909999999976
0
LINE
8
BLACK
6
CONTINUOUS
10
71.9389559999999904
20
-63.2866909999999976
11
72.1154640000000029
21
-63.395980999999999
0
LINE
8
BLACK
6
CONTINUOUS
10
72.1154640000000029
20
-63.395980999999999
11
72.2688849999999974
21
-63.5358419999999953
0
LINE
8
BLACK
6
CONTINUOUS
10
72.2688849999999974
20
-63.5358419999999953
11
72.3939939999999922
21
-63.701513999999996
0
LINE
8
BLACK
6
CONTINUOUS
10
72.3939939999999922
20
-63.701513999999996
11
72.4865309999999994
21
-63.8873529999999974
0
LINE
8
BLACK
6
CONTINUOUS
10
72.4865309999999994
20
-63.8873529999999974
11
72.5433450000000022
21
-64.0870319999999936
0
LINE
8
BLACK
6
CONTINUOUS
10
72.5433450000000022
20
-64.0870319999999936
11
72.5625
21
-64.2937500000000028
0
LINE
8
BLACK
6
CONTINUOUS
10
72.5625
20
-64.2937500000000028
11
72.5433450000000022
21
-64.5004679999999979
0
LINE
8
BLACK
6
CONTINUOUS
10
72.5433450000000022
20
-64.5004679999999979
11
72.4865309999999994
21
-64.7001470000000012
0
LINE
8
BLACK
6
CONTINUOUS
10
72.4865309999999994
20
-64.7001470000000012
11
72.3939939999999922
21
-64.8859860000000026
0
LINE
8
BLACK
6
CONTINUOUS
10
72.3939939999999922
20
-64.8859860000000026
11
72.2688849999999974
21
-65.0516580000000033
0
LINE
8
BLACK
6
CONTINUOUS
10
72.2688849999999974
20
-65.0516580000000033
11
72.1154640000000029
21
-65.1915189999999996
0
LINE
8
BLACK
6
CONTINUOUS
10
72.1154640000000029
20
-65.1915189999999996
11
71.9389559999999904
21
-65.300809000000001
0
LINE
8
BLACK
6
CONTINUOUS
10
71.9389559999999904
20
-65.300809000000001
11
71.7453709999999916
21
-65.3758040000000022
0
LINE
8
BLACK
6
CONTINUOUS
10
71.7453709999999916
20
-65.3758040000000022
11
71.5413020000000017
21
-65.4139509999999973
0
LINE
8
BLACK
6
CONTINUOUS
10
71.5413020000000017
20
-65.4139509999999973
11
71.3336979999999983
21
-65.4139509999999973
0
LINE
8
BLACK
6
CONTINUOUS
10
71.3336979999999983
20
-65.4139509999999973
11
71.1296289999999942
21
-65.3758040000000022
0
LINE
8
BLACK
6
CONTINUOUS
10
71.1296289999999942
20
-65.3758040000000022
11
70.9360439999999954
21
-65.300809000000001
0
LINE
8
BLACK
6
CONTINUOUS
10
70.9360439999999954
20
-65.300809000000001
11
70.7595359999999971
21
-65.1915189999999996
0
LINE
8
BLACK
6
CONTINUOUS
10
70.7595359999999971
20
-65.1915189999999996
11
70.6061150000000026
21
-65.0516580000000033
0
LINE
8
BLACK
6
CONTINUOUS
10
70.6061150000000026
20
-65.0516580000000033
11
70.4810059999999936
21
-64.8859860000000026
0
LINE
8
BLACK
6
CONTINUOUS
10
70.4810059999999936
20
-64.8859860000000026
11
70.3884690000000006
21
-64.7001470000000012
0
LINE
8
BLACK
6
CONTINUOUS
10
70.3884690000000006
20
-64.7001470000000012
11
70.3316549999999978
21
-64.5004679999999979
0
LINE
8
BLACK
6
CONTINUOUS
10
70.3316549999999978
20
-64.5004679999999979
11
70.3125
21
-64.2937500000000028
0
LINE
8
BLACK
6
CONTINUOUS
10
70.3125
20
-64.2937500000000028
11
70.3316549999999978
21
-64.0870319999999936
0
LINE
8
BLACK
6
CONTINUOUS
10
70.3316549999999978
20
-64.0870319999999936
11
70.3884690000000006
21
-63.8873529999999974
0
LINE
8
BLACK
6
CONTINUOUS
10
70.3884690000000006
20
-63.8873529999999974
11
70.4810059999999936
21
-63.701513999999996
0
LINE
8
BLACK
6
CONTINUOUS
10
70.4810059999999936
20
-63.701513999999996
11
70.6061150000000026
21
-63.5358419999999953
0
LINE
8
BLACK
6
CONTINUOUS
10
70.6061150000000026
20
-63.5358419999999953
11
70.7595359999999971
21
-63.395980999999999
0
LINE
8
BLACK
6
CONTINUOUS
10
70.7595359999999971
20
-63.395980999999999
11
70.9360439999999954
21
-63.2866909999999976
0
LINE
8
BLACK
6
CONTINUOUS
10
70.9360439999999954
20
-63.2866909999999976
11
71.1296289999999942
21
-63.2116959999999963
0
LINE
8
BLACK
6
CONTINUOUS
10
71.1296289999999942
20
-63.2116959999999963
11
71.3336979999999983
21
-63.1735489999999942
0
LINE
8
BLACK
6
CONTINUOUS
10
71.3336979999999983
20
-63.1735489999999942
11
71.5413020000000017
21
-63.1735489999999942
0
LINE
8
BLACK
6
CONTINUOUS
10
71.5413020000000017
20
-63.1735489999999942
11
71.7453709999999916
21
-63.2116959999999963
0
LINE
8
BLACK
6
CONTINUOUS
10
70.3762770000000017
20
-64.4921269999999964
11
70.4307979999999958
21
-64.6837479999999942
0
LINE
8
BLACK
6
CONTINUOUS
10
70.4307979999999958
20
-64.6837479999999942
11
70.5196009999999944
21
-64.8620889999999974
0
LINE
8
BLACK
6
CONTINUOUS
10
70.5196009999999944
20
-64.8620889999999974
11
70.6396620000000013
21
-65.0210749999999962
0
LINE
8
BLACK
6
CONTINUOUS
10
70.6396620000000013
20
-65.0210749999999962
11
70.7868929999999921
21
-65.1552930000000003
0
LINE
8
BLACK
6
CONTINUOUS
10
70.7868929999999921
20
-65.1552930000000003
11
70.956278999999995
21
-65.2601729999999947
0
LINE
8
BLACK
6
CONTINUOUS
10
70.956278999999995
20
-65.2601729999999947
11
71.1420519999999925
21
-65.3321419999999904
0
LINE
8
BLACK
6
CONTINUOUS
10
71.1420519999999925
20
-65.3321419999999904
11
71.3378869999999949
21
-65.3687499999999915
0
LINE
8
BLACK
6
CONTINUOUS
10
71.3378869999999949
20
-65.3687499999999915
11
71.5371129999999908
21
-65.3687499999999915
0
LINE
8
BLACK
6
CONTINUOUS
10
71.5371129999999908
20
-65.3687499999999915
11
71.7329479999999933
21
-65.3321419999999904
0
LINE
8
BLACK
6
CONTINUOUS
10
71.7329479999999933
20
-65.3321419999999904
11
71.9187209999999908
21
-65.2601729999999947
0
LINE
8
BLACK
6
CONTINUOUS
10
71.9187209999999908
20
-65.2601729999999947
11
72.0881069999999937
21
-65.1552930000000003
0
LINE
8
BLACK
6
CONTINUOUS
10
72.0881069999999937
20
-65.1552930000000003
11
72.2353379999999987
21
-65.0210749999999962
0
LINE
8
BLACK
6
CONTINUOUS
10
72.2353379999999987
20
-65.0210749999999962
11
72.3553989999999914
21
-64.8620889999999974
0
LINE
8
BLACK
6
CONTINUOUS
10
72.3553989999999914
20
-64.8620889999999974
11
72.44420199999999
21
-64.6837479999999942
0
LINE
8
BLACK
6
CONTINUOUS
10
72.44420199999999
20
-64.6837479999999942
11
72.4987229999999983
21
-64.4921269999999964
0
LINE
8
BLACK
6
CONTINUOUS
10
72.4987229999999983
20
-64.4921269999999964
11
72.5171050000000008
21
-64.2937500000000028
0
LINE
8
BLACK
6
CONTINUOUS
10
72.5171050000000008
20
-64.2937500000000028
11
72.4987229999999983
21
-64.095372999999995
0
LINE
8
BLACK
6
CONTINUOUS
10
72.4987229999999983
20
-64.095372999999995
11
72.44420199999999
21
-63.9037519999999972
0
LINE
8
BLACK
6
CONTINUOUS
10
72.44420199999999
20
-63.9037519999999972
11
72.3553989999999914
21
-63.725410999999994
0
LINE
8
BLACK
6
CONTINUOUS
10
72.3553989999999914
20
-63.725410999999994
11
72.2353379999999987
21
-63.5664249999999953
0
LINE
8
BLACK
6
CONTINUOUS
10
72.2353379999999987
20
-63.5664249999999953
11
72.0881069999999937
21
-63.4322069999999982
0
LINE
8
BLACK
6
CONTINUOUS
10
72.0881069999999937
20
-63.4322069999999982
11
71.9187209999999908
21
-63.3273269999999968
0
LINE
8
BLACK
6
CONTINUOUS
10
71.9187209999999908
20
-63.3273269999999968
11
71.7329479999999933
21
-63.255357999999994
0
LINE
8
BLACK
6
CONTINUOUS
10
71.7329479999999933
20
-63.255357999999994
11
71.5371129999999908
21
-63.21875
0
LINE
8
BLACK
6
CONTINUOUS
10
71.5371129999999908
20
-63.21875
11
71.3378869999999949
21
-63.21875
0
LINE
8
BLACK
6
CONTINUOUS
10
71.3378869999999949
20
-63.21875
11
71.1420519999999925
21
-63.255357999999994
0
LINE
8
BLACK
6
CONTINUOUS
10
71.1420519999999925
20
-63.255357999999994
11
70.956278999999995
21
-63.3273269999999968
0
LINE
8
BLACK
6
CONTINUOUS
10
70.956278999999995
20
-63.3273269999999968
11
70.7868929999999921
21
-63.4322069999999982
0
LINE
8
BLACK
6
CONTINUOUS
10
70.7868929999999921
20
-63.4322069999999982
11
70.6396620000000013
21
-63.5664249999999953
0
LINE
8
BLACK
6
CONTINUOUS
10
70.6396620000000013
20
-63.5664249999999953
11
70.5196009999999944
21
-63.725410999999994
0
LINE
8
BLACK
6
CONTINUOUS
10
70.5196009999999944
20
-63.725410999999994
11
70.4307979999999958
21
-63.9037519999999972
0
LINE
8
BLACK
6
CONTINUOUS
10
70.4307979999999958
20
-63.9037519999999972
11
70.3762770000000017
21
-64.095372999999995
0
LINE
8
BLACK
6
CONTINUOUS
10
70.3762770000000017
20
-64.095372999999995
11
70.3578949999999992
21
-64.2937500000000028
0
LINE
8
BLACK
6
CONTINUOUS
10
70.3578949999999992
20
-64.2937500000000028
11
70.3762770000000017
21
-64.4921269999999964
0
LINE
8
BLACK
6
CONTINUOUS
10
129.0485400000000027
20
-48.9362779999999944
11
129.0620700000000056
21
-48.9498079999999973
0
LINE
8
BLACK
6
CONTINUOUS
10
129.0620700000000056
20
-48.9498079999999973
11
129.0639730000000043
21
-48.9593749999999943
0
LINE
8
BLACK
6
CONTINUOUS
10
129.0639730000000043
20
-48.9593749999999943
11
129.0639730000000043
21
-62.9593749999999943
0
LINE
8
BLACK
6
CONTINUOUS
10
129.0639730000000043
20
-62.9593749999999943
11
129.0620700000000056
21
-62.9689419999999984
0
LINE
8
BLACK
6
CONTINUOUS
10
129.0620700000000056
20
-62.9689419999999984
11
129.0485400000000027
21
-62.9824719999999942
0
LINE
8
BLACK
6
CONTINUOUS
10
129.0485400000000027
20
-62.9824719999999942
11
129.0389729999999986
21
-62.984375
0
LINE
8
BLACK
6
CONTINUOUS
10
129.0389729999999986
20
-62.984375
11
115.0389729999999986
21
-62.984375
0
LINE
8
BLACK
6
CONTINUOUS
10
115.0389729999999986
20
-62.984375
11
115.0294059999999945
21
-62.9824719999999942
0
LINE
8
BLACK
6
CONTINUOUS
10
115.0294059999999945
20
-62.9824719999999942
11
115.0158759999999916
21
-62.9689419999999984
0
LINE
8
BLACK
6
CONTINUOUS
10
115.0158759999999916
20
-62.9689419999999984
11
115.0139729999999929
21
-62.9593749999999943
0
LINE
8
BLACK
6
CONTINUOUS
10
115.0139729999999929
20
-62.9593749999999943
11
115.0139729999999929
21
-48.9593749999999943
0
LINE
8
BLACK
6
CONTINUOUS
10
115.0139729999999929
20
-48.9593749999999943
11
115.0158759999999916
21
-48.9498079999999973
0
LINE
8
BLACK
6
CONTINUOUS
10
115.0158759999999916
20
-48.9498079999999973
11
115.0294059999999945
21
-48.9362779999999944
0
LINE
8
BLACK
6
CONTINUOUS
10
115.0294059999999945
20
-48.9362779999999944
11
115.0389729999999986
21
-48.9343749999999957
0
LINE
8
BLACK
6
CONTINUOUS
10
115.0389729999999986
20
-48.9343749999999957
11
129.0389729999999986
21
-48.9343749999999957
0
LINE
8
BLACK
6
CONTINUOUS
10
129.0389729999999986
20
-48.9343749999999957
11
129.0485400000000027
21
-48.9362779999999944
0
LINE
8
BLACK
6
CONTINUOUS
10
115.0639729999999901
20
-48.984375
11
115.0639729999999901
21
-62.9343749999999957
0
LINE
8
BLACK
6
CONTINUOUS
10
115.0639729999999901
20
-62.9343749999999957
11
129.0139729999999929
21
-62.9343749999999957
0
LINE
8
BLACK
6
CONTINUOUS
10
129.0139729999999929
20
-62.9343749999999957
11
129.0139729999999929
21
-48.984375
0
LINE
8
BLACK
6
CONTINUOUS
10
129.0139729999999929
20
-48.984375
11
115.0639729999999901
21
-48.984375
0
LINE
8
BLACK
6
CONTINUOUS
10
185.4499689999999816
20
-58.4491960000000006
11
185.6435539999999946
21
-58.5241909999999947
0
LINE
8
BLACK
6
CONTINUOUS
10
185.6435539999999946
20
-58.5241909999999947
11
185.8200619999999788
21
-58.6334809999999962
0
LINE
8
BLACK
6
CONTINUOUS
10
185.8200619999999788
20
-58.6334809999999962
11
185.9734829999999874
21
-58.7733419999999995
0
LINE
8
BLACK
6
CONTINUOUS
10
185.9734829999999874
20
-58.7733419999999995
11
186.0985919999999965
21
-58.9390140000000002
0
LINE
8
BLACK
6
CONTINUOUS
10
186.0985919999999965
20
-58.9390140000000002
11
186.1911289999999894
21
-59.1248529999999946
0
LINE
8
BLACK
6
CONTINUOUS
10
186.1911289999999894
20
-59.1248529999999946
11
186.2479429999999923
21
-59.3245319999999978
0
LINE
8
BLACK
6
CONTINUOUS
10
186.2479429999999923
20
-59.3245319999999978
11
186.2670980000000043
21
-59.53125
0
LINE
8
BLACK
6
CONTINUOUS
10
186.2670980000000043
20
-59.53125
11
186.2479429999999923
21
-59.7379679999999951
0
LINE
8
BLACK
6
CONTINUOUS
10
186.2479429999999923
20
-59.7379679999999951
11
186.1911289999999894
21
-59.9376469999999983
0
LINE
8
BLACK
6
CONTINUOUS
10
186.1911289999999894
20
-59.9376469999999983
11
186.0985919999999965
21
-60.1234859999999998
0
LINE
8
BLACK
6
CONTINUOUS
10
186.0985919999999965
20
-60.1234859999999998
11
185.9734829999999874
21
-60.2891580000000005
0
LINE
8
BLACK
6
CONTINUOUS
10
185.9734829999999874
20
-60.2891580000000005
11
185.8200619999999788
21
-60.4290189999999967
0
LINE
8
BLACK
6
CONTINUOUS
10
185.8200619999999788
20
-60.4290189999999967
11
185.6435539999999946
21
-60.5383089999999982
0
LINE
8
BLACK
6
CONTINUOUS
10
185.6435539999999946
20
-60.5383089999999982
11
185.4499689999999816
21
-60.6133039999999994
0
LINE
8
BLACK
6
CONTINUOUS
10
185.4499689999999816
20
-60.6133039999999994
11
185.2458999999999776
21
-60.6514509999999945
0
LINE
8
BLACK
6
CONTINUOUS
10
185.2458999999999776
20
-60.6514509999999945
11
185.0382960000000026
21
-60.6514509999999945
0
LINE
8
BLACK
6
CONTINUOUS
10
185.0382960000000026
20
-60.6514509999999945
11
184.8342269999999985
21
-60.6133039999999994
0
LINE
8
BLACK
6
CONTINUOUS
10
184.8342269999999985
20
-60.6133039999999994
11
184.6406419999999855
21
-60.5383089999999982
0
LINE
8
BLACK
6
CONTINUOUS
10
184.6406419999999855
20
-60.5383089999999982
11
184.4641340000000014
21
-60.4290189999999967
0
LINE
8
BLACK
6
CONTINUOUS
10
184.4641340000000014
20
-60.4290189999999967
11
184.3107129999999927
21
-60.2891580000000005
0
LINE
8
BLACK
6
CONTINUOUS
10
184.3107129999999927
20
-60.2891580000000005
11
184.1856039999999837
21
-60.1234859999999998
0
LINE
8
BLACK
6
CONTINUOUS
10
184.1856039999999837
20
-60.1234859999999998
11
184.0930669999999907
21
-59.9376469999999983
0
LINE
8
BLACK
6
CONTINUOUS
10
184.0930669999999907
20
-59.9376469999999983
11
184.0362529999999879
21
-59.7379679999999951
0
LINE
8
BLACK
6
CONTINUOUS
10
184.0362529999999879
20
-59.7379679999999951
11
184.0170980000000043
21
-59.53125
0
LINE
8
BLACK
6
CONTINUOUS
10
184.0170980000000043
20
-59.53125
11
184.0362529999999879
21
-59.3245319999999978
0
LINE
8
BLACK
6
CONTINUOUS
10
184.0362529999999879
20
-59.3245319999999978
11
184.0930669999999907
21
-59.1248529999999946
0
LINE
8
BLACK
6
CONTINUOUS
10
184.0930669999999907
20
-59.1248529999999946
11
184.1856039999999837
21
-58.9390140000000002
0
LINE
8
BLACK
6
CONTINUOUS
10
184.1856039999999837
20
-58.9390140000000002
11
184.3107129999999927
21
-58.7733419999999995
0
LINE
8
BLACK
6
CONTINUOUS
10
184.3107129999999927
20
-58.7733419999999995
11
184.4641340000000014
21
-58.6334809999999962
0
LINE
8
BLACK
6
CONTINUOUS
10
184.4641340000000014
20
-58.6334809999999962
11
184.6406419999999855
21
-58.5241909999999947
0
LINE
8
BLACK
6
CONTINUOUS
10
184.6406419999999855
20
-58.5241909999999947
11
184.8342269999999985
21
-58.4491960000000006
0
LINE
8
BLACK
6
CONTINUOUS
10
184.8342269999999985
20
-58.4491960000000006
11
185.0382960000000026
21
-58.4110489999999984
0
LINE
8
BLACK
6
CONTINUOUS
10
185.0382960000000026
20
-58.4110489999999984
11
185.2458999999999776
21
-58.4110489999999984
0
LINE
8
BLACK
6
CONTINUOUS
10
185.2458999999999776
20
-58.4110489999999984
11
185.4499689999999816
21
-58.4491960000000006
0
LINE
8
BLACK
6
CONTINUOUS
10
184.0808749999999918
20
-59.7296270000000007
11
184.1353959999999859
21
-59.9212479999999985
0
LINE
8
BLACK
6
CONTINUOUS
10
184.1353959999999859
20
-59.9212479999999985
11
184.2241989999999987
21
-60.0995889999999946
0
LINE
8
BLACK
6
CONTINUOUS
10
184.2241989999999987
20
-60.0995889999999946
11
184.3442599999999914
21
-60.2585750000000004
0
LINE
8
BLACK
6
CONTINUOUS
10
184.3442599999999914
20
-60.2585750000000004
11
184.4914909999999963
21
-60.3927929999999975
0
LINE
8
BLACK
6
CONTINUOUS
10
184.4914909999999963
20
-60.3927929999999975
11
184.6608769999999993
21
-60.4976729999999989
0
LINE
8
BLACK
6
CONTINUOUS
10
184.6608769999999993
20
-60.4976729999999989
11
184.8466499999999826
21
-60.5696419999999947
0
LINE
8
BLACK
6
CONTINUOUS
10
184.8466499999999826
20
-60.5696419999999947
11
185.0424849999999992
21
-60.6062499999999957
0
LINE
8
BLACK
6
CONTINUOUS
10
185.0424849999999992
20
-60.6062499999999957
11
185.2417109999999809
21
-60.6062499999999957
0
LINE
8
BLACK
6
CONTINUOUS
10
185.2417109999999809
20
-60.6062499999999957
11
185.4375459999999975
21
-60.5696419999999947
0
LINE
8
BLACK
6
CONTINUOUS
10
185.4375459999999975
20
-60.5696419999999947
11
185.6233189999999809
21
-60.4976729999999989
0
LINE
8
BLACK
6
CONTINUOUS
10
185.6233189999999809
20
-60.4976729999999989
11
185.7927049999999838
21
-60.3927929999999975
0
LINE
8
BLACK
6
CONTINUOUS
10
185.7927049999999838
20
-60.3927929999999975
11
185.9399359999999888
21
-60.2585750000000004
0
LINE
8
BLACK
6
CONTINUOUS
10
185.9399359999999888
20
-60.2585750000000004
11
186.0599969999999814
21
-60.0995889999999946
0
LINE
8
BLACK
6
CONTINUOUS
10
186.0599969999999814
20
-60.0995889999999946
11
186.1487999999999943
21
-59.9212479999999985
0
LINE
8
BLACK
6
CONTINUOUS
10
186.1487999999999943
20
-59.9212479999999985
11
186.2033209999999883
21
-59.7296270000000007
0
LINE
8
BLACK
6
CONTINUOUS
10
186.2033209999999883
20
-59.7296270000000007
11
186.2217029999999909
21
-59.53125
0
LINE
8
BLACK
6
CONTINUOUS
10
186.2217029999999909
20
-59.53125
11
186.2033209999999883
21
-59.3328729999999993
0
LINE
8
BLACK
6
CONTINUOUS
10
186.2033209999999883
20
-59.3328729999999993
11
186.1487999999999943
21
-59.1412519999999944
0
LINE
8
BLACK
6
CONTINUOUS
10
186.1487999999999943
20
-59.1412519999999944
11
186.0599969999999814
21
-58.9629109999999983
0
LINE
8
BLACK
6
CONTINUOUS
10
186.0599969999999814
20
-58.9629109999999983
11
185.9399359999999888
21
-58.8039249999999996
0
LINE
8
BLACK
6
CONTINUOUS
10
185.9399359999999888
20
-58.8039249999999996
11
185.7927049999999838
21
-58.6697069999999954
0
LINE
8
BLACK
6
CONTINUOUS
10
185.7927049999999838
20
-58.6697069999999954
11
185.6233189999999809
21
-58.564826999999994
0
LINE
8
BLACK
6
CONTINUOUS
10
185.6233189999999809
20
-58.564826999999994
11
185.4375459999999975
21
-58.4928579999999982
0
LINE
8
BLACK
6
CONTINUOUS
10
185.4375459999999975
20
-58.4928579999999982
11
185.2417109999999809
21
-58.4562499999999972
0
LINE
8
BLACK
6
CONTINUOUS
10
185.2417109999999809
20
-58.4562499999999972
11
185.0424849999999992
21
-58.4562499999999972
0
LINE
8
BLACK
6
CONTINUOUS
10
185.0424849999999992
20
-58.4562499999999972
11
184.8466499999999826
21
-58.4928579999999982
0
LINE
8
BLACK
6
CONTINUOUS
10
184.8466499999999826
20
-58.4928579999999982
11
184.6608769999999993
21
-58.564826999999994
0
LINE
8
BLACK
6
CONTINUOUS
10
184.6608769999999993
20
-58.564826999999994
11
184.4914909999999963
21
-58.6697069999999954
0
LINE
8
BLACK
6
CONTINUOUS
10
184.4914909999999963
20
-58.6697069999999954
11
184.3442599999999914
21
-58.8039249999999996
0
LINE
8
BLACK
6
CONTINUOUS
10
184.3442599999999914
20
-58.8039249999999996
11
184.2241989999999987
21
-58.9629109999999983
0
LINE
8
BLACK
6
CONTINUOUS
10
184.2241989999999987
20
-58.9629109999999983
11
184.1353959999999859
21
-59.1412519999999944
0
LINE
8
BLACK
6
CONTINUOUS
10
184.1353959999999859
20
-59.1412519999999944
11
184.0808749999999918
21
-59.3328729999999993
0
LINE
8
BLACK
6
CONTINUOUS
10
184.0808749999999918
20
-59.3328729999999993
11
184.0624929999999893
21
-59.53125
0
LINE
8
BLACK
6
CONTINUOUS
10
184.0624929999999893
20
-59.53125
11
184.0808749999999918
21
-59.7296270000000007
0
LINE
8
BLACK
6
CONTINUOUS
10
131.5715469999999812
20
-41.6249059999999957
11
131.585425999999984
21
-41.6267110000000002
0
LINE
8
BLACK
6
CONTINUOUS
10
131.585425999999984
20
-41.6267110000000002
11
131.5854219999999941
21
-41.6267190000000014
0
LINE
8
BLACK
6
CONTINUOUS
10
131.5854219999999941
20
-41.6267190000000014
11
132.6116600000000005
21
-42.1141879999999986
0
LINE
8
BLACK
6
CONTINUOUS
10
132.6116600000000005
20
-42.1141879999999986
11
134.6802179999999964
21
-43.0545249999999982
0
LINE
8
BLACK
6
CONTINUOUS
10
134.6802179999999964
20
-43.0545249999999982
11
136.7642649999999946
21
-43.9600170000000006
0
LINE
8
BLACK
6
CONTINUOUS
10
136.7642649999999946
20
-43.9600170000000006
11
138.8632139999999993
21
-44.830408999999996
0
LINE
8
BLACK
6
CONTINUOUS
10
138.8632139999999993
20
-44.830408999999996
11
140.9764729999999986
21
-45.6654550000000015
0
LINE
8
BLACK
6
CONTINUOUS
10
140.9764729999999986
20
-45.6654550000000015
11
143.1034469999999885
21
-46.4649199999999993
0
LINE
8
BLACK
6
CONTINUOUS
10
143.1034469999999885
20
-46.4649199999999993
11
145.2435389999999984
21
-47.2285789999999963
0
LINE
8
BLACK
6
CONTINUOUS
10
145.2435389999999984
20
-47.2285789999999963
11
147.3961439999999925
21
-47.9562179999999998
0
LINE
8
BLACK
6
CONTINUOUS
10
147.3961439999999925
20
-47.9562179999999998
11
149.5606559999999945
21
-48.6476299999999995
0
LINE
8
BLACK
6
CONTINUOUS
10
149.5606559999999945
20
-48.6476299999999995
11
151.7364670000000046
21
-49.3026219999999995
0
LINE
8
BLACK
6
CONTINUOUS
10
151.7364670000000046
20
-49.3026219999999995
11
153.9229629999999815
21
-49.921008999999998
0
LINE
8
BLACK
6
CONTINUOUS
10
153.9229629999999815
20
-49.921008999999998
11
156.1195280000000025
21
-50.5026170000000008
0
LINE
8
BLACK
6
CONTINUOUS
10
156.1195280000000025
20
-50.5026170000000008
11
158.3255439999999794
21
-51.0472819999999956
0
LINE
8
BLACK
6
CONTINUOUS
10
158.3255439999999794
20
-51.0472819999999956
11
160.5403890000000047
21
-51.5548499999999947
0
LINE
8
BLACK
6
CONTINUOUS
10
160.5403890000000047
20
-51.5548499999999947
11
162.7634400000000028
21
-52.0251789999999943
0
LINE
8
BLACK
6
CONTINUOUS
10
162.7634400000000028
20
-52.0251789999999943
11
164.994070999999991
21
-52.4581359999999961
0
LINE
8
BLACK
6
CONTINUOUS
10
164.994070999999991
20
-52.4581359999999961
11
167.2316539999999918
21
-52.8536000000000001
0
LINE
8
BLACK
6
CONTINUOUS
10
167.2316539999999918
20
-52.8536000000000001
11
169.4755569999999807
21
-53.2114580000000004
0
LINE
8
BLACK
6
CONTINUOUS
10
169.4755569999999807
20
-53.2114580000000004
11
171.7251499999999851
21
-53.5316109999999981
0
LINE
8
BLACK
6
CONTINUOUS
10
171.7251499999999851
20
-53.5316109999999981
11
173.9797989999999857
21
-53.8139669999999981
0
LINE
8
BLACK
6
CONTINUOUS
10
173.9797989999999857
20
-53.8139669999999981
11
176.238868999999994
21
-54.0584479999999985
0
LINE
8
BLACK
6
CONTINUOUS
10
176.238868999999994
20
-54.0584479999999985
11
178.5017229999999984
21
-54.2649839999999983
0
LINE
8
BLACK
6
CONTINUOUS
10
178.5017229999999984
20
-54.2649839999999983
11
180.767723999999987
21
-54.4335179999999994
0
LINE
8
BLACK
6
CONTINUOUS
10
180.767723999999987
20
-54.4335179999999994
11
183.0362350000000049
21
-54.564001999999995
0
LINE
8
BLACK
6
CONTINUOUS
10
183.0362350000000049
20
-54.564001999999995
11
185.3066149999999936
21
-54.6563990000000004
0
LINE
8
BLACK
6
CONTINUOUS
10
185.3066149999999936
20
-54.6563990000000004
11
187.5782269999999983
21
-54.710682999999996
0
LINE
8
BLACK
6
CONTINUOUS
10
187.5782269999999983
20
-54.710682999999996
11
188.7143289999999922
21
-54.7187509999999975
0
LINE
8
BLACK
6
CONTINUOUS
10
188.7143289999999922
20
-54.7187509999999975
11
188.7257620000000031
21
-54.7225559999999973
0
LINE
8
BLACK
6
CONTINUOUS
10
188.7257620000000031
20
-54.7225559999999973
11
188.7331069999999897
21
-54.7225559999999973
0
LINE
8
BLACK
6
CONTINUOUS
10
188.7331069999999897
20
-54.7225559999999973
11
188.7367699999999786
21
-54.7262190000000004
0
LINE
8
BLACK
6
CONTINUOUS
10
188.7367699999999786
20
-54.7262190000000004
11
188.7436490000000049
21
-54.7285089999999954
0
LINE
8
BLACK
6
CONTINUOUS
10
188.7436490000000049
20
-54.7285089999999954
11
188.7552009999999996
21
-54.74465
0
LINE
8
BLACK
6
CONTINUOUS
10
188.7552009999999996
20
-54.74465
11
188.7601669999999956
21
-54.7496159999999961
0
LINE
8
BLACK
6
CONTINUOUS
10
188.7601669999999956
20
-54.7496159999999961
11
188.7607099999999889
21
-54.7523470000000003
0
LINE
8
BLACK
6
CONTINUOUS
10
188.7607099999999889
20
-54.7523470000000003
11
188.7616339999999866
21
-54.7536379999999951
0
LINE
8
BLACK
6
CONTINUOUS
10
188.7616339999999866
20
-54.7536379999999951
11
188.7616109999999878
21
-54.7568750000000009
0
LINE
8
BLACK
6
CONTINUOUS
10
188.7616109999999878
20
-54.7568750000000009
11
188.7639729999999929
21
-54.7687499999999972
0
LINE
8
BLACK
6
CONTINUOUS
10
188.7639729999999929
20
-54.7687499999999972
11
188.7639729999999929
21
-113.0803590000000014
0
LINE
8
BLACK
6
CONTINUOUS
10
188.7639729999999929
20
-113.0803590000000014
11
197.0731549999999856
21
-117.8284629999999993
0
LINE
8
BLACK
6
CONTINUOUS
10
197.0731549999999856
20
-117.8284629999999993
11
197.0878799999999842
21
-117.8412609999999887
0
LINE
8
BLACK
6
CONTINUOUS
10
197.0878799999999842
20
-117.8412609999999887
11
197.0885419999999897
21
-117.8436899999999952
0
LINE
8
BLACK
6
CONTINUOUS
10
197.0885419999999897
20
-117.8436899999999952
11
197.0910159999999962
21
-117.8458089999999885
0
LINE
8
BLACK
6
CONTINUOUS
10
197.0910159999999962
20
-117.8458089999999885
11
197.0981879999999933
21
-117.8758669999999995
0
LINE
8
BLACK
6
CONTINUOUS
10
197.0981879999999933
20
-117.8758669999999995
11
197.0976619999999855
21
-117.877129999999994
0
LINE
8
BLACK
6
CONTINUOUS
10
197.0976619999999855
20
-117.877129999999994
11
197.0979489999999998
21
-117.8781809999999979
0
LINE
8
BLACK
6
CONTINUOUS
10
197.0979489999999998
20
-117.8781809999999979
11
197.0952920000000006
21
-117.882829000000001
0
LINE
8
BLACK
6
CONTINUOUS
10
197.0952920000000006
20
-117.882829000000001
11
197.086322999999993
21
-117.9043999999999954
0
LINE
8
BLACK
6
CONTINUOUS
10
197.086322999999993
20
-117.9043999999999954
11
197.0863319999999987
21
-117.904406999999992
0
LINE
8
BLACK
6
CONTINUOUS
10
197.0863319999999987
20
-117.904406999999992
11
196.501576
21
-118.587151999999989
0
LINE
8
BLACK
6
CONTINUOUS
10
196.501576
20
-118.587151999999989
11
195.3603489999999852
21
-119.9763669999999962
0
LINE
8
BLACK
6
CONTINUOUS
10
195.3603489999999852
20
-119.9763669999999962
11
194.2478849999999966
21
-121.3887209999999897
0
LINE
8
BLACK
6
CONTINUOUS
10
194.2478849999999966
20
-121.3887209999999897
11
193.1646539999999845
21
-122.8236179999999962
0
LINE
8
BLACK
6
CONTINUOUS
10
193.1646539999999845
20
-122.8236179999999962
11
192.1111119999999914
21
-124.2804539999999918
0
LINE
8
BLACK
6
CONTINUOUS
10
192.1111119999999914
20
-124.2804539999999918
11
191.0877049999999997
21
-125.7586129999999969
0
LINE
8
BLACK
6
CONTINUOUS
10
191.0877049999999997
20
-125.7586129999999969
11
190.0948619999999778
21
-127.2574729999999903
0
LINE
8
BLACK
6
CONTINUOUS
10
190.0948619999999778
20
-127.2574729999999903
11
189.1330030000000022
21
-128.7764029999999877
0
LINE
8
BLACK
6
CONTINUOUS
10
189.1330030000000022
20
-128.7764029999999877
11
188.2025329999999883
21
-130.3147600000000068
0
LINE
8
BLACK
6
CONTINUOUS
10
188.2025329999999883
20
-130.3147600000000068
11
187.3038449999999955
21
-131.8718979999999874
0
LINE
8
BLACK
6
CONTINUOUS
10
187.3038449999999955
20
-131.8718979999999874
11
186.4373169999999789
21
-133.4471599999999967
0
LINE
8
BLACK
6
CONTINUOUS
10
186.4373169999999789
20
-133.4471599999999967
11
185.6033149999999807
21
-135.0398799999999824
0
LINE
8
BLACK
6
CONTINUOUS
10
185.6033149999999807
20
-135.0398799999999824
11
184.802189999999996
21
-136.6493889999999851
0
LINE
8
BLACK
6
CONTINUOUS
10
184.802189999999996
20
-136.6493889999999851
11
184.0342799999999954
21
-138.275006999999988
0
LINE
8
BLACK
6
CONTINUOUS
10
184.0342799999999954
20
-138.275006999999988
11
183.2999099999999828
21
-139.9160489999999868
0
LINE
8
BLACK
6
CONTINUOUS
10
183.2999099999999828
20
-139.9160489999999868
11
182.5993869999999788
21
-141.5718229999999949
0
LINE
8
BLACK
6
CONTINUOUS
10
182.5993869999999788
20
-141.5718229999999949
11
181.9330089999999984
21
-143.2416309999999839
0
LINE
8
BLACK
6
CONTINUOUS
10
181.9330089999999984
20
-143.2416309999999839
11
181.6170319999999947
21
-144.083200000000005
0
LINE
8
BLACK
6
CONTINUOUS
10
181.6170319999999947
20
-144.083200000000005
11
181.6129239999999925
21
-144.0883479999999963
0
LINE
8
BLACK
6
CONTINUOUS
10
181.6129239999999925
20
-144.0883479999999963
11
181.6109479999999792
21
-144.0946329999999875
0
LINE
8
BLACK
6
CONTINUOUS
10
181.6109479999999792
20
-144.0946329999999875
11
181.6035229999999956
21
-144.1001339999999971
0
LINE
8
BLACK
6
CONTINUOUS
10
181.6035229999999956
20
-144.1001339999999971
11
181.5977619999999888
21
-144.1073570000000075
0
LINE
8
BLACK
6
CONTINUOUS
10
181.5977619999999888
20
-144.1073570000000075
11
181.5914119999999912
21
-144.109107999999992
0
LINE
8
BLACK
6
CONTINUOUS
10
181.5914119999999912
20
-144.109107999999992
11
181.5861189999999965
21
-144.1130310000000065
0
LINE
8
BLACK
6
CONTINUOUS
10
181.5861189999999965
20
-144.1130310000000065
11
181.5768769999999961
21
-144.1131169999999884
0
LINE
8
BLACK
6
CONTINUOUS
10
181.5768769999999961
20
-144.1131169999999884
11
181.567972999999995
21
-144.115573999999981
0
LINE
8
BLACK
6
CONTINUOUS
10
181.567972999999995
20
-144.115573999999981
11
181.5618069999999875
21
-144.1132589999999993
0
LINE
8
BLACK
6
CONTINUOUS
10
181.5618069999999875
20
-144.1132589999999993
11
181.5552189999999939
21
-144.1133209999999849
0
LINE
8
BLACK
6
CONTINUOUS
10
181.5552189999999939
20
-144.1133209999999849
11
179.8248030000000028
21
-143.5689669999999865
0
LINE
8
BLACK
6
CONTINUOUS
10
179.8248030000000028
20
-143.5689669999999865
11
176.3532219999999882
21
-142.5150390000000016
0
LINE
8
BLACK
6
CONTINUOUS
10
176.3532219999999882
20
-142.5150390000000016
11
172.8712439999999901
21
-141.4959849999999904
0
LINE
8
BLACK
6
CONTINUOUS
10
172.8712439999999901
20
-141.4959849999999904
11
169.3792210000000011
21
-140.5119069999999795
0
LINE
8
BLACK
6
CONTINUOUS
10
169.3792210000000011
20
-140.5119069999999795
11
165.8775019999999927
21
-139.5629050000000007
0
LINE
8
BLACK
6
CONTINUOUS
10
165.8775019999999927
20
-139.5629050000000007
11
162.3664409999999805
21
-138.6490729999999871
0
LINE
8
BLACK
6
CONTINUOUS
10
162.3664409999999805
20
-138.6490729999999871
11
158.8463899999999853
21
-137.7705039999999883
0
LINE
8
BLACK
6
CONTINUOUS
10
158.8463899999999853
20
-137.7705039999999883
11
155.317703999999992
21
-136.927285999999981
0
LINE
8
BLACK
6
CONTINUOUS
10
155.317703999999992
20
-136.927285999999981
11
151.7807379999999853
21
-136.1195050000000037
0
LINE
8
BLACK
6
CONTINUOUS
10
151.7807379999999853
20
-136.1195050000000037
11
148.2358480000000043
21
-135.3472409999999968
0
LINE
8
BLACK
6
CONTINUOUS
10
148.2358480000000043
20
-135.3472409999999968
11
144.6833900000000028
21
-134.6105709999999931
0
LINE
8
BLACK
6
CONTINUOUS
10
144.6833900000000028
20
-134.6105709999999931
11
141.1237209999999891
21
-133.9095709999999997
0
LINE
8
BLACK
6
CONTINUOUS
10
141.1237209999999891
20
-133.9095709999999997
11
137.5572009999999921
21
-133.2443099999999845
0
LINE
8
BLACK
6
CONTINUOUS
10
137.5572009999999921
20
-133.2443099999999845
11
133.9841869999999915
21
-132.6148570000000007
0
LINE
8
BLACK
6
CONTINUOUS
10
133.9841869999999915
20
-132.6148570000000007
11
130.4050389999999879
21
-132.021271999999982
0
LINE
8
BLACK
6
CONTINUOUS
10
130.4050389999999879
20
-132.021271999999982
11
126.8201179999999937
21
-131.4636179999999968
0
LINE
8
BLACK
6
CONTINUOUS
10
126.8201179999999937
20
-131.4636179999999968
11
123.2297839999999951
21
-130.9419489999999939
0
LINE
8
BLACK
6
CONTINUOUS
10
123.2297839999999951
20
-130.9419489999999939
11
119.6343969999999928
21
-130.4563190000000077
0
LINE
8
BLACK
6
CONTINUOUS
10
119.6343969999999928
20
-130.4563190000000077
11
116.0343209999999914
21
-130.0067750000000046
0
LINE
8
BLACK
6
CONTINUOUS
10
116.0343209999999914
20
-130.0067750000000046
11
112.4299159999999915
21
-129.5933640000000082
0
LINE
8
BLACK
6
CONTINUOUS
10
112.4299159999999915
20
-129.5933640000000082
11
108.8215469999999954
21
-129.2161270000000002
0
LINE
8
BLACK
6
CONTINUOUS
10
108.8215469999999954
20
-129.2161270000000002
11
105.209575000000001
21
-128.8751019999999983
0
LINE
8
BLACK
6
CONTINUOUS
10
105.209575000000001
20
-128.8751019999999983
11
101.5943639999999988
21
-128.5703220000000044
0
LINE
8
BLACK
6
CONTINUOUS
10
101.5943639999999988
20
-128.5703220000000044
11
97.9762779999999935
21
-128.3018199999999922
0
LINE
8
BLACK
6
CONTINUOUS
10
97.9762779999999935
20
-128.3018199999999922
11
94.3556809999999899
21
-128.0696209999999837
0
LINE
8
BLACK
6
CONTINUOUS
10
94.3556809999999899
20
-128.0696209999999837
11
90.7329369999999926
21
-127.8737500000000011
0
LINE
8
BLACK
6
CONTINUOUS
10
90.7329369999999926
20
-127.8737500000000011
11
87.1084099999999921
21
-127.714224999999999
0
LINE
8
BLACK
6
CONTINUOUS
10
87.1084099999999921
20
-127.714224999999999
11
83.4824660000000023
21
-127.5910639999999887
0
LINE
8
BLACK
6
CONTINUOUS
10
83.4824660000000023
20
-127.5910639999999887
11
79.8554689999999994
21
-127.5042779999999993
0
LINE
8
BLACK
6
CONTINUOUS
10
79.8554689999999994
20
-127.5042779999999993
11
76.2277839999999998
21
-127.4538749999999965
0
LINE
8
BLACK
6
CONTINUOUS
10
76.2277839999999998
20
-127.4538749999999965
11
74.4137800000000027
21
-127.4468749999999915
0
LINE
8
BLACK
6
CONTINUOUS
10
74.4137800000000027
20
-127.4468749999999915
11
55.1733499999999992
21
-127.4468749999999915
0
LINE
8
BLACK
6
CONTINUOUS
10
55.1733499999999992
20
-127.4468749999999915
11
55.1733479999999972
21
-127.4468749999999915
0
LINE
8
BLACK
6
CONTINUOUS
10
55.1733479999999972
20
-127.4468749999999915
11
55.1733459999999951
21
-127.446873999999994
0
LINE
8
BLACK
6
CONTINUOUS
10
55.1733459999999951
20
-127.446873999999994
11
54.9910149999999973
21
-127.4309310000000011
0
LINE
8
BLACK
6
CONTINUOUS
10
54.9910149999999973
20
-127.4309310000000011
11
54.8142189999999943
21
-127.3835649999999902
0
LINE
8
BLACK
6
CONTINUOUS
10
54.8142189999999943
20
-127.3835649999999902
11
54.6483339999999984
21
-127.3062169999999895
0
LINE
8
BLACK
6
CONTINUOUS
10
54.6483339999999984
20
-127.3062169999999895
11
54.4984019999999987
21
-127.2012379999999894
0
LINE
8
BLACK
6
CONTINUOUS
10
54.4984019999999987
20
-127.2012379999999894
11
54.3689779999999985
21
-127.0718169999999958
0
LINE
8
BLACK
6
CONTINUOUS
10
54.3689779999999985
20
-127.0718169999999958
11
54.2639949999999942
21
-126.9218869999999981
0
LINE
8
BLACK
6
CONTINUOUS
10
54.2639949999999942
20
-126.9218869999999981
11
54.1866429999999966
21
-126.7560039999999901
0
LINE
8
BLACK
6
CONTINUOUS
10
54.1866429999999966
20
-126.7560039999999901
11
54.1392729999999958
21
-126.5792089999999916
0
LINE
8
BLACK
6
CONTINUOUS
10
54.1392729999999958
20
-126.5792089999999916
11
54.1233249999999941
21
-126.3968739999999968
0
LINE
8
BLACK
6
CONTINUOUS
10
54.1233249999999941
20
-126.3968739999999968
11
54.123348
21
-126.3968739999999968
0
LINE
8
BLACK
6
CONTINUOUS
10
54.123348
20
-126.3968739999999968
11
54.123348
21
-67.8656249999999943
0
LINE
8
BLACK
6
CONTINUOUS
10
54.123348
20
-67.8656249999999943
11
54.1271539999999973
21
-67.8464910000000003
0
LINE
8
BLACK
6
CONTINUOUS
10
54.1271539999999973
20
-67.8464910000000003
11
54.1274990000000003
21
-67.8461449999999928
0
LINE
8
BLACK
6
CONTINUOUS
10
54.1274990000000003
20
-67.8461449999999928
11
54.1275599999999955
21
-67.8455390000000023
0
LINE
8
BLACK
6
CONTINUOUS
10
54.1275599999999955
20
-67.8455390000000023
11
54.1481110000000001
21
-67.8224609999999899
0
LINE
8
BLACK
6
CONTINUOUS
10
54.1481110000000001
20
-67.8224609999999899
11
54.1481119999999976
21
-67.8224620000000016
0
LINE
8
BLACK
6
CONTINUOUS
10
54.1481119999999976
20
-67.8224620000000016
11
56.5252319999999955
21
-66.4540810000000022
0
LINE
8
BLACK
6
CONTINUOUS
10
56.5252319999999955
20
-66.4540810000000022
11
58.9206280000000007
21
-65.1179489999999959
0
LINE
8
BLACK
6
CONTINUOUS
10
58.9206280000000007
20
-65.1179489999999959
11
61.3338619999999963
21
-63.8143109999999965
0
LINE
8
BLACK
6
CONTINUOUS
10
61.3338619999999963
20
-63.8143109999999965
11
63.7644929999999945
21
-62.5434059999999974
0
LINE
8
BLACK
6
CONTINUOUS
10
63.7644929999999945
20
-62.5434059999999974
11
66.2120769999999936
21
-61.3054640000000006
0
LINE
8
BLACK
6
CONTINUOUS
10
66.2120769999999936
20
-61.3054640000000006
11
68.6761679999999899
21
-60.1007119999999944
0
LINE
8
BLACK
6
CONTINUOUS
10
68.6761679999999899
20
-60.1007119999999944
11
71.1563139999999947
21
-58.9293699999999987
0
LINE
8
BLACK
6
CONTINUOUS
10
71.1563139999999947
20
-58.9293699999999987
11
73.6520639999999958
21
-57.7916529999999966
0
LINE
8
BLACK
6
CONTINUOUS
10
73.6520639999999958
20
-57.7916529999999966
11
76.1629619999999932
21
-56.6877670000000009
0
LINE
8
BLACK
6
CONTINUOUS
10
76.1629619999999932
20
-56.6877670000000009
11
78.6885479999999973
21
-55.6179149999999964
0
LINE
8
BLACK
6
CONTINUOUS
10
78.6885479999999973
20
-55.6179149999999964
11
81.2283609999999925
21
-54.5822909999999979
0
LINE
8
BLACK
6
CONTINUOUS
10
81.2283609999999925
20
-54.5822909999999979
11
83.7819389999999942
21
-53.5810859999999991
0
LINE
8
BLACK
6
CONTINUOUS
10
83.7819389999999942
20
-53.5810859999999991
11
86.3488129999999927
21
-52.6144819999999953
0
LINE
8
BLACK
6
CONTINUOUS
10
86.3488129999999927
20
-52.6144819999999953
11
88.9285160000000019
21
-51.6826549999999969
0
LINE
8
BLACK
6
CONTINUOUS
10
88.9285160000000019
20
-51.6826549999999969
11
91.5205759999999913
21
-50.785775000000001
0
LINE
8
BLACK
6
CONTINUOUS
10
91.5205759999999913
20
-50.785775000000001
11
94.1245210000000014
21
-49.924006999999996
0
LINE
8
BLACK
6
CONTINUOUS
10
94.1245210000000014
20
-49.924006999999996
11
96.7398729999999887
21
-49.0975079999999977
0
LINE
8
BLACK
6
CONTINUOUS
10
96.7398729999999887
20
-49.0975079999999977
11
99.3661559999999895
21
-48.3064289999999943
0
LINE
8
BLACK
6
CONTINUOUS
10
99.3661559999999895
20
-48.3064289999999943
11
102.0028899999999936
21
-47.5509139999999988
0
LINE
8
BLACK
6
CONTINUOUS
10
102.0028899999999936
20
-47.5509139999999988
11
104.6495929999999959
21
-46.8311009999999968
0
LINE
8
BLACK
6
CONTINUOUS
10
104.6495929999999959
20
-46.8311009999999968
11
107.305782999999991
21
-46.147121999999996
0
LINE
8
BLACK
6
CONTINUOUS
10
107.305782999999991
20
-46.147121999999996
11
109.9709730000000008
21
-45.499100999999996
0
LINE
8
BLACK
6
CONTINUOUS
10
109.9709730000000008
20
-45.499100999999996
11
112.6446770000000015
21
-44.8871579999999994
0
LINE
8
BLACK
6
CONTINUOUS
10
112.6446770000000015
20
-44.8871579999999994
11
115.326406999999989
21
-44.3114029999999985
0
LINE
8
BLACK
6
CONTINUOUS
10
115.326406999999989
20
-44.3114029999999985
11
118.0156729999999925
21
-43.7719419999999957
0
LINE
8
BLACK
6
CONTINUOUS
10
118.0156729999999925
20
-43.7719419999999957
11
120.7119840000000011
21
-43.2688739999999967
0
LINE
8
BLACK
6
CONTINUOUS
10
120.7119840000000011
20
-43.2688739999999967
11
123.4148469999999946
21
-42.8022899999999993
0
LINE
8
BLACK
6
CONTINUOUS
10
123.4148469999999946
20
-42.8022899999999993
11
126.1237679999999983
21
-42.3722749999999948
0
LINE
8
BLACK
6
CONTINUOUS
10
126.1237679999999983
20
-42.3722749999999948
11
128.8382540000000063
21
-41.9789090000000016
0
LINE
8
BLACK
6
CONTINUOUS
10
128.8382540000000063
20
-41.9789090000000016
11
131.5578069999999968
21
-41.6222619999999992
0
LINE
8
BLACK
6
CONTINUOUS
10
131.5578069999999968
20
-41.6222619999999992
11
131.5578069999999968
21
-41.6222569999999976
0
LINE
8
BLACK
6
CONTINUOUS
10
131.5578069999999968
20
-41.6222569999999976
11
131.5715469999999812
21
-41.6249059999999957
0
LINE
8
BLACK
6
CONTINUOUS
10
130.2098289999999849
20
-41.8905519999999996
11
127.494023999999996
21
-42.265391000000001
0
LINE
8
BLACK
6
CONTINUOUS
10
127.494023999999996
20
-42.265391000000001
11
124.7835329999999914
21
-42.6768969999999968
0
LINE
8
BLACK
6
CONTINUOUS
10
124.7835329999999914
20
-42.6768969999999968
11
122.0788499999999885
21
-43.1249959999999959
0
LINE
8
BLACK
6
CONTINUOUS
10
122.0788499999999885
20
-43.1249959999999959
11
119.3804699999999883
21
-43.6096049999999948
0
LINE
8
BLACK
6
CONTINUOUS
10
119.3804699999999883
20
-43.6096049999999948
11
116.6888859999999966
21
-44.1306370000000001
0
LINE
8
BLACK
6
CONTINUOUS
10
116.6888859999999966
20
-44.1306370000000001
11
114.0045889999999957
21
-44.6879950000000008
0
LINE
8
BLACK
6
CONTINUOUS
10
114.0045889999999957
20
-44.6879950000000008
11
111.3280689999999993
21
-45.2815790000000007
0
LINE
8
BLACK
6
CONTINUOUS
10
111.3280689999999993
20
-45.2815790000000007
11
108.6598149999999947
21
-45.9112790000000004
0
LINE
8
BLACK
6
CONTINUOUS
10
108.6598149999999947
20
-45.9112790000000004
11
106.0003150000000005
21
-46.5769809999999964
0
LINE
8
BLACK
6
CONTINUOUS
10
106.0003150000000005
20
-46.5769809999999964
11
103.3500540000000001
21
-47.2785639999999958
0
LINE
8
BLACK
6
CONTINUOUS
10
103.3500540000000001
20
-47.2785639999999958
11
100.7095159999999936
21
-48.015898
0
LINE
8
BLACK
6
CONTINUOUS
10
100.7095159999999936
20
-48.015898
11
98.0791839999999979
21
-48.788848999999999
0
LINE
8
BLACK
6
CONTINUOUS
10
98.0791839999999979
20
-48.788848999999999
11
95.4595379999999949
21
-49.5972769999999983
0
LINE
8
BLACK
6
CONTINUOUS
10
95.4595379999999949
20
-49.5972769999999983
11
92.8510569999999973
21
-50.4410329999999973
0
LINE
8
BLACK
6
CONTINUOUS
10
92.8510569999999973
20
-50.4410329999999973
11
90.2542159999999996
21
-51.3199629999999942
0
LINE
8
BLACK
6
CONTINUOUS
10
90.2542159999999996
20
-51.3199629999999942
11
87.6694909999999936
21
-52.2339079999999996
0
LINE
8
BLACK
6
CONTINUOUS
10
87.6694909999999936
20
-52.2339079999999996
11
85.0973520000000008
21
-53.1826989999999995
0
LINE
8
BLACK
6
CONTINUOUS
10
85.0973520000000008
20
-53.1826989999999995
11
82.5382709999999946
21
-54.1661639999999949
0
LINE
8
BLACK
6
CONTINUOUS
10
82.5382709999999946
20
-54.1661639999999949
11
79.9927139999999923
21
-55.1841229999999996
0
LINE
8
BLACK
6
CONTINUOUS
10
79.9927139999999923
20
-55.1841229999999996
11
77.4611469999999969
21
-56.2363900000000001
0
LINE
8
BLACK
6
CONTINUOUS
10
77.4611469999999969
20
-56.2363900000000001
11
74.9440309999999954
21
-57.322772999999998
0
LINE
8
BLACK
6
CONTINUOUS
10
74.9440309999999954
20
-57.322772999999998
11
72.4418259999999918
21
-58.4430739999999957
0
LINE
8
BLACK
6
CONTINUOUS
10
72.4418259999999918
20
-58.4430739999999957
11
69.9549899999999951
21
-59.5970869999999948
0
LINE
8
BLACK
6
CONTINUOUS
10
69.9549899999999951
20
-59.5970869999999948
11
67.4839769999999959
21
-60.7846029999999971
0
LINE
8
BLACK
6
CONTINUOUS
10
67.4839769999999959
20
-60.7846029999999971
11
65.0292379999999923
21
-62.0054039999999986
0
LINE
8
BLACK
6
CONTINUOUS
10
65.0292379999999923
20
-62.0054039999999986
11
62.5912199999999999
21
-63.2592669999999941
0
LINE
8
BLACK
6
CONTINUOUS
10
62.5912199999999999
20
-63.2592669999999941
11
60.1703709999999958
21
-64.5459630000000004
0
LINE
8
BLACK
6
CONTINUOUS
10
60.1703709999999958
20
-64.5459630000000004
11
57.7671309999999991
21
-65.8652579999999972
0
LINE
8
BLACK
6
CONTINUOUS
10
57.7671309999999991
20
-65.8652579999999972
11
55.3819400000000002
21
-67.2169090000000011
0
LINE
8
BLACK
6
CONTINUOUS
10
55.3819400000000002
20
-67.2169090000000011
11
54.2233479999999943
21
-67.8943099999999902
0
LINE
8
BLACK
6
CONTINUOUS
10
54.2233479999999943
20
-67.8943099999999902
11
54.2233479999999943
21
-126.3968749999999943
0
LINE
8
BLACK
6
CONTINUOUS
10
54.2233479999999943
20
-126.3968749999999943
11
54.2233239999999981
21
-126.3969899999999882
0
LINE
8
BLACK
6
CONTINUOUS
10
54.2233239999999981
20
-126.3969899999999882
11
54.2233230000000006
21
-126.4799919999999958
0
LINE
8
BLACK
6
CONTINUOUS
10
54.2233230000000006
20
-126.4799919999999958
11
54.2521859999999947
21
-126.643698999999998
0
LINE
8
BLACK
6
CONTINUOUS
10
54.2521859999999947
20
-126.643698999999998
11
54.3090389999999985
21
-126.7999059999999929
0
LINE
8
BLACK
6
CONTINUOUS
10
54.3090389999999985
20
-126.7999059999999929
11
54.3921549999999954
21
-126.9438669999999973
0
LINE
8
BLACK
6
CONTINUOUS
10
54.3921549999999954
20
-126.9438669999999973
11
54.4990079999999963
21
-127.0712079999999986
0
LINE
8
BLACK
6
CONTINUOUS
10
54.4990079999999963
20
-127.0712079999999986
11
54.6263509999999997
21
-127.1780569999999955
0
LINE
8
BLACK
6
CONTINUOUS
10
54.6263509999999997
20
-127.1780569999999955
11
54.7703129999999945
21
-127.2611699999999928
0
LINE
8
BLACK
6
CONTINUOUS
10
54.7703129999999945
20
-127.2611699999999928
11
54.9265219999999985
21
-127.31801999999999
0
LINE
8
BLACK
6
CONTINUOUS
10
54.9265219999999985
20
-127.31801999999999
11
55.0902299999999983
21
-127.3468790000000013
0
LINE
8
BLACK
6
CONTINUOUS
10
55.0902299999999983
20
-127.3468790000000013
11
55.1733459999999951
21
-127.3468749999999972
0
LINE
8
BLACK
6
CONTINUOUS
10
55.1733459999999951
20
-127.3468749999999972
11
55.1733479999999972
21
-127.3468749999999972
0
LINE
8
BLACK
6
CONTINUOUS
10
55.1733479999999972
20
-127.3468749999999972
11
74.4139729999999986
21
-127.3468749999999972
0
LINE
8
BLACK
6
CONTINUOUS
10
74.4139729999999986
20
-127.3468749999999972
11
74.4140919999999966
21
-127.3468979999999959
0
LINE
8
BLACK
6
CONTINUOUS
10
74.4140919999999966
20
-127.3468979999999959
11
74.4141659999999945
21
-127.3468749999999972
0
LINE
8
BLACK
6
CONTINUOUS
10
74.4141659999999945
20
-127.3468749999999972
11
74.4141659999999945
21
-127.3468759999999946
0
LINE
8
BLACK
6
CONTINUOUS
10
74.4141659999999945
20
-127.3468759999999946
11
78.0430159999999944
21
-127.379092
0
LINE
8
BLACK
6
CONTINUOUS
10
78.0430159999999944
20
-127.379092
11
81.6713599999999929
21
-127.4477049999999991
0
LINE
8
BLACK
6
CONTINUOUS
10
81.6713599999999929
20
-127.4477049999999991
11
85.2988330000000019
21
-127.5527079999999955
0
LINE
8
BLACK
6
CONTINUOUS
10
85.2988330000000019
20
-127.5527079999999955
11
88.925069999999991
21
-127.6940899999999885
0
LINE
8
BLACK
6
CONTINUOUS
10
88.925069999999991
20
-127.6940899999999885
11
92.5497069999999979
21
-127.8718379999999968
0
LINE
8
BLACK
6
CONTINUOUS
10
92.5497069999999979
20
-127.8718379999999968
11
96.1723789999999923
21
-128.0859319999999855
0
LINE
8
BLACK
6
CONTINUOUS
10
96.1723789999999923
20
-128.0859319999999855
11
99.7927210000000002
21
-128.3363510000000076
0
LINE
8
BLACK
6
CONTINUOUS
10
99.7927210000000002
20
-128.3363510000000076
11
103.4103689999999887
21
-128.6230720000000076
0
LINE
8
BLACK
6
CONTINUOUS
10
103.4103689999999887
20
-128.6230720000000076
11
107.024959999999993
21
-128.946062999999981
0
LINE
8
BLACK
6
CONTINUOUS
10
107.024959999999993
20
-128.946062999999981
11
110.6361289999999968
21
-129.3052940000000035
0
LINE
8
BLACK
6
CONTINUOUS
10
110.6361289999999968
20
-129.3052940000000035
11
114.243512999999993
21
-129.7007270000000005
0
LINE
8
BLACK
6
CONTINUOUS
10
114.243512999999993
20
-129.7007270000000005
11
117.8467489999999884
21
-130.1323239999999828
0
LINE
8
BLACK
6
CONTINUOUS
10
117.8467489999999884
20
-130.1323239999999828
11
121.4454749999999876
21
-130.600040000000007
0
LINE
8
BLACK
6
CONTINUOUS
10
121.4454749999999876
20
-130.600040000000007
11
125.0393289999999951
21
-131.1038289999999904
0
LINE
8
BLACK
6
CONTINUOUS
10
125.0393289999999951
20
-131.1038289999999904
11
128.6279480000000035
21
-131.6436400000000049
0
LINE
8
BLACK
6
CONTINUOUS
10
128.6279480000000035
20
-131.6436400000000049
11
132.2109729999999956
21
-132.2194179999999903
0
LINE
8
BLACK
6
CONTINUOUS
10
132.2109729999999956
20
-132.2194179999999903
11
135.7880429999999876
21
-132.8311060000000055
0
LINE
8
BLACK
6
CONTINUOUS
10
135.7880429999999876
20
-132.8311060000000055
11
139.3587969999999814
21
-133.4786420000000078
0
LINE
8
BLACK
6
CONTINUOUS
10
139.3587969999999814
20
-133.4786420000000078
11
142.9228760000000023
21
-134.1619619999999884
0
LINE
8
BLACK
6
CONTINUOUS
10
142.9228760000000023
20
-134.1619619999999884
11
146.4799219999999877
21
-134.8809949999999844
0
LINE
8
BLACK
6
CONTINUOUS
10
146.4799219999999877
20
-134.8809949999999844
11
150.0295779999999866
21
-135.6356700000000046
0
LINE
8
BLACK
6
CONTINUOUS
10
150.0295779999999866
20
-135.6356700000000046
11
153.5714849999999956
21
-136.4259119999999825
0
LINE
8
BLACK
6
CONTINUOUS
10
153.5714849999999956
20
-136.4259119999999825
11
157.1052870000000041
21
-137.2516399999999805
0
LINE
8
BLACK
6
CONTINUOUS
10
157.1052870000000041
20
-137.2516399999999805
11
160.6306299999999965
21
-138.1127709999999809
0
LINE
8
BLACK
6
CONTINUOUS
10
160.6306299999999965
20
-138.1127709999999809
11
164.1471579999999904
21
-139.0092190000000016
0
LINE
8
BLACK
6
CONTINUOUS
10
164.1471579999999904
20
-139.0092190000000016
11
167.6545169999999985
21
-139.9408929999999884
0
LINE
8
BLACK
6
CONTINUOUS
10
167.6545169999999985
20
-139.9408929999999884
11
171.152355
21
-140.907701000000003
0
LINE
8
BLACK
6
CONTINUOUS
10
171.152355
20
-140.907701000000003
11
174.6403200000000027
21
-141.9095439999999826
0
LINE
8
BLACK
6
CONTINUOUS
10
174.6403200000000027
20
-141.9095439999999826
11
178.1180599999999856
21
-142.9463219999999808
0
LINE
8
BLACK
6
CONTINUOUS
10
178.1180599999999856
20
-142.9463219999999808
11
181.5404369999999972
21
-144.0040860000000009
0
LINE
8
BLACK
6
CONTINUOUS
10
181.5404369999999972
20
-144.0040860000000009
11
182.1733209999999872
21
-142.3696620000000053
0
LINE
8
BLACK
6
CONTINUOUS
10
182.1733209999999872
20
-142.3696620000000053
11
182.8575519999999983
21
-140.7049719999999979
0
LINE
8
BLACK
6
CONTINUOUS
10
182.8575519999999983
20
-140.7049719999999979
11
183.5758179999999982
21
-139.054680999999988
0
LINE
8
BLACK
6
CONTINUOUS
10
183.5758179999999982
20
-139.054680999999988
11
184.3278159999999843
21
-137.4194860000000062
0
LINE
8
BLACK
6
CONTINUOUS
10
184.3278159999999843
20
-137.4194860000000062
11
185.1132289999999898
21
-135.8000749999999925
0
LINE
8
BLACK
6
CONTINUOUS
10
185.1132289999999898
20
-135.8000749999999925
11
185.9317269999999951
21
-134.1971319999999821
0
LINE
8
BLACK
6
CONTINUOUS
10
185.9317269999999951
20
-134.1971319999999821
11
186.7829629999999952
21
-132.6113320000000044
0
LINE
8
BLACK
6
CONTINUOUS
10
186.7829629999999952
20
-132.6113320000000044
11
187.6665789999999845
21
-131.043342999999993
0
LINE
8
BLACK
6
CONTINUOUS
10
187.6665789999999845
20
-131.043342999999993
11
188.5822019999999952
21
-129.4938280000000077
0
LINE
8
BLACK
6
CONTINUOUS
10
188.5822019999999952
20
-129.4938280000000077
11
189.5294480000000021
21
-127.9634379999999965
0
LINE
8
BLACK
6
CONTINUOUS
10
189.5294480000000021
20
-127.9634379999999965
11
190.507914999999997
21
-126.4528199999999885
0
LINE
8
BLACK
6
CONTINUOUS
10
190.507914999999997
20
-126.4528199999999885
11
191.5171909999999968
21
-124.962609999999998
0
LINE
8
BLACK
6
CONTINUOUS
10
191.5171909999999968
20
-124.962609999999998
11
192.5568519999999921
21
-123.4934370000000001
0
LINE
8
BLACK
6
CONTINUOUS
10
192.5568519999999921
20
-123.4934370000000001
11
193.6264589999999828
21
-122.0459189999999978
0
LINE
8
BLACK
6
CONTINUOUS
10
193.6264589999999828
20
-122.0459189999999978
11
194.7255600000000015
21
-120.6206679999999949
0
LINE
8
BLACK
6
CONTINUOUS
10
194.7255600000000015
20
-120.6206679999999949
11
195.8536929999999927
21
-119.2182829999999996
0
LINE
8
BLACK
6
CONTINUOUS
10
195.8536929999999927
20
-119.2182829999999996
11
196.971589999999992
21
-117.8855999999999966
0
LINE
8
BLACK
6
CONTINUOUS
10
196.971589999999992
20
-117.8855999999999966
11
188.6891660000000002
21
-113.1527869999999893
0
LINE
8
BLACK
6
CONTINUOUS
10
188.6891660000000002
20
-113.1527869999999893
11
188.6744410000000016
21
-113.1399899999999974
0
LINE
8
BLACK
6
CONTINUOUS
10
188.6744410000000016
20
-113.1399899999999974
11
188.6726329999999905
21
-113.1333629999999886
0
LINE
8
BLACK
6
CONTINUOUS
10
188.6726329999999905
20
-113.1333629999999886
11
188.6677789999999959
21
-113.128508999999994
0
LINE
8
BLACK
6
CONTINUOUS
10
188.6677789999999959
20
-113.128508999999994
11
188.6639729999999986
21
-113.109375
0
LINE
8
BLACK
6
CONTINUOUS
10
188.6639729999999986
20
-113.109375
11
188.6639729999999986
21
-54.8179779999999965
0
LINE
8
BLACK
6
CONTINUOUS
10
188.6639729999999986
20
-54.8179779999999965
11
186.4400329999999997
21
-54.7835019999999986
0
LINE
8
BLACK
6
CONTINUOUS
10
186.4400329999999997
20
-54.7835019999999986
11
184.1673590000000047
21
-54.7101070000000007
0
LINE
8
BLACK
6
CONTINUOUS
10
184.1673590000000047
20
-54.7101070000000007
11
181.8962379999999825
21
-54.5985849999999999
0
LINE
8
BLACK
6
CONTINUOUS
10
181.8962379999999825
20
-54.5985849999999999
11
179.6273070000000018
21
-54.4489659999999986
0
LINE
8
BLACK
6
CONTINUOUS
10
179.6273070000000018
20
-54.4489659999999986
11
177.361206999999979
21
-54.2612919999999974
0
LINE
8
BLACK
6
CONTINUOUS
10
177.361206999999979
20
-54.2612919999999974
11
175.09857599999998
21
-54.0356169999999949
0
LINE
8
BLACK
6
CONTINUOUS
10
175.09857599999998
20
-54.0356169999999949
11
172.8400499999999909
21
-53.7720039999999955
0
LINE
8
BLACK
6
CONTINUOUS
10
172.8400499999999909
20
-53.7720039999999955
11
170.5862659999999948
21
-53.470526999999997
0
LINE
8
BLACK
6
CONTINUOUS
10
170.5862659999999948
20
-53.470526999999997
11
168.3378579999999829
21
-53.1312709999999981
0
LINE
8
BLACK
6
CONTINUOUS
10
168.3378579999999829
20
-53.1312709999999981
11
166.0954600000000028
21
-52.754331999999998
0
LINE
8
BLACK
6
CONTINUOUS
10
166.0954600000000028
20
-52.754331999999998
11
163.8597039999999936
21
-52.339815999999999
0
LINE
8
BLACK
6
CONTINUOUS
10
163.8597039999999936
20
-52.339815999999999
11
161.6312179999999898
21
-51.8878389999999996
0
LINE
8
BLACK
6
CONTINUOUS
10
161.6312179999999898
20
-51.8878389999999996
11
159.4106309999999951
21
-51.3985289999999964
0
LINE
8
BLACK
6
CONTINUOUS
10
159.4106309999999951
20
-51.3985289999999964
11
157.1985679999999945
21
-50.8720239999999961
0
LINE
8
BLACK
6
CONTINUOUS
10
157.1985679999999945
20
-50.8720239999999961
11
154.9956520000000069
21
-50.3084719999999948
0
LINE
8
BLACK
6
CONTINUOUS
10
154.9956520000000069
20
-50.3084719999999948
11
152.8025030000000015
21
-49.7080309999999983
0
LINE
8
BLACK
6
CONTINUOUS
10
152.8025030000000015
20
-49.7080309999999983
11
150.6197389999999814
21
-49.0708719999999943
0
LINE
8
BLACK
6
CONTINUOUS
10
150.6197389999999814
20
-49.0708719999999943
11
148.4479749999999854
21
-48.3971719999999976
0
LINE
8
BLACK
6
CONTINUOUS
10
148.4479749999999854
20
-48.3971719999999976
11
146.2878220000000056
21
-47.6871229999999997
0
LINE
8
BLACK
6
CONTINUOUS
10
146.2878220000000056
20
-47.6871229999999997
11
144.1398889999999824
21
-46.940922999999998
0
LINE
8
BLACK
6
CONTINUOUS
10
144.1398889999999824
20
-46.940922999999998
11
142.0047799999999825
21
-46.1587839999999971
0
LINE
8
BLACK
6
CONTINUOUS
10
142.0047799999999825
20
-46.1587839999999971
11
139.8830969999999922
21
-45.3409240000000011
0
LINE
8
BLACK
6
CONTINUOUS
10
139.8830969999999922
20
-45.3409240000000011
11
137.7754379999999799
21
-44.4875759999999971
0
LINE
8
BLACK
6
CONTINUOUS
10
137.7754379999999799
20
-44.4875759999999971
11
135.6823959999999829
21
-43.5989789999999999
0
LINE
8
BLACK
6
CONTINUOUS
10
135.6823959999999829
20
-43.5989789999999999
11
133.6045599999999922
21
-42.675381999999999
0
LINE
8
BLACK
6
CONTINUOUS
10
133.6045599999999922
20
-42.675381999999999
11
131.5559020000000032
21
-41.7232679999999974
0
LINE
8
BLACK
6
CONTINUOUS
10
131.5559020000000032
20
-41.7232679999999974
11
130.2098289999999849
21
-41.8905519999999996
  0
ENDSEC
  0
EOF
