  0
SECTION
  2
HEADER
  9
$ANGBASE
  50
0.0
  9
$ANGDIR
  70
1
  9
$MEASUREMENT
  70
1
  0
ENDSEC
  0
SECTION
  2
TABLES
  0
TABLE
  2
LTYPE
  70
4
  0
LTYPE
  5
40F
  2
CONTINUOUS
  70
0
  3
Solid line
  72
65
  73
0
  40
0.0
  0
LTYPE
  5
410
  2
DASHDOT
 70
0
  3
Dash Dot ____ _ ____ _
 72
65
 73
4
 40
2.0
 49
1.25
 49
-0.25
 49
0.25
 49
-0.25
  0
LTYPE
  5
411
  2
DASHED
 70
0
  3
Dashed __ __ __ __ __
 72
65
 73
2
 40
0.75
 49
0.5
 49
-0.25
  0
LTYPE
  5
43B
  2
DOTTED
 70
0
  3
Dotted .  .  .  .
 72
65
 73
2
 40
0.2
 49
0.0
 49
-0.2
  0
ENDTAB
  0
TABLE
  2
STYLE
  70
4
  0
STYLE
  2
KICAD
  70
0
  40
0
  41
1
  42
1
  50
0
  71
0
  3
isocp.shx
  0
STYLE
  2
KICADB
  70
0
  40
0
  41
1
  42
1
  50
0
  71
0
  3
isocp.shx
  0
STYLE
  2
KICADI
  70
0
  40
0
  41
1
  42
1
  50
15
  71
0
  3
isocp.shx
  0
STYLE
  2
KICADBI
  70
0
  40
0
  41
1
  42
1
  50
15
  71
0
  3
isocp.shx
  0
ENDTAB
  0
TABLE
  2
LAYER
  70
1
  0
LAYER
  2
BLACK
  70
0
  62
7
  6
CONTINUOUS
  0
ENDTAB
  0
ENDSEC
  0
SECTION
  2
ENTITIES
0
LINE
8
BLACK
6
CONTINUOUS
10
160.4472409999999911
20
-134.8400049999999908
11
160.6408260000000041
21
-134.914999999999992
0
LINE
8
BLACK
6
CONTINUOUS
10
160.6408260000000041
20
-134.914999999999992
11
160.8173339999999882
21
-135.0242900000000077
0
LINE
8
BLACK
6
CONTINUOUS
10
160.8173339999999882
20
-135.0242900000000077
11
160.9707549999999969
21
-135.1641510000000039
0
LINE
8
BLACK
6
CONTINUOUS
10
160.9707549999999969
20
-135.1641510000000039
11
161.0958640000000059
21
-135.3298230000000046
0
LINE
8
BLACK
6
CONTINUOUS
10
161.0958640000000059
20
-135.3298230000000046
11
161.1884009999999989
21
-135.5156619999999918
0
LINE
8
BLACK
6
CONTINUOUS
10
161.1884009999999989
20
-135.5156619999999918
11
161.2452150000000017
21
-135.7153409999999951
0
LINE
8
BLACK
6
CONTINUOUS
10
161.2452150000000017
20
-135.7153409999999951
11
161.2643699999999853
21
-135.9220589999999902
0
LINE
8
BLACK
6
CONTINUOUS
10
161.2643699999999853
20
-135.9220589999999902
11
161.2452150000000017
21
-136.1287769999999853
0
LINE
8
BLACK
6
CONTINUOUS
10
161.2452150000000017
20
-136.1287769999999853
11
161.1884009999999989
21
-136.3284559999999885
0
LINE
8
BLACK
6
CONTINUOUS
10
161.1884009999999989
20
-136.3284559999999885
11
161.0958640000000059
21
-136.5142950000000042
0
LINE
8
BLACK
6
CONTINUOUS
10
161.0958640000000059
20
-136.5142950000000042
11
160.9707549999999969
21
-136.6799670000000049
0
LINE
8
BLACK
6
CONTINUOUS
10
160.9707549999999969
20
-136.6799670000000049
11
160.8173339999999882
21
-136.8198280000000011
0
LINE
8
BLACK
6
CONTINUOUS
10
160.8173339999999882
20
-136.8198280000000011
11
160.6408260000000041
21
-136.9291179999999883
0
LINE
8
BLACK
6
CONTINUOUS
10
160.6408260000000041
20
-136.9291179999999883
11
160.4472409999999911
21
-137.0041129999999896
0
LINE
8
BLACK
6
CONTINUOUS
10
160.4472409999999911
20
-137.0041129999999896
11
160.2431719999999871
21
-137.0422599999999989
0
LINE
8
BLACK
6
CONTINUOUS
10
160.2431719999999871
20
-137.0422599999999989
11
160.0355679999999836
21
-137.0422599999999989
0
LINE
8
BLACK
6
CONTINUOUS
10
160.0355679999999836
20
-137.0422599999999989
11
159.8314989999999796
21
-137.0041129999999896
0
LINE
8
BLACK
6
CONTINUOUS
10
159.8314989999999796
20
-137.0041129999999896
11
159.637913999999995
21
-136.9291179999999883
0
LINE
8
BLACK
6
CONTINUOUS
10
159.637913999999995
20
-136.9291179999999883
11
159.4614059999999824
21
-136.8198280000000011
0
LINE
8
BLACK
6
CONTINUOUS
10
159.4614059999999824
20
-136.8198280000000011
11
159.3079850000000022
21
-136.6799670000000049
0
LINE
8
BLACK
6
CONTINUOUS
10
159.3079850000000022
20
-136.6799670000000049
11
159.1828759999999932
21
-136.5142950000000042
0
LINE
8
BLACK
6
CONTINUOUS
10
159.1828759999999932
20
-136.5142950000000042
11
159.0903390000000002
21
-136.3284559999999885
0
LINE
8
BLACK
6
CONTINUOUS
10
159.0903390000000002
20
-136.3284559999999885
11
159.0335249999999974
21
-136.1287769999999853
0
LINE
8
BLACK
6
CONTINUOUS
10
159.0335249999999974
20
-136.1287769999999853
11
159.0143699999999853
21
-135.9220589999999902
0
LINE
8
BLACK
6
CONTINUOUS
10
159.0143699999999853
20
-135.9220589999999902
11
159.0335249999999974
21
-135.7153409999999951
0
LINE
8
BLACK
6
CONTINUOUS
10
159.0335249999999974
20
-135.7153409999999951
11
159.0903390000000002
21
-135.5156619999999918
0
LINE
8
BLACK
6
CONTINUOUS
10
159.0903390000000002
20
-135.5156619999999918
11
159.1828759999999932
21
-135.3298230000000046
0
LINE
8
BLACK
6
CONTINUOUS
10
159.1828759999999932
20
-135.3298230000000046
11
159.3079850000000022
21
-135.1641510000000039
0
LINE
8
BLACK
6
CONTINUOUS
10
159.3079850000000022
20
-135.1641510000000039
11
159.4614059999999824
21
-135.0242900000000077
0
LINE
8
BLACK
6
CONTINUOUS
10
159.4614059999999824
20
-135.0242900000000077
11
159.637913999999995
21
-134.914999999999992
0
LINE
8
BLACK
6
CONTINUOUS
10
159.637913999999995
20
-134.914999999999992
11
159.8314989999999796
21
-134.8400049999999908
0
LINE
8
BLACK
6
CONTINUOUS
10
159.8314989999999796
20
-134.8400049999999908
11
160.0355679999999836
21
-134.8018579999999815
0
LINE
8
BLACK
6
CONTINUOUS
10
160.0355679999999836
20
-134.8018579999999815
11
160.2431719999999871
21
-134.8018579999999815
0
LINE
8
BLACK
6
CONTINUOUS
10
160.2431719999999871
20
-134.8018579999999815
11
160.4472409999999911
21
-134.8400049999999908
0
LINE
8
BLACK
6
CONTINUOUS
10
159.0781470000000013
20
-136.1204359999999838
11
159.1326679999999953
21
-136.3120569999999816
0
LINE
8
BLACK
6
CONTINUOUS
10
159.1326679999999953
20
-136.3120569999999816
11
159.2214709999999798
21
-136.490397999999999
0
LINE
8
BLACK
6
CONTINUOUS
10
159.2214709999999798
20
-136.490397999999999
11
159.3415320000000008
21
-136.6493839999999977
0
LINE
8
BLACK
6
CONTINUOUS
10
159.3415320000000008
20
-136.6493839999999977
11
159.4887630000000058
21
-136.7836020000000019
0
LINE
8
BLACK
6
CONTINUOUS
10
159.4887630000000058
20
-136.7836020000000019
11
159.6581489999999803
21
-136.888481999999982
0
LINE
8
BLACK
6
CONTINUOUS
10
159.6581489999999803
20
-136.888481999999982
11
159.8439219999999921
21
-136.9604510000000062
0
LINE
8
BLACK
6
CONTINUOUS
10
159.8439219999999921
20
-136.9604510000000062
11
160.0397569999999803
21
-136.9970590000000072
0
LINE
8
BLACK
6
CONTINUOUS
10
160.0397569999999803
20
-136.9970590000000072
11
160.2389829999999904
21
-136.9970590000000072
0
LINE
8
BLACK
6
CONTINUOUS
10
160.2389829999999904
20
-136.9970590000000072
11
160.4348179999999786
21
-136.9604510000000062
0
LINE
8
BLACK
6
CONTINUOUS
10
160.4348179999999786
20
-136.9604510000000062
11
160.6205909999999903
21
-136.888481999999982
0
LINE
8
BLACK
6
CONTINUOUS
10
160.6205909999999903
20
-136.888481999999982
11
160.7899769999999933
21
-136.7836020000000019
0
LINE
8
BLACK
6
CONTINUOUS
10
160.7899769999999933
20
-136.7836020000000019
11
160.9372079999999983
21
-136.6493839999999977
0
LINE
8
BLACK
6
CONTINUOUS
10
160.9372079999999983
20
-136.6493839999999977
11
161.0572689999999909
21
-136.490397999999999
0
LINE
8
BLACK
6
CONTINUOUS
10
161.0572689999999909
20
-136.490397999999999
11
161.1460720000000038
21
-136.3120569999999816
0
LINE
8
BLACK
6
CONTINUOUS
10
161.1460720000000038
20
-136.3120569999999816
11
161.2005929999999978
21
-136.1204359999999838
0
LINE
8
BLACK
6
CONTINUOUS
10
161.2005929999999978
20
-136.1204359999999838
11
161.2189750000000004
21
-135.9220589999999902
0
LINE
8
BLACK
6
CONTINUOUS
10
161.2189750000000004
20
-135.9220589999999902
11
161.2005929999999978
21
-135.7236819999999966
0
LINE
8
BLACK
6
CONTINUOUS
10
161.2005929999999978
20
-135.7236819999999966
11
161.1460720000000038
21
-135.5320609999999988
0
LINE
8
BLACK
6
CONTINUOUS
10
161.1460720000000038
20
-135.5320609999999988
11
161.0572689999999909
21
-135.3537199999999814
0
LINE
8
BLACK
6
CONTINUOUS
10
161.0572689999999909
20
-135.3537199999999814
11
160.9372079999999983
21
-135.1947339999999826
0
LINE
8
BLACK
6
CONTINUOUS
10
160.9372079999999983
20
-135.1947339999999826
11
160.7899769999999933
21
-135.0605160000000069
0
LINE
8
BLACK
6
CONTINUOUS
10
160.7899769999999933
20
-135.0605160000000069
11
160.6205909999999903
21
-134.9556359999999984
0
LINE
8
BLACK
6
CONTINUOUS
10
160.6205909999999903
20
-134.9556359999999984
11
160.4348179999999786
21
-134.8836670000000026
0
LINE
8
BLACK
6
CONTINUOUS
10
160.4348179999999786
20
-134.8836670000000026
11
160.2389829999999904
21
-134.8470590000000016
0
LINE
8
BLACK
6
CONTINUOUS
10
160.2389829999999904
20
-134.8470590000000016
11
160.0397569999999803
21
-134.8470590000000016
0
LINE
8
BLACK
6
CONTINUOUS
10
160.0397569999999803
20
-134.8470590000000016
11
159.8439219999999921
21
-134.8836670000000026
0
LINE
8
BLACK
6
CONTINUOUS
10
159.8439219999999921
20
-134.8836670000000026
11
159.6581489999999803
21
-134.9556359999999984
0
LINE
8
BLACK
6
CONTINUOUS
10
159.6581489999999803
20
-134.9556359999999984
11
159.4887630000000058
21
-135.0605160000000069
0
LINE
8
BLACK
6
CONTINUOUS
10
159.4887630000000058
20
-135.0605160000000069
11
159.3415320000000008
21
-135.1947339999999826
0
LINE
8
BLACK
6
CONTINUOUS
10
159.3415320000000008
20
-135.1947339999999826
11
159.2214709999999798
21
-135.3537199999999814
0
LINE
8
BLACK
6
CONTINUOUS
10
159.2214709999999798
20
-135.3537199999999814
11
159.1326679999999953
21
-135.5320609999999988
0
LINE
8
BLACK
6
CONTINUOUS
10
159.1326679999999953
20
-135.5320609999999988
11
159.0781470000000013
21
-135.7236819999999966
0
LINE
8
BLACK
6
CONTINUOUS
10
159.0781470000000013
20
-135.7236819999999966
11
159.0597649999999987
21
-135.9220589999999902
0
LINE
8
BLACK
6
CONTINUOUS
10
159.0597649999999987
20
-135.9220589999999902
11
159.0781470000000013
21
-136.1204359999999838
0
LINE
8
BLACK
6
CONTINUOUS
10
76.5080480000000023
20
-121.7429939999999959
11
76.7016330000000011
21
-121.8179889999999972
0
LINE
8
BLACK
6
CONTINUOUS
10
76.7016330000000011
20
-121.8179889999999972
11
76.8781409999999994
21
-121.9272789999999986
0
LINE
8
BLACK
6
CONTINUOUS
10
76.8781409999999994
20
-121.9272789999999986
11
77.0315619999999939
21
-122.0671399999999949
0
LINE
8
BLACK
6
CONTINUOUS
10
77.0315619999999939
20
-122.0671399999999949
11
77.1566710000000029
21
-122.2328119999999956
0
LINE
8
BLACK
6
CONTINUOUS
10
77.1566710000000029
20
-122.2328119999999956
11
77.2492079999999959
21
-122.418650999999997
0
LINE
8
BLACK
6
CONTINUOUS
10
77.2492079999999959
20
-122.418650999999997
11
77.3060219999999987
21
-122.6183300000000003
0
LINE
8
BLACK
6
CONTINUOUS
10
77.3060219999999987
20
-122.6183300000000003
11
77.3251769999999965
21
-122.8250479999999953
0
LINE
8
BLACK
6
CONTINUOUS
10
77.3251769999999965
20
-122.8250479999999953
11
77.3060219999999987
21
-123.0317659999999904
0
LINE
8
BLACK
6
CONTINUOUS
10
77.3060219999999987
20
-123.0317659999999904
11
77.2492079999999959
21
-123.2314449999999937
0
LINE
8
BLACK
6
CONTINUOUS
10
77.2492079999999959
20
-123.2314449999999937
11
77.1566710000000029
21
-123.4172839999999951
0
LINE
8
BLACK
6
CONTINUOUS
10
77.1566710000000029
20
-123.4172839999999951
11
77.0315619999999939
21
-123.5829559999999958
0
LINE
8
BLACK
6
CONTINUOUS
10
77.0315619999999939
20
-123.5829559999999958
11
76.8781409999999994
21
-123.722816999999992
0
LINE
8
BLACK
6
CONTINUOUS
10
76.8781409999999994
20
-123.722816999999992
11
76.7016330000000011
21
-123.8321069999999935
0
LINE
8
BLACK
6
CONTINUOUS
10
76.7016330000000011
20
-123.8321069999999935
11
76.5080480000000023
21
-123.9071019999999947
0
LINE
8
BLACK
6
CONTINUOUS
10
76.5080480000000023
20
-123.9071019999999947
11
76.3039789999999982
21
-123.9452489999999898
0
LINE
8
BLACK
6
CONTINUOUS
10
76.3039789999999982
20
-123.9452489999999898
11
76.0963749999999948
21
-123.9452489999999898
0
LINE
8
BLACK
6
CONTINUOUS
10
76.0963749999999948
20
-123.9452489999999898
11
75.8923059999999907
21
-123.9071019999999947
0
LINE
8
BLACK
6
CONTINUOUS
10
75.8923059999999907
20
-123.9071019999999947
11
75.6987209999999919
21
-123.8321069999999935
0
LINE
8
BLACK
6
CONTINUOUS
10
75.6987209999999919
20
-123.8321069999999935
11
75.5222129999999936
21
-123.722816999999992
0
LINE
8
BLACK
6
CONTINUOUS
10
75.5222129999999936
20
-123.722816999999992
11
75.3687919999999991
21
-123.5829559999999958
0
LINE
8
BLACK
6
CONTINUOUS
10
75.3687919999999991
20
-123.5829559999999958
11
75.2436829999999901
21
-123.4172839999999951
0
LINE
8
BLACK
6
CONTINUOUS
10
75.2436829999999901
20
-123.4172839999999951
11
75.1511459999999971
21
-123.2314449999999937
0
LINE
8
BLACK
6
CONTINUOUS
10
75.1511459999999971
20
-123.2314449999999937
11
75.0943319999999943
21
-123.0317659999999904
0
LINE
8
BLACK
6
CONTINUOUS
10
75.0943319999999943
20
-123.0317659999999904
11
75.0751769999999965
21
-122.8250479999999953
0
LINE
8
BLACK
6
CONTINUOUS
10
75.0751769999999965
20
-122.8250479999999953
11
75.0943319999999943
21
-122.6183300000000003
0
LINE
8
BLACK
6
CONTINUOUS
10
75.0943319999999943
20
-122.6183300000000003
11
75.1511459999999971
21
-122.418650999999997
0
LINE
8
BLACK
6
CONTINUOUS
10
75.1511459999999971
20
-122.418650999999997
11
75.2436829999999901
21
-122.2328119999999956
0
LINE
8
BLACK
6
CONTINUOUS
10
75.2436829999999901
20
-122.2328119999999956
11
75.3687919999999991
21
-122.0671399999999949
0
LINE
8
BLACK
6
CONTINUOUS
10
75.3687919999999991
20
-122.0671399999999949
11
75.5222129999999936
21
-121.9272789999999986
0
LINE
8
BLACK
6
CONTINUOUS
10
75.5222129999999936
20
-121.9272789999999986
11
75.6987209999999919
21
-121.8179889999999972
0
LINE
8
BLACK
6
CONTINUOUS
10
75.6987209999999919
20
-121.8179889999999972
11
75.8923059999999907
21
-121.7429939999999959
0
LINE
8
BLACK
6
CONTINUOUS
10
75.8923059999999907
20
-121.7429939999999959
11
76.0963749999999948
21
-121.7048470000000009
0
LINE
8
BLACK
6
CONTINUOUS
10
76.0963749999999948
20
-121.7048470000000009
11
76.3039789999999982
21
-121.7048470000000009
0
LINE
8
BLACK
6
CONTINUOUS
10
76.3039789999999982
20
-121.7048470000000009
11
76.5080480000000023
21
-121.7429939999999959
0
LINE
8
BLACK
6
CONTINUOUS
10
75.1389539999999982
20
-123.0234249999999889
11
75.1934749999999923
21
-123.215046000000001
0
LINE
8
BLACK
6
CONTINUOUS
10
75.1934749999999923
20
-123.215046000000001
11
75.2822779999999909
21
-123.3933869999999899
0
LINE
8
BLACK
6
CONTINUOUS
10
75.2822779999999909
20
-123.3933869999999899
11
75.4023389999999978
21
-123.5523729999999887
0
LINE
8
BLACK
6
CONTINUOUS
10
75.4023389999999978
20
-123.5523729999999887
11
75.5495700000000028
21
-123.6865909999999928
0
LINE
8
BLACK
6
CONTINUOUS
10
75.5495700000000028
20
-123.6865909999999928
11
75.7189559999999915
21
-123.7914710000000014
0
LINE
8
BLACK
6
CONTINUOUS
10
75.7189559999999915
20
-123.7914710000000014
11
75.9047290000000032
21
-123.8634399999999971
0
LINE
8
BLACK
6
CONTINUOUS
10
75.9047290000000032
20
-123.8634399999999971
11
76.1005639999999914
21
-123.9000479999999982
0
LINE
8
BLACK
6
CONTINUOUS
10
76.1005639999999914
20
-123.9000479999999982
11
76.2997900000000016
21
-123.9000479999999982
0
LINE
8
BLACK
6
CONTINUOUS
10
76.2997900000000016
20
-123.9000479999999982
11
76.4956249999999898
21
-123.8634399999999971
0
LINE
8
BLACK
6
CONTINUOUS
10
76.4956249999999898
20
-123.8634399999999971
11
76.6813980000000015
21
-123.7914710000000014
0
LINE
8
BLACK
6
CONTINUOUS
10
76.6813980000000015
20
-123.7914710000000014
11
76.8507839999999902
21
-123.6865909999999928
0
LINE
8
BLACK
6
CONTINUOUS
10
76.8507839999999902
20
-123.6865909999999928
11
76.9980149999999952
21
-123.5523729999999887
0
LINE
8
BLACK
6
CONTINUOUS
10
76.9980149999999952
20
-123.5523729999999887
11
77.1180760000000021
21
-123.3933869999999899
0
LINE
8
BLACK
6
CONTINUOUS
10
77.1180760000000021
20
-123.3933869999999899
11
77.2068790000000007
21
-123.215046000000001
0
LINE
8
BLACK
6
CONTINUOUS
10
77.2068790000000007
20
-123.215046000000001
11
77.2613999999999947
21
-123.0234249999999889
0
LINE
8
BLACK
6
CONTINUOUS
10
77.2613999999999947
20
-123.0234249999999889
11
77.2797819999999973
21
-122.8250479999999953
0
LINE
8
BLACK
6
CONTINUOUS
10
77.2797819999999973
20
-122.8250479999999953
11
77.2613999999999947
21
-122.6266709999999875
0
LINE
8
BLACK
6
CONTINUOUS
10
77.2613999999999947
20
-122.6266709999999875
11
77.2068790000000007
21
-122.4350499999999897
0
LINE
8
BLACK
6
CONTINUOUS
10
77.2068790000000007
20
-122.4350499999999897
11
77.1180760000000021
21
-122.2567090000000007
0
LINE
8
BLACK
6
CONTINUOUS
10
77.1180760000000021
20
-122.2567090000000007
11
76.9980149999999952
21
-122.0977229999999878
0
LINE
8
BLACK
6
CONTINUOUS
10
76.9980149999999952
20
-122.0977229999999878
11
76.8507839999999902
21
-121.9635049999999978
0
LINE
8
BLACK
6
CONTINUOUS
10
76.8507839999999902
20
-121.9635049999999978
11
76.6813980000000015
21
-121.8586249999999893
0
LINE
8
BLACK
6
CONTINUOUS
10
76.6813980000000015
20
-121.8586249999999893
11
76.4956249999999898
21
-121.7866559999999936
0
LINE
8
BLACK
6
CONTINUOUS
10
76.4956249999999898
20
-121.7866559999999936
11
76.2997900000000016
21
-121.7500479999999925
0
LINE
8
BLACK
6
CONTINUOUS
10
76.2997900000000016
20
-121.7500479999999925
11
76.1005639999999914
21
-121.7500479999999925
0
LINE
8
BLACK
6
CONTINUOUS
10
76.1005639999999914
20
-121.7500479999999925
11
75.9047290000000032
21
-121.7866559999999936
0
LINE
8
BLACK
6
CONTINUOUS
10
75.9047290000000032
20
-121.7866559999999936
11
75.7189559999999915
21
-121.8586249999999893
0
LINE
8
BLACK
6
CONTINUOUS
10
75.7189559999999915
20
-121.8586249999999893
11
75.5495700000000028
21
-121.9635049999999978
0
LINE
8
BLACK
6
CONTINUOUS
10
75.5495700000000028
20
-121.9635049999999978
11
75.4023389999999978
21
-122.0977229999999878
0
LINE
8
BLACK
6
CONTINUOUS
10
75.4023389999999978
20
-122.0977229999999878
11
75.2822779999999909
21
-122.2567090000000007
0
LINE
8
BLACK
6
CONTINUOUS
10
75.2822779999999909
20
-122.2567090000000007
11
75.1934749999999923
21
-122.4350499999999897
0
LINE
8
BLACK
6
CONTINUOUS
10
75.1934749999999923
20
-122.4350499999999897
11
75.1389539999999982
21
-122.6266709999999875
0
LINE
8
BLACK
6
CONTINUOUS
10
75.1389539999999982
20
-122.6266709999999875
11
75.1205719999999957
21
-122.8250479999999953
0
LINE
8
BLACK
6
CONTINUOUS
10
75.1205719999999957
20
-122.8250479999999953
11
75.1389539999999982
21
-123.0234249999999889
0
LINE
8
BLACK
6
CONTINUOUS
10
183.6642980000000023
20
-107.4554940000000016
11
183.8578829999999869
21
-107.5304889999999887
0
LINE
8
BLACK
6
CONTINUOUS
10
183.8578829999999869
20
-107.5304889999999887
11
184.0343909999999994
21
-107.6397789999999901
0
LINE
8
BLACK
6
CONTINUOUS
10
184.0343909999999994
20
-107.6397789999999901
11
184.1878119999999797
21
-107.7796400000000006
0
LINE
8
BLACK
6
CONTINUOUS
10
184.1878119999999797
20
-107.7796400000000006
11
184.3129209999999887
21
-107.9453120000000013
0
LINE
8
BLACK
6
CONTINUOUS
10
184.3129209999999887
20
-107.9453120000000013
11
184.4054579999999817
21
-108.1311509999999885
0
LINE
8
BLACK
6
CONTINUOUS
10
184.4054579999999817
20
-108.1311509999999885
11
184.4622719999999845
21
-108.3308299999999917
0
LINE
8
BLACK
6
CONTINUOUS
10
184.4622719999999845
20
-108.3308299999999917
11
184.4814269999999965
21
-108.537548000000001
0
LINE
8
BLACK
6
CONTINUOUS
10
184.4814269999999965
20
-108.537548000000001
11
184.4622719999999845
21
-108.7442659999999961
0
LINE
8
BLACK
6
CONTINUOUS
10
184.4622719999999845
20
-108.7442659999999961
11
184.4054579999999817
21
-108.9439449999999994
0
LINE
8
BLACK
6
CONTINUOUS
10
184.4054579999999817
20
-108.9439449999999994
11
184.3129209999999887
21
-109.1297840000000008
0
LINE
8
BLACK
6
CONTINUOUS
10
184.3129209999999887
20
-109.1297840000000008
11
184.1878119999999797
21
-109.2954560000000015
0
LINE
8
BLACK
6
CONTINUOUS
10
184.1878119999999797
20
-109.2954560000000015
11
184.0343909999999994
21
-109.4353169999999977
0
LINE
8
BLACK
6
CONTINUOUS
10
184.0343909999999994
20
-109.4353169999999977
11
183.8578829999999869
21
-109.5446069999999992
0
LINE
8
BLACK
6
CONTINUOUS
10
183.8578829999999869
20
-109.5446069999999992
11
183.6642980000000023
21
-109.6196020000000004
0
LINE
8
BLACK
6
CONTINUOUS
10
183.6642980000000023
20
-109.6196020000000004
11
183.4602289999999982
21
-109.6577489999999955
0
LINE
8
BLACK
6
CONTINUOUS
10
183.4602289999999982
20
-109.6577489999999955
11
183.2526249999999948
21
-109.6577489999999955
0
LINE
8
BLACK
6
CONTINUOUS
10
183.2526249999999948
20
-109.6577489999999955
11
183.0485559999999907
21
-109.6196020000000004
0
LINE
8
BLACK
6
CONTINUOUS
10
183.0485559999999907
20
-109.6196020000000004
11
182.8549709999999777
21
-109.5446069999999992
0
LINE
8
BLACK
6
CONTINUOUS
10
182.8549709999999777
20
-109.5446069999999992
11
182.6784629999999936
21
-109.4353169999999977
0
LINE
8
BLACK
6
CONTINUOUS
10
182.6784629999999936
20
-109.4353169999999977
11
182.5250419999999849
21
-109.2954560000000015
0
LINE
8
BLACK
6
CONTINUOUS
10
182.5250419999999849
20
-109.2954560000000015
11
182.3999330000000043
21
-109.1297840000000008
0
LINE
8
BLACK
6
CONTINUOUS
10
182.3999330000000043
20
-109.1297840000000008
11
182.3073959999999829
21
-108.9439449999999994
0
LINE
8
BLACK
6
CONTINUOUS
10
182.3073959999999829
20
-108.9439449999999994
11
182.2505819999999801
21
-108.7442659999999961
0
LINE
8
BLACK
6
CONTINUOUS
10
182.2505819999999801
20
-108.7442659999999961
11
182.2314269999999965
21
-108.537548000000001
0
LINE
8
BLACK
6
CONTINUOUS
10
182.2314269999999965
20
-108.537548000000001
11
182.2505819999999801
21
-108.3308299999999917
0
LINE
8
BLACK
6
CONTINUOUS
10
182.2505819999999801
20
-108.3308299999999917
11
182.3073959999999829
21
-108.1311509999999885
0
LINE
8
BLACK
6
CONTINUOUS
10
182.3073959999999829
20
-108.1311509999999885
11
182.3999330000000043
21
-107.9453120000000013
0
LINE
8
BLACK
6
CONTINUOUS
10
182.3999330000000043
20
-107.9453120000000013
11
182.5250419999999849
21
-107.7796400000000006
0
LINE
8
BLACK
6
CONTINUOUS
10
182.5250419999999849
20
-107.7796400000000006
11
182.6784629999999936
21
-107.6397789999999901
0
LINE
8
BLACK
6
CONTINUOUS
10
182.6784629999999936
20
-107.6397789999999901
11
182.8549709999999777
21
-107.5304889999999887
0
LINE
8
BLACK
6
CONTINUOUS
10
182.8549709999999777
20
-107.5304889999999887
11
183.0485559999999907
21
-107.4554940000000016
0
LINE
8
BLACK
6
CONTINUOUS
10
183.0485559999999907
20
-107.4554940000000016
11
183.2526249999999948
21
-107.4173469999999924
0
LINE
8
BLACK
6
CONTINUOUS
10
183.2526249999999948
20
-107.4173469999999924
11
183.4602289999999982
21
-107.4173469999999924
0
LINE
8
BLACK
6
CONTINUOUS
10
183.4602289999999982
20
-107.4173469999999924
11
183.6642980000000023
21
-107.4554940000000016
0
LINE
8
BLACK
6
CONTINUOUS
10
182.295203999999984
20
-108.7359249999999946
11
182.3497249999999781
21
-108.9275459999999924
0
LINE
8
BLACK
6
CONTINUOUS
10
182.3497249999999781
20
-108.9275459999999924
11
182.4385279999999909
21
-109.1058869999999956
0
LINE
8
BLACK
6
CONTINUOUS
10
182.4385279999999909
20
-109.1058869999999956
11
182.5585889999999836
21
-109.2648729999999944
0
LINE
8
BLACK
6
CONTINUOUS
10
182.5585889999999836
20
-109.2648729999999944
11
182.7058199999999886
21
-109.3990909999999985
0
LINE
8
BLACK
6
CONTINUOUS
10
182.7058199999999886
20
-109.3990909999999985
11
182.8752059999999915
21
-109.5039709999999928
0
LINE
8
BLACK
6
CONTINUOUS
10
182.8752059999999915
20
-109.5039709999999928
11
183.0609790000000032
21
-109.5759399999999886
0
LINE
8
BLACK
6
CONTINUOUS
10
183.0609790000000032
20
-109.5759399999999886
11
183.2568139999999914
21
-109.6125479999999897
0
LINE
8
BLACK
6
CONTINUOUS
10
183.2568139999999914
20
-109.6125479999999897
11
183.4560400000000016
21
-109.6125479999999897
0
LINE
8
BLACK
6
CONTINUOUS
10
183.4560400000000016
20
-109.6125479999999897
11
183.6518749999999898
21
-109.5759399999999886
0
LINE
8
BLACK
6
CONTINUOUS
10
183.6518749999999898
20
-109.5759399999999886
11
183.8376480000000015
21
-109.5039709999999928
0
LINE
8
BLACK
6
CONTINUOUS
10
183.8376480000000015
20
-109.5039709999999928
11
184.0070340000000044
21
-109.3990909999999985
0
LINE
8
BLACK
6
CONTINUOUS
10
184.0070340000000044
20
-109.3990909999999985
11
184.154264999999981
21
-109.2648729999999944
0
LINE
8
BLACK
6
CONTINUOUS
10
184.154264999999981
20
-109.2648729999999944
11
184.2743260000000021
21
-109.1058869999999956
0
LINE
8
BLACK
6
CONTINUOUS
10
184.2743260000000021
20
-109.1058869999999956
11
184.3631289999999865
21
-108.9275459999999924
0
LINE
8
BLACK
6
CONTINUOUS
10
184.3631289999999865
20
-108.9275459999999924
11
184.4176499999999805
21
-108.7359249999999946
0
LINE
8
BLACK
6
CONTINUOUS
10
184.4176499999999805
20
-108.7359249999999946
11
184.4360319999999831
21
-108.537548000000001
0
LINE
8
BLACK
6
CONTINUOUS
10
184.4360319999999831
20
-108.537548000000001
11
184.4176499999999805
21
-108.3391709999999932
0
LINE
8
BLACK
6
CONTINUOUS
10
184.4176499999999805
20
-108.3391709999999932
11
184.3631289999999865
21
-108.1475499999999954
0
LINE
8
BLACK
6
CONTINUOUS
10
184.3631289999999865
20
-108.1475499999999954
11
184.2743260000000021
21
-107.9692089999999922
0
LINE
8
BLACK
6
CONTINUOUS
10
184.2743260000000021
20
-107.9692089999999922
11
184.154264999999981
21
-107.8102229999999935
0
LINE
8
BLACK
6
CONTINUOUS
10
184.154264999999981
20
-107.8102229999999935
11
184.0070340000000044
21
-107.6760049999999893
0
LINE
8
BLACK
6
CONTINUOUS
10
184.0070340000000044
20
-107.6760049999999893
11
183.8376480000000015
21
-107.571124999999995
0
LINE
8
BLACK
6
CONTINUOUS
10
183.8376480000000015
20
-107.571124999999995
11
183.6518749999999898
21
-107.4991559999999993
0
LINE
8
BLACK
6
CONTINUOUS
10
183.6518749999999898
20
-107.4991559999999993
11
183.4560400000000016
21
-107.4625479999999982
0
LINE
8
BLACK
6
CONTINUOUS
10
183.4560400000000016
20
-107.4625479999999982
11
183.2568139999999914
21
-107.4625479999999982
0
LINE
8
BLACK
6
CONTINUOUS
10
183.2568139999999914
20
-107.4625479999999982
11
183.0609790000000032
21
-107.4991559999999993
0
LINE
8
BLACK
6
CONTINUOUS
10
183.0609790000000032
20
-107.4991559999999993
11
182.8752059999999915
21
-107.571124999999995
0
LINE
8
BLACK
6
CONTINUOUS
10
182.8752059999999915
20
-107.571124999999995
11
182.7058199999999886
21
-107.6760049999999893
0
LINE
8
BLACK
6
CONTINUOUS
10
182.7058199999999886
20
-107.6760049999999893
11
182.5585889999999836
21
-107.8102229999999935
0
LINE
8
BLACK
6
CONTINUOUS
10
182.5585889999999836
20
-107.8102229999999935
11
182.4385279999999909
21
-107.9692089999999922
0
LINE
8
BLACK
6
CONTINUOUS
10
182.4385279999999909
20
-107.9692089999999922
11
182.3497249999999781
21
-108.1475499999999954
0
LINE
8
BLACK
6
CONTINUOUS
10
182.3497249999999781
20
-108.1475499999999954
11
182.295203999999984
21
-108.3391709999999932
0
LINE
8
BLACK
6
CONTINUOUS
10
182.295203999999984
20
-108.3391709999999932
11
182.2768219999999815
21
-108.537548000000001
0
LINE
8
BLACK
6
CONTINUOUS
10
182.2768219999999815
20
-108.537548000000001
11
182.295203999999984
21
-108.7359249999999946
0
LINE
8
BLACK
6
CONTINUOUS
10
69.959699999999998
20
-64.5929939999999903
11
70.1532849999999968
21
-64.6679889999999915
0
LINE
8
BLACK
6
CONTINUOUS
10
70.1532849999999968
20
-64.6679889999999915
11
70.3297929999999951
21
-64.7772789999999929
0
LINE
8
BLACK
6
CONTINUOUS
10
70.3297929999999951
20
-64.7772789999999929
11
70.4832140000000038
21
-64.9171400000000034
0
LINE
8
BLACK
6
CONTINUOUS
10
70.4832140000000038
20
-64.9171400000000034
11
70.6083229999999986
21
-65.0828120000000041
0
LINE
8
BLACK
6
CONTINUOUS
10
70.6083229999999986
20
-65.0828120000000041
11
70.7008599999999916
21
-65.2686509999999913
0
LINE
8
BLACK
6
CONTINUOUS
10
70.7008599999999916
20
-65.2686509999999913
11
70.7576739999999944
21
-65.4683299999999946
0
LINE
8
BLACK
6
CONTINUOUS
10
70.7576739999999944
20
-65.4683299999999946
11
70.7768289999999922
21
-65.6750480000000039
0
LINE
8
BLACK
6
CONTINUOUS
10
70.7768289999999922
20
-65.6750480000000039
11
70.7576739999999944
21
-65.8817659999999989
0
LINE
8
BLACK
6
CONTINUOUS
10
70.7576739999999944
20
-65.8817659999999989
11
70.7008599999999916
21
-66.0814450000000022
0
LINE
8
BLACK
6
CONTINUOUS
10
70.7008599999999916
20
-66.0814450000000022
11
70.6083229999999986
21
-66.2672840000000036
0
LINE
8
BLACK
6
CONTINUOUS
10
70.6083229999999986
20
-66.2672840000000036
11
70.4832140000000038
21
-66.4329559999999901
0
LINE
8
BLACK
6
CONTINUOUS
10
70.4832140000000038
20
-66.4329559999999901
11
70.3297929999999951
21
-66.5728170000000006
0
LINE
8
BLACK
6
CONTINUOUS
10
70.3297929999999951
20
-66.5728170000000006
11
70.1532849999999968
21
-66.682107000000002
0
LINE
8
BLACK
6
CONTINUOUS
10
70.1532849999999968
20
-66.682107000000002
11
69.959699999999998
21
-66.7571020000000033
0
LINE
8
BLACK
6
CONTINUOUS
10
69.959699999999998
20
-66.7571020000000033
11
69.7556309999999939
21
-66.7952489999999983
0
LINE
8
BLACK
6
CONTINUOUS
10
69.7556309999999939
20
-66.7952489999999983
11
69.5480269999999905
21
-66.7952489999999983
0
LINE
8
BLACK
6
CONTINUOUS
10
69.5480269999999905
20
-66.7952489999999983
11
69.3439580000000007
21
-66.7571020000000033
0
LINE
8
BLACK
6
CONTINUOUS
10
69.3439580000000007
20
-66.7571020000000033
11
69.1503730000000019
21
-66.682107000000002
0
LINE
8
BLACK
6
CONTINUOUS
10
69.1503730000000019
20
-66.682107000000002
11
68.9738650000000035
21
-66.5728170000000006
0
LINE
8
BLACK
6
CONTINUOUS
10
68.9738650000000035
20
-66.5728170000000006
11
68.8204439999999948
21
-66.4329559999999901
0
LINE
8
BLACK
6
CONTINUOUS
10
68.8204439999999948
20
-66.4329559999999901
11
68.695335
21
-66.2672840000000036
0
LINE
8
BLACK
6
CONTINUOUS
10
68.695335
20
-66.2672840000000036
11
68.6027979999999928
21
-66.0814450000000022
0
LINE
8
BLACK
6
CONTINUOUS
10
68.6027979999999928
20
-66.0814450000000022
11
68.54598399999999
21
-65.8817659999999989
0
LINE
8
BLACK
6
CONTINUOUS
10
68.54598399999999
20
-65.8817659999999989
11
68.5268289999999922
21
-65.6750480000000039
0
LINE
8
BLACK
6
CONTINUOUS
10
68.5268289999999922
20
-65.6750480000000039
11
68.54598399999999
21
-65.4683299999999946
0
LINE
8
BLACK
6
CONTINUOUS
10
68.54598399999999
20
-65.4683299999999946
11
68.6027979999999928
21
-65.2686509999999913
0
LINE
8
BLACK
6
CONTINUOUS
10
68.6027979999999928
20
-65.2686509999999913
11
68.695335
21
-65.0828120000000041
0
LINE
8
BLACK
6
CONTINUOUS
10
68.695335
20
-65.0828120000000041
11
68.8204439999999948
21
-64.9171400000000034
0
LINE
8
BLACK
6
CONTINUOUS
10
68.8204439999999948
20
-64.9171400000000034
11
68.9738650000000035
21
-64.7772789999999929
0
LINE
8
BLACK
6
CONTINUOUS
10
68.9738650000000035
20
-64.7772789999999929
11
69.1503730000000019
21
-64.6679889999999915
0
LINE
8
BLACK
6
CONTINUOUS
10
69.1503730000000019
20
-64.6679889999999915
11
69.3439580000000007
21
-64.5929939999999903
0
LINE
8
BLACK
6
CONTINUOUS
10
69.3439580000000007
20
-64.5929939999999903
11
69.5480269999999905
21
-64.5548469999999952
0
LINE
8
BLACK
6
CONTINUOUS
10
69.5480269999999905
20
-64.5548469999999952
11
69.7556309999999939
21
-64.5548469999999952
0
LINE
8
BLACK
6
CONTINUOUS
10
69.7556309999999939
20
-64.5548469999999952
11
69.959699999999998
21
-64.5929939999999903
0
LINE
8
BLACK
6
CONTINUOUS
10
68.590605999999994
20
-65.8734249999999975
11
68.6451270000000022
21
-66.0650459999999953
0
LINE
8
BLACK
6
CONTINUOUS
10
68.6451270000000022
20
-66.0650459999999953
11
68.7339300000000009
21
-66.2433869999999985
0
LINE
8
BLACK
6
CONTINUOUS
10
68.7339300000000009
20
-66.2433869999999985
11
68.8539909999999935
21
-66.4023729999999972
0
LINE
8
BLACK
6
CONTINUOUS
10
68.8539909999999935
20
-66.4023729999999972
11
69.0012219999999985
21
-66.5365910000000014
0
LINE
8
BLACK
6
CONTINUOUS
10
69.0012219999999985
20
-66.5365910000000014
11
69.1706080000000014
21
-66.6414709999999957
0
LINE
8
BLACK
6
CONTINUOUS
10
69.1706080000000014
20
-66.6414709999999957
11
69.3563809999999989
21
-66.7134399999999914
0
LINE
8
BLACK
6
CONTINUOUS
10
69.3563809999999989
20
-66.7134399999999914
11
69.5522160000000014
21
-66.7500479999999925
0
LINE
8
BLACK
6
CONTINUOUS
10
69.5522160000000014
20
-66.7500479999999925
11
69.7514419999999973
21
-66.7500479999999925
0
LINE
8
BLACK
6
CONTINUOUS
10
69.7514419999999973
20
-66.7500479999999925
11
69.9472769999999997
21
-66.7134399999999914
0
LINE
8
BLACK
6
CONTINUOUS
10
69.9472769999999997
20
-66.7134399999999914
11
70.1330499999999972
21
-66.6414709999999957
0
LINE
8
BLACK
6
CONTINUOUS
10
70.1330499999999972
20
-66.6414709999999957
11
70.3024360000000001
21
-66.5365910000000014
0
LINE
8
BLACK
6
CONTINUOUS
10
70.3024360000000001
20
-66.5365910000000014
11
70.4496669999999909
21
-66.4023729999999972
0
LINE
8
BLACK
6
CONTINUOUS
10
70.4496669999999909
20
-66.4023729999999972
11
70.5697279999999978
21
-66.2433869999999985
0
LINE
8
BLACK
6
CONTINUOUS
10
70.5697279999999978
20
-66.2433869999999985
11
70.6585309999999964
21
-66.0650459999999953
0
LINE
8
BLACK
6
CONTINUOUS
10
70.6585309999999964
20
-66.0650459999999953
11
70.7130519999999905
21
-65.8734249999999975
0
LINE
8
BLACK
6
CONTINUOUS
10
70.7130519999999905
20
-65.8734249999999975
11
70.731433999999993
21
-65.6750480000000039
0
LINE
8
BLACK
6
CONTINUOUS
10
70.731433999999993
20
-65.6750480000000039
11
70.7130519999999905
21
-65.4766709999999961
0
LINE
8
BLACK
6
CONTINUOUS
10
70.7130519999999905
20
-65.4766709999999961
11
70.6585309999999964
21
-65.2850499999999982
0
LINE
8
BLACK
6
CONTINUOUS
10
70.6585309999999964
20
-65.2850499999999982
11
70.5697279999999978
21
-65.1067089999999951
0
LINE
8
BLACK
6
CONTINUOUS
10
70.5697279999999978
20
-65.1067089999999951
11
70.4496669999999909
21
-64.9477229999999963
0
LINE
8
BLACK
6
CONTINUOUS
10
70.4496669999999909
20
-64.9477229999999963
11
70.3024360000000001
21
-64.8135049999999922
0
LINE
8
BLACK
6
CONTINUOUS
10
70.3024360000000001
20
-64.8135049999999922
11
70.1330499999999972
21
-64.7086249999999978
0
LINE
8
BLACK
6
CONTINUOUS
10
70.1330499999999972
20
-64.7086249999999978
11
69.9472769999999997
21
-64.6366560000000021
0
LINE
8
BLACK
6
CONTINUOUS
10
69.9472769999999997
20
-64.6366560000000021
11
69.7514419999999973
21
-64.600048000000001
0
LINE
8
BLACK
6
CONTINUOUS
10
69.7514419999999973
20
-64.600048000000001
11
69.5522160000000014
21
-64.600048000000001
0
LINE
8
BLACK
6
CONTINUOUS
10
69.5522160000000014
20
-64.600048000000001
11
69.3563809999999989
21
-64.6366560000000021
0
LINE
8
BLACK
6
CONTINUOUS
10
69.3563809999999989
20
-64.6366560000000021
11
69.1706080000000014
21
-64.7086249999999978
0
LINE
8
BLACK
6
CONTINUOUS
10
69.1706080000000014
20
-64.7086249999999978
11
69.0012219999999985
21
-64.8135049999999922
0
LINE
8
BLACK
6
CONTINUOUS
10
69.0012219999999985
20
-64.8135049999999922
11
68.8539909999999935
21
-64.9477229999999963
0
LINE
8
BLACK
6
CONTINUOUS
10
68.8539909999999935
20
-64.9477229999999963
11
68.7339300000000009
21
-65.1067089999999951
0
LINE
8
BLACK
6
CONTINUOUS
10
68.7339300000000009
20
-65.1067089999999951
11
68.6451270000000022
21
-65.2850499999999982
0
LINE
8
BLACK
6
CONTINUOUS
10
68.6451270000000022
20
-65.2850499999999982
11
68.590605999999994
21
-65.4766709999999961
0
LINE
8
BLACK
6
CONTINUOUS
10
68.590605999999994
20
-65.4766709999999961
11
68.5722239999999914
21
-65.6750480000000039
0
LINE
8
BLACK
6
CONTINUOUS
10
68.5722239999999914
20
-65.6750480000000039
11
68.590605999999994
21
-65.8734249999999975
0
LINE
8
BLACK
6
CONTINUOUS
10
183.6642980000000023
20
-59.8304939999999945
11
183.8578829999999869
21
-59.9054889999999958
0
LINE
8
BLACK
6
CONTINUOUS
10
183.8578829999999869
20
-59.9054889999999958
11
184.0343909999999994
21
-60.0147789999999972
0
LINE
8
BLACK
6
CONTINUOUS
10
184.0343909999999994
20
-60.0147789999999972
11
184.1878119999999797
21
-60.1546400000000006
0
LINE
8
BLACK
6
CONTINUOUS
10
184.1878119999999797
20
-60.1546400000000006
11
184.3129209999999887
21
-60.3203119999999942
0
LINE
8
BLACK
6
CONTINUOUS
10
184.3129209999999887
20
-60.3203119999999942
11
184.4054579999999817
21
-60.5061509999999956
0
LINE
8
BLACK
6
CONTINUOUS
10
184.4054579999999817
20
-60.5061509999999956
11
184.4622719999999845
21
-60.7058299999999988
0
LINE
8
BLACK
6
CONTINUOUS
10
184.4622719999999845
20
-60.7058299999999988
11
184.4814269999999965
21
-60.9125479999999939
0
LINE
8
BLACK
6
CONTINUOUS
10
184.4814269999999965
20
-60.9125479999999939
11
184.4622719999999845
21
-61.1192659999999961
0
LINE
8
BLACK
6
CONTINUOUS
10
184.4622719999999845
20
-61.1192659999999961
11
184.4054579999999817
21
-61.3189449999999994
0
LINE
8
BLACK
6
CONTINUOUS
10
184.4054579999999817
20
-61.3189449999999994
11
184.3129209999999887
21
-61.5047839999999937
0
LINE
8
BLACK
6
CONTINUOUS
10
184.3129209999999887
20
-61.5047839999999937
11
184.1878119999999797
21
-61.6704559999999944
0
LINE
8
BLACK
6
CONTINUOUS
10
184.1878119999999797
20
-61.6704559999999944
11
184.0343909999999994
21
-61.8103169999999977
0
LINE
8
BLACK
6
CONTINUOUS
10
184.0343909999999994
20
-61.8103169999999977
11
183.8578829999999869
21
-61.9196069999999992
0
LINE
8
BLACK
6
CONTINUOUS
10
183.8578829999999869
20
-61.9196069999999992
11
183.6642980000000023
21
-61.9946020000000004
0
LINE
8
BLACK
6
CONTINUOUS
10
183.6642980000000023
20
-61.9946020000000004
11
183.4602289999999982
21
-62.0327489999999955
0
LINE
8
BLACK
6
CONTINUOUS
10
183.4602289999999982
20
-62.0327489999999955
11
183.2526249999999948
21
-62.0327489999999955
0
LINE
8
BLACK
6
CONTINUOUS
10
183.2526249999999948
20
-62.0327489999999955
11
183.0485559999999907
21
-61.9946020000000004
0
LINE
8
BLACK
6
CONTINUOUS
10
183.0485559999999907
20
-61.9946020000000004
11
182.8549709999999777
21
-61.9196069999999992
0
LINE
8
BLACK
6
CONTINUOUS
10
182.8549709999999777
20
-61.9196069999999992
11
182.6784629999999936
21
-61.8103169999999977
0
LINE
8
BLACK
6
CONTINUOUS
10
182.6784629999999936
20
-61.8103169999999977
11
182.5250419999999849
21
-61.6704559999999944
0
LINE
8
BLACK
6
CONTINUOUS
10
182.5250419999999849
20
-61.6704559999999944
11
182.3999330000000043
21
-61.5047839999999937
0
LINE
8
BLACK
6
CONTINUOUS
10
182.3999330000000043
20
-61.5047839999999937
11
182.3073959999999829
21
-61.3189449999999994
0
LINE
8
BLACK
6
CONTINUOUS
10
182.3073959999999829
20
-61.3189449999999994
11
182.2505819999999801
21
-61.1192659999999961
0
LINE
8
BLACK
6
CONTINUOUS
10
182.2505819999999801
20
-61.1192659999999961
11
182.2314269999999965
21
-60.9125479999999939
0
LINE
8
BLACK
6
CONTINUOUS
10
182.2314269999999965
20
-60.9125479999999939
11
182.2505819999999801
21
-60.7058299999999988
0
LINE
8
BLACK
6
CONTINUOUS
10
182.2505819999999801
20
-60.7058299999999988
11
182.3073959999999829
21
-60.5061509999999956
0
LINE
8
BLACK
6
CONTINUOUS
10
182.3073959999999829
20
-60.5061509999999956
11
182.3999330000000043
21
-60.3203119999999942
0
LINE
8
BLACK
6
CONTINUOUS
10
182.3999330000000043
20
-60.3203119999999942
11
182.5250419999999849
21
-60.1546400000000006
0
LINE
8
BLACK
6
CONTINUOUS
10
182.5250419999999849
20
-60.1546400000000006
11
182.6784629999999936
21
-60.0147789999999972
0
LINE
8
BLACK
6
CONTINUOUS
10
182.6784629999999936
20
-60.0147789999999972
11
182.8549709999999777
21
-59.9054889999999958
0
LINE
8
BLACK
6
CONTINUOUS
10
182.8549709999999777
20
-59.9054889999999958
11
183.0485559999999907
21
-59.8304939999999945
0
LINE
8
BLACK
6
CONTINUOUS
10
183.0485559999999907
20
-59.8304939999999945
11
183.2526249999999948
21
-59.7923469999999995
0
LINE
8
BLACK
6
CONTINUOUS
10
183.2526249999999948
20
-59.7923469999999995
11
183.4602289999999982
21
-59.7923469999999995
0
LINE
8
BLACK
6
CONTINUOUS
10
183.4602289999999982
20
-59.7923469999999995
11
183.6642980000000023
21
-59.8304939999999945
0
LINE
8
BLACK
6
CONTINUOUS
10
182.295203999999984
20
-61.1109249999999946
11
182.3497249999999781
21
-61.3025459999999995
0
LINE
8
BLACK
6
CONTINUOUS
10
182.3497249999999781
20
-61.3025459999999995
11
182.4385279999999909
21
-61.4808869999999956
0
LINE
8
BLACK
6
CONTINUOUS
10
182.4385279999999909
20
-61.4808869999999956
11
182.5585889999999836
21
-61.6398729999999944
0
LINE
8
BLACK
6
CONTINUOUS
10
182.5585889999999836
20
-61.6398729999999944
11
182.7058199999999886
21
-61.7740909999999985
0
LINE
8
BLACK
6
CONTINUOUS
10
182.7058199999999886
20
-61.7740909999999985
11
182.8752059999999915
21
-61.8789709999999999
0
LINE
8
BLACK
6
CONTINUOUS
10
182.8752059999999915
20
-61.8789709999999999
11
183.0609790000000032
21
-61.9509399999999957
0
LINE
8
BLACK
6
CONTINUOUS
10
183.0609790000000032
20
-61.9509399999999957
11
183.2568139999999914
21
-61.9875479999999968
0
LINE
8
BLACK
6
CONTINUOUS
10
183.2568139999999914
20
-61.9875479999999968
11
183.4560400000000016
21
-61.9875479999999968
0
LINE
8
BLACK
6
CONTINUOUS
10
183.4560400000000016
20
-61.9875479999999968
11
183.6518749999999898
21
-61.9509399999999957
0
LINE
8
BLACK
6
CONTINUOUS
10
183.6518749999999898
20
-61.9509399999999957
11
183.8376480000000015
21
-61.8789709999999999
0
LINE
8
BLACK
6
CONTINUOUS
10
183.8376480000000015
20
-61.8789709999999999
11
184.0070340000000044
21
-61.7740909999999985
0
LINE
8
BLACK
6
CONTINUOUS
10
184.0070340000000044
20
-61.7740909999999985
11
184.154264999999981
21
-61.6398729999999944
0
LINE
8
BLACK
6
CONTINUOUS
10
184.154264999999981
20
-61.6398729999999944
11
184.2743260000000021
21
-61.4808869999999956
0
LINE
8
BLACK
6
CONTINUOUS
10
184.2743260000000021
20
-61.4808869999999956
11
184.3631289999999865
21
-61.3025459999999995
0
LINE
8
BLACK
6
CONTINUOUS
10
184.3631289999999865
20
-61.3025459999999995
11
184.4176499999999805
21
-61.1109249999999946
0
LINE
8
BLACK
6
CONTINUOUS
10
184.4176499999999805
20
-61.1109249999999946
11
184.4360319999999831
21
-60.9125479999999939
0
LINE
8
BLACK
6
CONTINUOUS
10
184.4360319999999831
20
-60.9125479999999939
11
184.4176499999999805
21
-60.7141710000000003
0
LINE
8
BLACK
6
CONTINUOUS
10
184.4176499999999805
20
-60.7141710000000003
11
184.3631289999999865
21
-60.5225499999999954
0
LINE
8
BLACK
6
CONTINUOUS
10
184.3631289999999865
20
-60.5225499999999954
11
184.2743260000000021
21
-60.3442089999999993
0
LINE
8
BLACK
6
CONTINUOUS
10
184.2743260000000021
20
-60.3442089999999993
11
184.154264999999981
21
-60.1852230000000006
0
LINE
8
BLACK
6
CONTINUOUS
10
184.154264999999981
20
-60.1852230000000006
11
184.0070340000000044
21
-60.0510049999999964
0
LINE
8
BLACK
6
CONTINUOUS
10
184.0070340000000044
20
-60.0510049999999964
11
183.8376480000000015
21
-59.946124999999995
0
LINE
8
BLACK
6
CONTINUOUS
10
183.8376480000000015
20
-59.946124999999995
11
183.6518749999999898
21
-59.8741559999999993
0
LINE
8
BLACK
6
CONTINUOUS
10
183.6518749999999898
20
-59.8741559999999993
11
183.4560400000000016
21
-59.8375479999999982
0
LINE
8
BLACK
6
CONTINUOUS
10
183.4560400000000016
20
-59.8375479999999982
11
183.2568139999999914
21
-59.8375479999999982
0
LINE
8
BLACK
6
CONTINUOUS
10
183.2568139999999914
20
-59.8375479999999982
11
183.0609790000000032
21
-59.8741559999999993
0
LINE
8
BLACK
6
CONTINUOUS
10
183.0609790000000032
20
-59.8741559999999993
11
182.8752059999999915
21
-59.946124999999995
0
LINE
8
BLACK
6
CONTINUOUS
10
182.8752059999999915
20
-59.946124999999995
11
182.7058199999999886
21
-60.0510049999999964
0
LINE
8
BLACK
6
CONTINUOUS
10
182.7058199999999886
20
-60.0510049999999964
11
182.5585889999999836
21
-60.1852230000000006
0
LINE
8
BLACK
6
CONTINUOUS
10
182.5585889999999836
20
-60.1852230000000006
11
182.4385279999999909
21
-60.3442089999999993
0
LINE
8
BLACK
6
CONTINUOUS
10
182.4385279999999909
20
-60.3442089999999993
11
182.3497249999999781
21
-60.5225499999999954
0
LINE
8
BLACK
6
CONTINUOUS
10
182.3497249999999781
20
-60.5225499999999954
11
182.295203999999984
21
-60.7141710000000003
0
LINE
8
BLACK
6
CONTINUOUS
10
182.295203999999984
20
-60.7141710000000003
11
182.2768219999999815
21
-60.9125479999999939
0
LINE
8
BLACK
6
CONTINUOUS
10
182.2768219999999815
20
-60.9125479999999939
11
182.295203999999984
21
-61.1109249999999946
0
LINE
8
BLACK
6
CONTINUOUS
10
129.785868999999991
20
-43.0062029999999993
11
129.7997550000000047
21
-43.0080090000000013
0
LINE
8
BLACK
6
CONTINUOUS
10
129.7997550000000047
20
-43.0080090000000013
11
129.7997540000000072
21
-43.0080099999999987
0
LINE
8
BLACK
6
CONTINUOUS
10
129.7997540000000072
20
-43.0080099999999987
11
130.8259929999999827
21
-43.4954779999999985
0
LINE
8
BLACK
6
CONTINUOUS
10
130.8259929999999827
20
-43.4954779999999985
11
132.894551000000007
21
-44.4358159999999955
0
LINE
8
BLACK
6
CONTINUOUS
10
132.894551000000007
20
-44.4358159999999955
11
134.9785970000000077
21
-45.3413079999999979
0
LINE
8
BLACK
6
CONTINUOUS
10
134.9785970000000077
20
-45.3413079999999979
11
137.0775449999999864
21
-46.2117000000000004
0
LINE
8
BLACK
6
CONTINUOUS
10
137.0775449999999864
20
-46.2117000000000004
11
139.1908039999999858
21
-47.0467459999999988
0
LINE
8
BLACK
6
CONTINUOUS
10
139.1908039999999858
20
-47.0467459999999988
11
141.3177790000000016
21
-47.8462120000000013
0
LINE
8
BLACK
6
CONTINUOUS
10
141.3177790000000016
20
-47.8462120000000013
11
143.4578699999999856
21
-48.6098709999999983
0
LINE
8
BLACK
6
CONTINUOUS
10
143.4578699999999856
20
-48.6098709999999983
11
145.6104749999999797
21
-49.3375099999999946
0
LINE
8
BLACK
6
CONTINUOUS
10
145.6104749999999797
20
-49.3375099999999946
11
147.7749869999999817
21
-50.0289229999999989
0
LINE
8
BLACK
6
CONTINUOUS
10
147.7749869999999817
20
-50.0289229999999989
11
149.9507979999999918
21
-50.6839149999999989
0
LINE
8
BLACK
6
CONTINUOUS
10
149.9507979999999918
20
-50.6839149999999989
11
152.1372929999999997
21
-51.3023019999999974
0
LINE
8
BLACK
6
CONTINUOUS
10
152.1372929999999997
20
-51.3023019999999974
11
154.3338579999999922
21
-51.8839100000000002
0
LINE
8
BLACK
6
CONTINUOUS
10
154.3338579999999922
20
-51.8839100000000002
11
156.5398739999999975
21
-52.428574999999995
0
LINE
8
BLACK
6
CONTINUOUS
10
156.5398739999999975
20
-52.428574999999995
11
158.7547199999999918
21
-52.9361439999999988
0
LINE
8
BLACK
6
CONTINUOUS
10
158.7547199999999918
20
-52.9361439999999988
11
160.97777099999999
21
-53.4064729999999983
0
LINE
8
BLACK
6
CONTINUOUS
10
160.97777099999999
20
-53.4064729999999983
11
163.2084009999999807
21
-53.8394309999999976
0
LINE
8
BLACK
6
CONTINUOUS
10
163.2084009999999807
20
-53.8394309999999976
11
165.4459839999999815
21
-54.2348949999999945
0
LINE
8
BLACK
6
CONTINUOUS
10
165.4459839999999815
20
-54.2348949999999945
11
167.6898869999999988
21
-54.5927529999999948
0
LINE
8
BLACK
6
CONTINUOUS
10
167.6898869999999988
20
-54.5927529999999948
11
169.9394800000000032
21
-54.9129059999999996
0
LINE
8
BLACK
6
CONTINUOUS
10
169.9394800000000032
20
-54.9129059999999996
11
172.1941290000000038
21
-55.1952629999999971
0
LINE
8
BLACK
6
CONTINUOUS
10
172.1941290000000038
20
-55.1952629999999971
11
174.4531979999999862
21
-55.4397439999999975
0
LINE
8
BLACK
6
CONTINUOUS
10
174.4531979999999862
20
-55.4397439999999975
11
176.7160519999999906
21
-55.6462809999999948
0
LINE
8
BLACK
6
CONTINUOUS
10
176.7160519999999906
20
-55.6462809999999948
11
178.9820529999999792
21
-55.8148149999999958
0
LINE
8
BLACK
6
CONTINUOUS
10
178.9820529999999792
20
-55.8148149999999958
11
181.2505639999999971
21
-55.9452989999999986
0
LINE
8
BLACK
6
CONTINUOUS
10
181.2505639999999971
20
-55.9452989999999986
11
183.5209449999999833
21
-56.0376959999999968
0
LINE
8
BLACK
6
CONTINUOUS
10
183.5209449999999833
20
-56.0376959999999968
11
185.7925559999999905
21
-56.091980999999997
0
LINE
8
BLACK
6
CONTINUOUS
10
185.7925559999999905
20
-56.091980999999997
11
186.9286579999999844
21
-56.1000479999999939
0
LINE
8
BLACK
6
CONTINUOUS
10
186.9286579999999844
20
-56.1000479999999939
11
209.7408020000000022
21
-56.1000479999999939
0
LINE
8
BLACK
6
CONTINUOUS
10
209.7408020000000022
20
-56.1000479999999939
11
209.923135000000002
21
-56.1159999999999997
0
LINE
8
BLACK
6
CONTINUOUS
10
209.923135000000002
20
-56.1159999999999997
11
210.099929000000003
21
-56.1633700000000005
0
LINE
8
BLACK
6
CONTINUOUS
10
210.099929000000003
20
-56.1633700000000005
11
210.2658109999999851
21
-56.240719999999996
0
LINE
8
BLACK
6
CONTINUOUS
10
210.2658109999999851
20
-56.240719999999996
11
210.415742999999992
21
-56.3456989999999962
0
LINE
8
BLACK
6
CONTINUOUS
10
210.415742999999992
20
-56.3456989999999962
11
210.5451679999999897
21
-56.4751169999999973
0
LINE
8
BLACK
6
CONTINUOUS
10
210.5451679999999897
20
-56.4751169999999973
11
210.6501539999999864
21
-56.625042999999998
0
LINE
8
BLACK
6
CONTINUOUS
10
210.6501539999999864
20
-56.625042999999998
11
210.7275119999999902
21
-56.7909219999999948
0
LINE
8
BLACK
6
CONTINUOUS
10
210.7275119999999902
20
-56.7909219999999948
11
210.7748909999999967
21
-56.9677129999999963
0
LINE
8
BLACK
6
CONTINUOUS
10
210.7748909999999967
20
-56.9677129999999963
11
210.790852000000001
21
-57.1500449999999987
0
LINE
8
BLACK
6
CONTINUOUS
10
210.790852000000001
20
-57.1500449999999987
11
210.7908019999999851
21
-57.1500449999999987
0
LINE
8
BLACK
6
CONTINUOUS
10
210.7908019999999851
20
-57.1500449999999987
11
210.7908009999999877
21
-57.1500459999999961
0
LINE
8
BLACK
6
CONTINUOUS
10
210.7908009999999877
20
-57.1500459999999961
11
210.7908019999999851
21
-57.1500479999999982
0
LINE
8
BLACK
6
CONTINUOUS
10
210.7908019999999851
20
-57.1500479999999982
11
210.7908019999999851
21
-104.9656729999999953
0
LINE
8
BLACK
6
CONTINUOUS
10
210.7908019999999851
20
-104.9656729999999953
11
210.7885109999999997
21
-104.9771889999999956
0
LINE
8
BLACK
6
CONTINUOUS
10
210.7885109999999997
20
-104.9771889999999956
11
210.7885550000000023
21
-104.9804929999999956
0
LINE
8
BLACK
6
CONTINUOUS
10
210.7885550000000023
20
-104.9804929999999956
11
210.7875789999999938
21
-104.9818729999999931
0
LINE
8
BLACK
6
CONTINUOUS
10
210.7875789999999938
20
-104.9818729999999931
11
210.7869959999999878
21
-104.9848069999999893
0
LINE
8
BLACK
6
CONTINUOUS
10
210.7869959999999878
20
-104.9848069999999893
11
210.7819240000000036
21
-104.9898779999999903
0
LINE
8
BLACK
6
CONTINUOUS
10
210.7819240000000036
20
-104.9898779999999903
11
210.7707249999999988
21
-105.0057309999999973
0
LINE
8
BLACK
6
CONTINUOUS
10
210.7707249999999988
20
-105.0057309999999973
11
210.7707279999999912
21
-105.0057359999999989
0
LINE
8
BLACK
6
CONTINUOUS
10
210.7707279999999912
20
-105.0057359999999989
11
210.0026209999999764
21
-105.579504
0
LINE
8
BLACK
6
CONTINUOUS
10
210.0026209999999764
20
-105.579504
11
208.4883409999999913
21
-106.7558319999999981
0
LINE
8
BLACK
6
CONTINUOUS
10
208.4883409999999913
20
-106.7558319999999981
11
206.9965409999999792
21
-107.9605409999999921
0
LINE
8
BLACK
6
CONTINUOUS
10
206.9965409999999792
20
-107.9605409999999921
11
205.5277539999999874
21
-109.1932029999999969
0
LINE
8
BLACK
6
CONTINUOUS
10
205.5277539999999874
20
-109.1932029999999969
11
204.0825030000000027
21
-110.4533780000000007
0
LINE
8
BLACK
6
CONTINUOUS
10
204.0825030000000027
20
-110.4533780000000007
11
202.6613030000000037
21
-111.7406170000000003
0
LINE
8
BLACK
6
CONTINUOUS
10
202.6613030000000037
20
-111.7406170000000003
11
201.2646619999999871
21
-113.0544609999999892
0
LINE
8
BLACK
6
CONTINUOUS
10
201.2646619999999871
20
-113.0544609999999892
11
199.8930769999999768
21
-114.3944410000000005
0
LINE
8
BLACK
6
CONTINUOUS
10
199.8930769999999768
20
-114.3944410000000005
11
198.5470369999999889
21
-115.7600789999999904
0
LINE
8
BLACK
6
CONTINUOUS
10
198.5470369999999889
20
-115.7600789999999904
11
197.2270220000000052
21
-117.1508899999999898
0
LINE
8
BLACK
6
CONTINUOUS
10
197.2270220000000052
20
-117.1508899999999898
11
195.9335039999999992
21
-118.5663759999999911
0
LINE
8
BLACK
6
CONTINUOUS
10
195.9335039999999992
20
-118.5663759999999911
11
195.3006179999999858
21
-119.285743999999994
0
LINE
8
BLACK
6
CONTINUOUS
10
195.3006179999999858
20
-119.285743999999994
11
194.7159010000000023
21
-119.9684469999999976
0
LINE
8
BLACK
6
CONTINUOUS
10
194.7159010000000023
20
-119.9684469999999976
11
193.57467299999999
21
-121.3576619999999906
0
LINE
8
BLACK
6
CONTINUOUS
10
193.57467299999999
20
-121.3576619999999906
11
192.4622090000000014
21
-122.7700150000000008
0
LINE
8
BLACK
6
CONTINUOUS
10
192.4622090000000014
20
-122.7700150000000008
11
191.3789779999999894
21
-124.2049129999999906
0
LINE
8
BLACK
6
CONTINUOUS
10
191.3789779999999894
20
-124.2049129999999906
11
190.3254369999999938
21
-125.6617479999999887
0
LINE
8
BLACK
6
CONTINUOUS
10
190.3254369999999938
20
-125.6617479999999887
11
189.3020290000000045
21
-127.1399079999999913
0
LINE
8
BLACK
6
CONTINUOUS
10
189.3020290000000045
20
-127.1399079999999913
11
188.3091859999999826
21
-128.6387679999999989
0
LINE
8
BLACK
6
CONTINUOUS
10
188.3091859999999826
20
-128.6387679999999989
11
187.3473269999999786
21
-130.1576979999999821
0
LINE
8
BLACK
6
CONTINUOUS
10
187.3473269999999786
20
-130.1576979999999821
11
186.4168579999999906
21
-131.6960559999999987
0
LINE
8
BLACK
6
CONTINUOUS
10
186.4168579999999906
20
-131.6960559999999987
11
185.5181699999999978
21
-133.2531940000000077
0
LINE
8
BLACK
6
CONTINUOUS
10
185.5181699999999978
20
-133.2531940000000077
11
184.6516419999999812
21
-134.8284559999999885
0
LINE
8
BLACK
6
CONTINUOUS
10
184.6516419999999812
20
-134.8284559999999885
11
183.8176409999999805
21
-136.4211770000000001
0
LINE
8
BLACK
6
CONTINUOUS
10
183.8176409999999805
20
-136.4211770000000001
11
183.0165169999999932
21
-138.0306860000000029
0
LINE
8
BLACK
6
CONTINUOUS
10
183.0165169999999932
20
-138.0306860000000029
11
182.2486079999999902
21
-139.6563040000000058
0
LINE
8
BLACK
6
CONTINUOUS
10
182.2486079999999902
20
-139.6563040000000058
11
181.5142369999999801
21
-141.2973460000000046
0
LINE
8
BLACK
6
CONTINUOUS
10
181.5142369999999801
20
-141.2973460000000046
11
180.8137159999999994
21
-142.9531209999999817
0
LINE
8
BLACK
6
CONTINUOUS
10
180.8137159999999994
20
-142.9531209999999817
11
180.1473379999999906
21
-144.6229289999999992
0
LINE
8
BLACK
6
CONTINUOUS
10
180.1473379999999906
20
-144.6229289999999992
11
179.8313619999999844
21
-145.4644979999999919
0
LINE
8
BLACK
6
CONTINUOUS
10
179.8313619999999844
20
-145.4644979999999919
11
179.8313609999999869
21
-145.4644979999999919
0
LINE
8
BLACK
6
CONTINUOUS
10
179.8313609999999869
20
-145.4644979999999919
11
179.8272529999999847
21
-145.4696459999999831
0
LINE
8
BLACK
6
CONTINUOUS
10
179.8272529999999847
20
-145.4696459999999831
11
179.8252769999999998
21
-145.4759310000000028
0
LINE
8
BLACK
6
CONTINUOUS
10
179.8252769999999998
20
-145.4759310000000028
11
179.8178519999999878
21
-145.4814319999999839
0
LINE
8
BLACK
6
CONTINUOUS
10
179.8178519999999878
20
-145.4814319999999839
11
179.812090999999981
21
-145.4886549999999943
0
LINE
8
BLACK
6
CONTINUOUS
10
179.812090999999981
20
-145.4886549999999943
11
179.8057409999999834
21
-145.4904060000000072
0
LINE
8
BLACK
6
CONTINUOUS
10
179.8057409999999834
20
-145.4904060000000072
11
179.8004479999999887
21
-145.4943289999999934
0
LINE
8
BLACK
6
CONTINUOUS
10
179.8004479999999887
20
-145.4943289999999934
11
179.7912059999999883
21
-145.4944150000000036
0
LINE
8
BLACK
6
CONTINUOUS
10
179.7912059999999883
20
-145.4944150000000036
11
179.7823019999999872
21
-145.4968719999999962
0
LINE
8
BLACK
6
CONTINUOUS
10
179.7823019999999872
20
-145.4968719999999962
11
179.7761359999999797
21
-145.4945569999999861
0
LINE
8
BLACK
6
CONTINUOUS
10
179.7761359999999797
20
-145.4945569999999861
11
179.7695479999999861
21
-145.4946190000000001
0
LINE
8
BLACK
6
CONTINUOUS
10
179.7695479999999861
20
-145.4946190000000001
11
179.7695479999999861
21
-145.4946180000000027
0
LINE
8
BLACK
6
CONTINUOUS
10
179.7695479999999861
20
-145.4946180000000027
11
178.0391329999999925
21
-144.9502640000000042
0
LINE
8
BLACK
6
CONTINUOUS
10
178.0391329999999925
20
-144.9502640000000042
11
174.5675509999999804
21
-143.8963359999999909
0
LINE
8
BLACK
6
CONTINUOUS
10
174.5675509999999804
20
-143.8963359999999909
11
171.0855739999999798
21
-142.8772819999999797
0
LINE
8
BLACK
6
CONTINUOUS
10
171.0855739999999798
20
-142.8772819999999797
11
167.5935499999999934
21
-141.8932039999999972
0
LINE
8
BLACK
6
CONTINUOUS
10
167.5935499999999934
20
-141.8932039999999972
11
164.0918309999999849
21
-140.94420199999999
0
LINE
8
BLACK
6
CONTINUOUS
10
164.0918309999999849
20
-140.94420199999999
11
160.5807700000000011
21
-140.0303700000000049
0
LINE
8
BLACK
6
CONTINUOUS
10
160.5807700000000011
20
-140.0303700000000049
11
157.060719000000006
21
-139.1518020000000035
0
LINE
8
BLACK
6
CONTINUOUS
10
157.060719000000006
20
-139.1518020000000035
11
153.5320329999999842
21
-138.3085839999999962
0
LINE
8
BLACK
6
CONTINUOUS
10
153.5320329999999842
20
-138.3085839999999962
11
149.9950670000000059
21
-137.5008029999999906
0
LINE
8
BLACK
6
CONTINUOUS
10
149.9950670000000059
20
-137.5008029999999906
11
146.4501769999999965
21
-136.7285379999999861
0
LINE
8
BLACK
6
CONTINUOUS
10
146.4501769999999965
20
-136.7285379999999861
11
142.897718999999995
21
-135.9918689999999799
0
LINE
8
BLACK
6
CONTINUOUS
10
142.897718999999995
20
-135.9918689999999799
11
139.3380499999999813
21
-135.2908689999999865
0
LINE
8
BLACK
6
CONTINUOUS
10
139.3380499999999813
20
-135.2908689999999865
11
135.7715299999999843
21
-134.6256089999999972
0
LINE
8
BLACK
6
CONTINUOUS
10
135.7715299999999843
20
-134.6256089999999972
11
132.1985159999999837
21
-133.9961549999999875
0
LINE
8
BLACK
6
CONTINUOUS
10
132.1985159999999837
20
-133.9961549999999875
11
128.6193679999999802
21
-133.4025709999999947
0
LINE
8
BLACK
6
CONTINUOUS
10
128.6193679999999802
20
-133.4025709999999947
11
125.0344470000000001
21
-132.8449159999999836
0
LINE
8
BLACK
6
CONTINUOUS
10
125.0344470000000001
20
-132.8449159999999836
11
121.4441130000000015
21
-132.3232480000000066
0
LINE
8
BLACK
6
CONTINUOUS
10
121.4441130000000015
20
-132.3232480000000066
11
117.8487259999999992
21
-131.8376169999999945
0
LINE
8
BLACK
6
CONTINUOUS
10
117.8487259999999992
20
-131.8376169999999945
11
114.2486499999999978
21
-131.3880739999999889
0
LINE
8
BLACK
6
CONTINUOUS
10
114.2486499999999978
20
-131.3880739999999889
11
110.644244999999998
21
-130.9746629999999925
0
LINE
8
BLACK
6
CONTINUOUS
10
110.644244999999998
20
-130.9746629999999925
11
107.0358760000000018
21
-130.597424999999987
0
LINE
8
BLACK
6
CONTINUOUS
10
107.0358760000000018
20
-130.597424999999987
11
103.4239039999999932
21
-130.2563999999999851
0
LINE
8
BLACK
6
CONTINUOUS
10
103.4239039999999932
20
-130.2563999999999851
11
99.808692999999991
21
-129.9516209999999887
0
LINE
8
BLACK
6
CONTINUOUS
10
99.808692999999991
20
-129.9516209999999887
11
96.190607
21
-129.6831180000000074
0
LINE
8
BLACK
6
CONTINUOUS
10
96.190607
20
-129.6831180000000074
11
92.5700099999999964
21
-129.4509199999999964
0
LINE
8
BLACK
6
CONTINUOUS
10
92.5700099999999964
20
-129.4509199999999964
11
88.9472659999999991
21
-129.255047999999988
0
LINE
8
BLACK
6
CONTINUOUS
10
88.9472659999999991
20
-129.255047999999988
11
85.3227389999999986
21
-129.0955239999999833
0
LINE
8
BLACK
6
CONTINUOUS
10
85.3227389999999986
20
-129.0955239999999833
11
81.6967949999999945
21
-128.9723620000000039
0
LINE
8
BLACK
6
CONTINUOUS
10
81.6967949999999945
20
-128.9723620000000039
11
78.0697979999999916
21
-128.8855759999999862
0
LINE
8
BLACK
6
CONTINUOUS
10
78.0697979999999916
20
-128.8855759999999862
11
74.442112999999992
21
-128.8351729999999975
0
LINE
8
BLACK
6
CONTINUOUS
10
74.442112999999992
20
-128.8351729999999975
11
72.6281089999999949
21
-128.8281729999999925
0
LINE
8
BLACK
6
CONTINUOUS
10
72.6281089999999949
20
-128.8281729999999925
11
53.3876769999999965
21
-128.8281729999999925
0
LINE
8
BLACK
6
CONTINUOUS
10
53.3876769999999965
20
-128.8281729999999925
11
53.387675999999999
21
-128.828171999999995
0
LINE
8
BLACK
6
CONTINUOUS
10
53.387675999999999
20
-128.828171999999995
11
53.387675999999999
21
-128.8281729999999925
0
LINE
8
BLACK
6
CONTINUOUS
10
53.387675999999999
20
-128.8281729999999925
11
53.2053439999999966
21
-128.8122180000000014
0
LINE
8
BLACK
6
CONTINUOUS
10
53.2053439999999966
20
-128.8122180000000014
11
53.0285519999999977
21
-128.7648450000000082
0
LINE
8
BLACK
6
CONTINUOUS
10
53.0285519999999977
20
-128.7648450000000082
11
52.8626719999999963
21
-128.6874949999999842
0
LINE
8
BLACK
6
CONTINUOUS
10
52.8626719999999963
20
-128.6874949999999842
11
52.7127419999999987
21
-128.5825159999999983
0
LINE
8
BLACK
6
CONTINUOUS
10
52.7127419999999987
20
-128.5825159999999983
11
52.5833179999999984
21
-128.4530979999999829
0
LINE
8
BLACK
6
CONTINUOUS
10
52.5833179999999984
20
-128.4530979999999829
11
52.4783319999999947
21
-128.3031739999999843
0
LINE
8
BLACK
6
CONTINUOUS
10
52.4783319999999947
20
-128.3031739999999843
11
52.4009730000000005
21
-128.1372969999999896
0
LINE
8
BLACK
6
CONTINUOUS
10
52.4009730000000005
20
-128.1372969999999896
11
52.3535909999999944
21
-127.9605079999999901
0
LINE
8
BLACK
6
CONTINUOUS
10
52.3535909999999944
20
-127.9605079999999901
11
52.3376269999999977
21
-127.7781769999999995
0
LINE
8
BLACK
6
CONTINUOUS
10
52.3376269999999977
20
-127.7781769999999995
11
52.3376769999999993
21
-127.7781769999999995
0
LINE
8
BLACK
6
CONTINUOUS
10
52.3376769999999993
20
-127.7781769999999995
11
52.3376769999999993
21
-127.7781749999999903
0
LINE
8
BLACK
6
CONTINUOUS
10
52.3376769999999993
20
-127.7781749999999903
11
52.3376769999999993
21
-127.7781729999999953
0
LINE
8
BLACK
6
CONTINUOUS
10
52.3376769999999993
20
-127.7781729999999953
11
52.3376769999999993
21
-69.2469229999999953
0
LINE
8
BLACK
6
CONTINUOUS
10
52.3376769999999993
20
-69.2469229999999953
11
52.3414829999999967
21
-69.2277890000000014
0
LINE
8
BLACK
6
CONTINUOUS
10
52.3414829999999967
20
-69.2277890000000014
11
52.3418279999999996
21
-69.2274429999999938
0
LINE
8
BLACK
6
CONTINUOUS
10
52.3418279999999996
20
-69.2274429999999938
11
52.3418889999999948
21
-69.2268370000000033
0
LINE
8
BLACK
6
CONTINUOUS
10
52.3418889999999948
20
-69.2268370000000033
11
52.3624399999999994
21
-69.2037589999999909
0
LINE
8
BLACK
6
CONTINUOUS
10
52.3624399999999994
20
-69.2037589999999909
11
52.3624399999999994
21
-69.2037600000000026
0
LINE
8
BLACK
6
CONTINUOUS
10
52.3624399999999994
20
-69.2037600000000026
11
54.7395609999999948
21
-67.8353779999999915
0
LINE
8
BLACK
6
CONTINUOUS
10
54.7395609999999948
20
-67.8353779999999915
11
57.134957
21
-66.4992459999999994
0
LINE
8
BLACK
6
CONTINUOUS
10
57.134957
20
-66.4992459999999994
11
59.5481899999999982
21
-65.1956079999999929
0
LINE
8
BLACK
6
CONTINUOUS
10
59.5481899999999982
20
-65.1956079999999929
11
61.9788209999999964
21
-63.9247019999999964
0
LINE
8
BLACK
6
CONTINUOUS
10
61.9788209999999964
20
-63.9247019999999964
11
64.4264050000000026
21
-62.6867599999999996
0
LINE
8
BLACK
6
CONTINUOUS
10
64.4264050000000026
20
-62.6867599999999996
11
66.8904959999999988
21
-61.4820080000000004
0
LINE
8
BLACK
6
CONTINUOUS
10
66.8904959999999988
20
-61.4820080000000004
11
69.3706430000000012
21
-60.3106659999999977
0
LINE
8
BLACK
6
CONTINUOUS
10
69.3706430000000012
20
-60.3106659999999977
11
71.8663919999999905
21
-59.1729489999999956
0
LINE
8
BLACK
6
CONTINUOUS
10
71.8663919999999905
20
-59.1729489999999956
11
74.3772900000000021
21
-58.0690629999999999
0
LINE
8
BLACK
6
CONTINUOUS
10
74.3772900000000021
20
-58.0690629999999999
11
76.902875999999992
21
-56.9992099999999979
0
LINE
8
BLACK
6
CONTINUOUS
10
76.902875999999992
20
-56.9992099999999979
11
79.4426890000000014
21
-55.9635869999999969
0
LINE
8
BLACK
6
CONTINUOUS
10
79.4426890000000014
20
-55.9635869999999969
11
81.9962670000000031
21
-54.9623810000000006
0
LINE
8
BLACK
6
CONTINUOUS
10
81.9962670000000031
20
-54.9623810000000006
11
84.5631410000000017
21
-53.9957769999999968
0
LINE
8
BLACK
6
CONTINUOUS
10
84.5631410000000017
20
-53.9957769999999968
11
87.1428439999999966
21
-53.0639499999999984
0
LINE
8
BLACK
6
CONTINUOUS
10
87.1428439999999966
20
-53.0639499999999984
11
89.7349049999999977
21
-52.1670699999999954
0
LINE
8
BLACK
6
CONTINUOUS
10
89.7349049999999977
20
-52.1670699999999954
11
92.3388489999999962
21
-51.3053019999999975
0
LINE
8
BLACK
6
CONTINUOUS
10
92.3388489999999962
20
-51.3053019999999975
11
94.9542009999999976
21
-50.4788029999999992
0
LINE
8
BLACK
6
CONTINUOUS
10
94.9542009999999976
20
-50.4788029999999992
11
97.5804839999999984
21
-49.6877239999999958
0
LINE
8
BLACK
6
CONTINUOUS
10
97.5804839999999984
20
-49.6877239999999958
11
100.2172179999999884
21
-48.9322090000000003
0
LINE
8
BLACK
6
CONTINUOUS
10
100.2172179999999884
20
-48.9322090000000003
11
102.8639220000000023
21
-48.2123959999999983
0
LINE
8
BLACK
6
CONTINUOUS
10
102.8639220000000023
20
-48.2123959999999983
11
105.520111
21
-47.5284169999999975
0
LINE
8
BLACK
6
CONTINUOUS
10
105.520111
20
-47.5284169999999975
11
108.1853009999999955
21
-46.8803959999999975
0
LINE
8
BLACK
6
CONTINUOUS
10
108.1853009999999955
20
-46.8803959999999975
11
110.8590049999999962
21
-46.2684530000000009
0
LINE
8
BLACK
6
CONTINUOUS
10
110.8590049999999962
20
-46.2684530000000009
11
113.540734999999998
21
-45.692698
0
LINE
8
BLACK
6
CONTINUOUS
10
113.540734999999998
20
-45.692698
11
116.2300010000000015
21
-45.1532379999999947
0
LINE
8
BLACK
6
CONTINUOUS
10
116.2300010000000015
20
-45.1532379999999947
11
118.9263119999999958
21
-44.6501689999999982
0
LINE
8
BLACK
6
CONTINUOUS
10
118.9263119999999958
20
-44.6501689999999982
11
121.6291749999999894
21
-44.1835850000000008
0
LINE
8
BLACK
6
CONTINUOUS
10
121.6291749999999894
20
-44.1835850000000008
11
124.3380969999999905
21
-43.7535710000000009
0
LINE
8
BLACK
6
CONTINUOUS
10
124.3380969999999905
20
-43.7535710000000009
11
127.052582000000001
21
-43.3602050000000006
0
LINE
8
BLACK
6
CONTINUOUS
10
127.052582000000001
20
-43.3602050000000006
11
129.7721359999999891
21
-43.0035589999999956
0
LINE
8
BLACK
6
CONTINUOUS
10
129.7721359999999891
20
-43.0035589999999956
11
129.7721359999999891
21
-43.0035549999999986
0
LINE
8
BLACK
6
CONTINUOUS
10
129.7721359999999891
20
-43.0035549999999986
11
129.785868999999991
21
-43.0062029999999993
0
LINE
8
BLACK
6
CONTINUOUS
10
128.4241580000000056
20
-43.2718479999999985
11
125.7083529999999882
21
-43.6466859999999954
0
LINE
8
BLACK
6
CONTINUOUS
10
125.7083529999999882
20
-43.6466859999999954
11
122.9978610000000003
21
-44.0581929999999957
0
LINE
8
BLACK
6
CONTINUOUS
10
122.9978610000000003
20
-44.0581929999999957
11
120.293178999999995
21
-44.5062909999999974
0
LINE
8
BLACK
6
CONTINUOUS
10
120.293178999999995
20
-44.5062909999999974
11
117.5947989999999947
21
-44.9909010000000009
0
LINE
8
BLACK
6
CONTINUOUS
10
117.5947989999999947
20
-44.9909010000000009
11
114.9032139999999913
21
-45.5119319999999945
0
LINE
8
BLACK
6
CONTINUOUS
10
114.9032139999999913
20
-45.5119319999999945
11
112.2189169999999905
21
-46.0692909999999998
0
LINE
8
BLACK
6
CONTINUOUS
10
112.2189169999999905
20
-46.0692909999999998
11
109.542396999999994
21
-46.6628739999999951
0
LINE
8
BLACK
6
CONTINUOUS
10
109.542396999999994
20
-46.6628739999999951
11
106.8741429999999895
21
-47.2925739999999948
0
LINE
8
BLACK
6
CONTINUOUS
10
106.8741429999999895
20
-47.2925739999999948
11
104.2146429999999953
21
-47.9582759999999979
0
LINE
8
BLACK
6
CONTINUOUS
10
104.2146429999999953
20
-47.9582759999999979
11
101.5643819999999948
21
-48.6598579999999998
0
LINE
8
BLACK
6
CONTINUOUS
10
101.5643819999999948
20
-48.6598579999999998
11
98.923845
21
-49.3971929999999944
0
LINE
8
BLACK
6
CONTINUOUS
10
98.923845
20
-49.3971929999999944
11
96.2935129999999901
21
-50.1701440000000005
0
LINE
8
BLACK
6
CONTINUOUS
10
96.2935129999999901
20
-50.1701440000000005
11
93.6738670000000013
21
-50.9785719999999998
0
LINE
8
BLACK
6
CONTINUOUS
10
93.6738670000000013
20
-50.9785719999999998
11
91.065384999999992
21
-51.8223279999999988
0
LINE
8
BLACK
6
CONTINUOUS
10
91.065384999999992
20
-51.8223279999999988
11
88.4685439999999943
21
-52.7012590000000003
0
LINE
8
BLACK
6
CONTINUOUS
10
88.4685439999999943
20
-52.7012590000000003
11
85.8838190000000026
21
-53.6152030000000011
0
LINE
8
BLACK
6
CONTINUOUS
10
85.8838190000000026
20
-53.6152030000000011
11
83.3116799999999955
21
-54.563994000000001
0
LINE
8
BLACK
6
CONTINUOUS
10
83.3116799999999955
20
-54.563994000000001
11
80.7525989999999894
21
-55.5474589999999964
0
LINE
8
BLACK
6
CONTINUOUS
10
80.7525989999999894
20
-55.5474589999999964
11
78.2070420000000013
21
-56.5654189999999986
0
LINE
8
BLACK
6
CONTINUOUS
10
78.2070420000000013
20
-56.5654189999999986
11
75.6754749999999916
21
-57.6176859999999991
0
LINE
8
BLACK
6
CONTINUOUS
10
75.6754749999999916
20
-57.6176859999999991
11
73.1583589999999901
21
-58.7040689999999969
0
LINE
8
BLACK
6
CONTINUOUS
10
73.1583589999999901
20
-58.7040689999999969
11
70.6561549999999983
21
-59.8243699999999947
0
LINE
8
BLACK
6
CONTINUOUS
10
70.6561549999999983
20
-59.8243699999999947
11
68.1693190000000016
21
-60.9783829999999938
0
LINE
8
BLACK
6
CONTINUOUS
10
68.1693190000000016
20
-60.9783829999999938
11
65.6983049999999906
21
-62.165898999999996
0
LINE
8
BLACK
6
CONTINUOUS
10
65.6983049999999906
20
-62.165898999999996
11
63.2435659999999942
21
-63.3866999999999976
0
LINE
8
BLACK
6
CONTINUOUS
10
63.2435659999999942
20
-63.3866999999999976
11
60.8055489999999992
21
-64.6405639999999977
0
LINE
8
BLACK
6
CONTINUOUS
10
60.8055489999999992
20
-64.6405639999999977
11
58.3846989999999977
21
-65.927260000000004
0
LINE
8
BLACK
6
CONTINUOUS
10
58.3846989999999977
20
-65.927260000000004
11
55.9814599999999984
21
-67.2465550000000007
0
LINE
8
BLACK
6
CONTINUOUS
10
55.9814599999999984
20
-67.2465550000000007
11
53.5962679999999949
21
-68.5982070000000022
0
LINE
8
BLACK
6
CONTINUOUS
10
53.5962679999999949
20
-68.5982070000000022
11
52.4376770000000008
21
-69.2756079999999912
0
LINE
8
BLACK
6
CONTINUOUS
10
52.4376770000000008
20
-69.2756079999999912
11
52.4376770000000008
21
-127.7781729999999953
0
LINE
8
BLACK
6
CONTINUOUS
10
52.4376770000000008
20
-127.7781729999999953
11
52.4376269999999991
21
-127.7784240000000011
0
LINE
8
BLACK
6
CONTINUOUS
10
52.4376269999999991
20
-127.7784240000000011
11
52.4376329999999982
21
-127.8612849999999952
0
LINE
8
BLACK
6
CONTINUOUS
10
52.4376329999999982
20
-127.8612849999999952
11
52.466508999999995
21
-128.024989000000005
0
LINE
8
BLACK
6
CONTINUOUS
10
52.466508999999995
20
-128.024989000000005
11
52.5233709999999974
21
-128.1811919999999816
0
LINE
8
BLACK
6
CONTINUOUS
10
52.5233709999999974
20
-128.1811919999999816
11
52.6064930000000004
21
-128.3251489999999819
0
LINE
8
BLACK
6
CONTINUOUS
10
52.6064930000000004
20
-128.3251489999999819
11
52.7133479999999963
21
-128.4524859999999933
0
LINE
8
BLACK
6
CONTINUOUS
10
52.7133479999999963
20
-128.4524859999999933
11
52.8406899999999951
21
-128.5593350000000044
0
LINE
8
BLACK
6
CONTINUOUS
10
52.8406899999999951
20
-128.5593350000000044
11
52.9846509999999995
21
-128.6424489999999992
0
LINE
8
BLACK
6
CONTINUOUS
10
52.9846509999999995
20
-128.6424489999999992
11
53.1408569999999969
21
-128.6993039999999837
0
LINE
8
BLACK
6
CONTINUOUS
10
53.1408569999999969
20
-128.6993039999999837
11
53.3045629999999946
21
-128.7281710000000032
0
LINE
8
BLACK
6
CONTINUOUS
10
53.3045629999999946
20
-128.7281710000000032
11
53.3876780000000011
21
-128.7281729999999982
0
LINE
8
BLACK
6
CONTINUOUS
10
53.3876780000000011
20
-128.7281729999999982
11
72.6283019999999908
21
-128.7281729999999982
0
LINE
8
BLACK
6
CONTINUOUS
10
72.6283019999999908
20
-128.7281729999999982
11
72.628421000000003
21
-128.728195999999997
0
LINE
8
BLACK
6
CONTINUOUS
10
72.628421000000003
20
-128.728195999999997
11
72.6284950000000009
21
-128.7281729999999982
0
LINE
8
BLACK
6
CONTINUOUS
10
72.6284950000000009
20
-128.7281729999999982
11
72.6284950000000009
21
-128.7281739999999957
0
LINE
8
BLACK
6
CONTINUOUS
10
72.6284950000000009
20
-128.7281739999999957
11
76.2573450000000008
21
-128.760390000000001
0
LINE
8
BLACK
6
CONTINUOUS
10
76.2573450000000008
20
-128.760390000000001
11
79.8856889999999993
21
-128.8290039999999976
0
LINE
8
BLACK
6
CONTINUOUS
10
79.8856889999999993
20
-128.8290039999999976
11
83.5131619999999941
21
-128.9340070000000082
0
LINE
8
BLACK
6
CONTINUOUS
10
83.5131619999999941
20
-128.9340070000000082
11
87.1393989999999974
21
-129.0753890000000013
0
LINE
8
BLACK
6
CONTINUOUS
10
87.1393989999999974
20
-129.0753890000000013
11
90.7640359999999902
21
-129.2531359999999836
0
LINE
8
BLACK
6
CONTINUOUS
10
90.7640359999999902
20
-129.2531359999999836
11
94.3867079999999987
21
-129.4672300000000007
0
LINE
8
BLACK
6
CONTINUOUS
10
94.3867079999999987
20
-129.4672300000000007
11
98.0070499999999925
21
-129.7176499999999919
0
LINE
8
BLACK
6
CONTINUOUS
10
98.0070499999999925
20
-129.7176499999999919
11
101.6246979999999951
21
-130.0043699999999944
0
LINE
8
BLACK
6
CONTINUOUS
10
101.6246979999999951
20
-130.0043699999999944
11
105.2392889999999994
21
-130.3273619999999937
0
LINE
8
BLACK
6
CONTINUOUS
10
105.2392889999999994
20
-130.3273619999999937
11
108.8504579999999891
21
-130.6865919999999903
0
LINE
8
BLACK
6
CONTINUOUS
10
108.8504579999999891
20
-130.6865919999999903
11
112.4578419999999994
21
-131.0820259999999848
0
LINE
8
BLACK
6
CONTINUOUS
10
112.4578419999999994
20
-131.0820259999999848
11
116.0610779999999949
21
-131.513621999999998
0
LINE
8
BLACK
6
CONTINUOUS
10
116.0610779999999949
20
-131.513621999999998
11
119.6598039999999941
21
-131.9813379999999938
0
LINE
8
BLACK
6
CONTINUOUS
10
119.6598039999999941
20
-131.9813379999999938
11
123.2536580000000015
21
-132.4851270000000056
0
LINE
8
BLACK
6
CONTINUOUS
10
123.2536580000000015
20
-132.4851270000000056
11
126.8422779999999932
21
-133.0249379999999917
0
LINE
8
BLACK
6
CONTINUOUS
10
126.8422779999999932
20
-133.0249379999999917
11
130.4253019999999879
21
-133.6007160000000056
0
LINE
8
BLACK
6
CONTINUOUS
10
130.4253019999999879
20
-133.6007160000000056
11
134.0023719999999798
21
-134.2124039999999923
0
LINE
8
BLACK
6
CONTINUOUS
10
134.0023719999999798
20
-134.2124039999999923
11
137.573126000000002
21
-134.8599399999999946
0
LINE
8
BLACK
6
CONTINUOUS
10
137.573126000000002
20
-134.8599399999999946
11
141.1372049999999945
21
-135.5432600000000036
0
LINE
8
BLACK
6
CONTINUOUS
10
141.1372049999999945
20
-135.5432600000000036
11
144.69425099999998
21
-136.2622929999999997
0
LINE
8
BLACK
6
CONTINUOUS
10
144.69425099999998
20
-136.2622929999999997
11
148.2439070000000072
21
-137.0169679999999914
0
LINE
8
BLACK
6
CONTINUOUS
10
148.2439070000000072
20
-137.0169679999999914
11
151.7858139999999878
21
-137.8072090000000003
0
LINE
8
BLACK
6
CONTINUOUS
10
151.7858139999999878
20
-137.8072090000000003
11
155.3196159999999963
21
-138.6329369999999983
0
LINE
8
BLACK
6
CONTINUOUS
10
155.3196159999999963
20
-138.6329369999999983
11
158.8449589999999887
21
-139.4940679999999986
0
LINE
8
BLACK
6
CONTINUOUS
10
158.8449589999999887
20
-139.4940679999999986
11
162.3614869999999826
21
-140.390515999999991
0
LINE
8
BLACK
6
CONTINUOUS
10
162.3614869999999826
20
-140.390515999999991
11
165.8688459999999907
21
-141.3221910000000037
0
LINE
8
BLACK
6
CONTINUOUS
10
165.8688459999999907
20
-141.3221910000000037
11
169.3666839999999922
21
-142.2889979999999923
0
LINE
8
BLACK
6
CONTINUOUS
10
169.3666839999999922
20
-142.2889979999999923
11
172.8546489999999949
21
-143.2908410000000003
0
LINE
8
BLACK
6
CONTINUOUS
10
172.8546489999999949
20
-143.2908410000000003
11
176.3323900000000037
21
-144.3276180000000011
0
LINE
8
BLACK
6
CONTINUOUS
10
176.3323900000000037
20
-144.3276180000000011
11
179.7547669999999869
21
-145.3853819999999928
0
LINE
8
BLACK
6
CONTINUOUS
10
179.7547669999999869
20
-145.3853819999999928
11
180.3876499999999794
21
-143.7509599999999921
0
LINE
8
BLACK
6
CONTINUOUS
10
180.3876499999999794
20
-143.7509599999999921
11
181.0718799999999931
21
-142.0862699999999847
0
LINE
8
BLACK
6
CONTINUOUS
10
181.0718799999999931
20
-142.0862699999999847
11
181.7901459999999929
21
-140.4359790000000032
0
LINE
8
BLACK
6
CONTINUOUS
10
181.7901459999999929
20
-140.4359790000000032
11
182.5421429999999816
21
-138.8007829999999956
0
LINE
8
BLACK
6
CONTINUOUS
10
182.5421429999999816
20
-138.8007829999999956
11
183.3275559999999871
21
-137.1813719999999819
0
LINE
8
BLACK
6
CONTINUOUS
10
183.3275559999999871
20
-137.1813719999999819
11
184.1460519999999974
21
-135.5784280000000024
0
LINE
8
BLACK
6
CONTINUOUS
10
184.1460519999999974
20
-135.5784280000000024
11
184.9972879999999975
21
-133.9926269999999988
0
LINE
8
BLACK
6
CONTINUOUS
10
184.9972879999999975
20
-133.9926269999999988
11
185.8809039999999868
21
-132.4246389999999849
0
LINE
8
BLACK
6
CONTINUOUS
10
185.8809039999999868
20
-132.4246389999999849
11
186.7965269999999975
21
-130.8751230000000021
0
LINE
8
BLACK
6
CONTINUOUS
10
186.7965269999999975
20
-130.8751230000000021
11
187.7437719999999786
21
-129.3447329999999909
0
LINE
8
BLACK
6
CONTINUOUS
10
187.7437719999999786
20
-129.3447329999999909
11
188.7222390000000019
21
-127.8341149999999971
0
LINE
8
BLACK
6
CONTINUOUS
10
188.7222390000000019
20
-127.8341149999999971
11
189.7315159999999992
21
-126.3439049999999924
0
LINE
8
BLACK
6
CONTINUOUS
10
189.7315159999999992
20
-126.3439049999999924
11
190.771175999999997
21
-124.874730999999997
0
LINE
8
BLACK
6
CONTINUOUS
10
190.771175999999997
20
-124.874730999999997
11
191.8407829999999876
21
-123.4272129999999947
0
LINE
8
BLACK
6
CONTINUOUS
10
191.8407829999999876
20
-123.4272129999999947
11
192.939883999999978
21
-122.0019619999999918
0
LINE
8
BLACK
6
CONTINUOUS
10
192.939883999999978
20
-122.0019619999999918
11
194.0680169999999976
21
-120.5995769999999965
0
LINE
8
BLACK
6
CONTINUOUS
10
194.0680169999999976
20
-120.5995769999999965
11
195.2247059999999976
21
-119.2206520000000012
0
LINE
8
BLACK
6
CONTINUOUS
10
195.2247059999999976
20
-119.2206520000000012
11
195.2247019999999793
21
-119.2206479999999971
0
LINE
8
BLACK
6
CONTINUOUS
10
195.2247019999999793
20
-119.2206479999999971
11
195.2249989999999968
21
-119.2204659999999876
0
LINE
8
BLACK
6
CONTINUOUS
10
195.2249989999999968
20
-119.2204659999999876
11
195.2251369999999895
21
-119.2201469999999972
0
LINE
8
BLACK
6
CONTINUOUS
10
195.2251369999999895
20
-119.2201469999999972
11
196.5064380000000028
21
-117.7911689999999965
0
LINE
8
BLACK
6
CONTINUOUS
10
196.5064380000000028
20
-117.7911689999999965
11
197.8144920000000013
21
-116.3866389999999882
0
LINE
8
BLACK
6
CONTINUOUS
10
197.8144920000000013
20
-116.3866389999999882
11
199.1488319999999987
21
-115.007056999999989
0
LINE
8
BLACK
6
CONTINUOUS
10
199.1488319999999987
20
-115.007056999999989
11
200.5089830000000006
21
-113.6529159999999905
0
LINE
8
BLACK
6
CONTINUOUS
10
200.5089830000000006
20
-113.6529159999999905
11
201.8944589999999835
21
-112.3246970000000005
0
LINE
8
BLACK
6
CONTINUOUS
10
201.8944589999999835
20
-112.3246970000000005
11
203.3047669999999982
21
-111.0228749999999991
0
LINE
8
BLACK
6
CONTINUOUS
10
203.3047669999999982
20
-111.0228749999999991
11
204.7394039999999791
21
-109.7479139999999944
0
LINE
8
BLACK
6
CONTINUOUS
10
204.7394039999999791
20
-109.7479139999999944
11
206.1978579999999965
21
-108.5002679999999913
0
LINE
8
BLACK
6
CONTINUOUS
10
206.1978579999999965
20
-108.5002679999999913
11
207.6796089999999992
21
-107.2803819999999888
0
LINE
8
BLACK
6
CONTINUOUS
10
207.6796089999999992
20
-107.2803819999999888
11
209.1841299999999819
21
-106.0886909999999972
0
LINE
8
BLACK
6
CONTINUOUS
10
209.1841299999999819
20
-106.0886909999999972
11
210.6908019999999908
21
-104.9409169999999989
0
LINE
8
BLACK
6
CONTINUOUS
10
210.6908019999999908
20
-104.9409169999999989
11
210.6908019999999908
21
-57.1500479999999982
0
LINE
8
BLACK
6
CONTINUOUS
10
210.6908019999999908
20
-57.1500479999999982
11
210.6908509999999808
21
-57.1497959999999949
0
LINE
8
BLACK
6
CONTINUOUS
10
210.6908509999999808
20
-57.1497959999999949
11
210.6908479999999884
21
-57.0669350000000009
0
LINE
8
BLACK
6
CONTINUOUS
10
210.6908479999999884
20
-57.0669350000000009
11
210.6619739999999865
21
-56.9032300000000006
0
LINE
8
BLACK
6
CONTINUOUS
10
210.6619739999999865
20
-56.9032300000000006
11
210.6051139999999862
21
-56.7470250000000007
0
LINE
8
BLACK
6
CONTINUOUS
10
210.6051139999999862
20
-56.7470250000000007
11
210.5219929999999806
21
-56.6030669999999958
0
LINE
8
BLACK
6
CONTINUOUS
10
210.5219929999999806
20
-56.6030669999999958
11
210.4151369999999872
21
-56.4757289999999941
0
LINE
8
BLACK
6
CONTINUOUS
10
210.4151369999999872
20
-56.4757289999999941
11
210.287793999999991
21
-56.3688799999999972
0
LINE
8
BLACK
6
CONTINUOUS
10
210.287793999999991
20
-56.3688799999999972
11
210.1438320000000033
21
-56.2857659999999953
0
LINE
8
BLACK
6
CONTINUOUS
10
210.1438320000000033
20
-56.2857659999999953
11
209.9876239999999825
21
-56.2289129999999986
0
LINE
8
BLACK
6
CONTINUOUS
10
209.9876239999999825
20
-56.2289129999999986
11
209.8239179999999919
21
-56.2000479999999953
0
LINE
8
BLACK
6
CONTINUOUS
10
209.8239179999999919
20
-56.2000479999999953
11
209.7408020000000022
21
-56.2000479999999953
0
LINE
8
BLACK
6
CONTINUOUS
10
209.7408020000000022
20
-56.2000479999999953
11
186.9283020000000022
21
-56.2000479999999953
0
LINE
8
BLACK
6
CONTINUOUS
10
186.9283020000000022
20
-56.2000479999999953
11
186.9280809999999917
21
-56.2000039999999998
0
LINE
8
BLACK
6
CONTINUOUS
10
186.9280809999999917
20
-56.2000039999999998
11
186.9279459999999915
21
-56.2000469999999979
0
LINE
8
BLACK
6
CONTINUOUS
10
186.9279459999999915
20
-56.2000469999999979
11
186.9279459999999915
21
-56.2000460000000004
0
LINE
8
BLACK
6
CONTINUOUS
10
186.9279459999999915
20
-56.2000460000000004
11
184.6543619999999919
21
-56.1647999999999996
0
LINE
8
BLACK
6
CONTINUOUS
10
184.6543619999999919
20
-56.1647999999999996
11
182.3816879999999969
21
-56.0914049999999946
0
LINE
8
BLACK
6
CONTINUOUS
10
182.3816879999999969
20
-56.0914049999999946
11
180.1105670000000032
21
-55.9798819999999964
0
LINE
8
BLACK
6
CONTINUOUS
10
180.1105670000000032
20
-55.9798819999999964
11
177.8416359999999941
21
-55.8302619999999976
0
LINE
8
BLACK
6
CONTINUOUS
10
177.8416359999999941
20
-55.8302619999999976
11
175.5755369999999971
21
-55.6425879999999964
0
LINE
8
BLACK
6
CONTINUOUS
10
175.5755369999999971
20
-55.6425879999999964
11
173.3129050000000007
21
-55.416913000000001
0
LINE
8
BLACK
6
CONTINUOUS
10
173.3129050000000007
20
-55.416913000000001
11
171.0543789999999831
21
-55.153298999999997
0
LINE
8
BLACK
6
CONTINUOUS
10
171.0543789999999831
20
-55.153298999999997
11
168.8005949999999871
21
-54.8518219999999985
0
LINE
8
BLACK
6
CONTINUOUS
10
168.8005949999999871
20
-54.8518219999999985
11
166.552188000000001
21
-54.5125659999999996
0
LINE
8
BLACK
6
CONTINUOUS
10
166.552188000000001
20
-54.5125659999999996
11
164.3097899999999925
21
-54.1356259999999949
0
LINE
8
BLACK
6
CONTINUOUS
10
164.3097899999999925
20
-54.1356259999999949
11
162.0740339999999833
21
-53.7211099999999959
0
LINE
8
BLACK
6
CONTINUOUS
10
162.0740339999999833
20
-53.7211099999999959
11
159.8455479999999795
21
-53.2691329999999965
0
LINE
8
BLACK
6
CONTINUOUS
10
159.8455479999999795
20
-53.2691329999999965
11
157.6249619999999823
21
-52.7798230000000004
0
LINE
8
BLACK
6
CONTINUOUS
10
157.6249619999999823
20
-52.7798230000000004
11
155.4128989999999817
21
-52.2533180000000002
0
LINE
8
BLACK
6
CONTINUOUS
10
155.4128989999999817
20
-52.2533180000000002
11
153.2099819999999966
21
-51.6897649999999942
0
LINE
8
BLACK
6
CONTINUOUS
10
153.2099819999999966
20
-51.6897649999999942
11
151.0168339999999887
21
-51.0893239999999977
0
LINE
8
BLACK
6
CONTINUOUS
10
151.0168339999999887
20
-51.0893239999999977
11
148.834069999999997
21
-50.4521639999999962
0
LINE
8
BLACK
6
CONTINUOUS
10
148.834069999999997
20
-50.4521639999999962
11
146.6623060000000009
21
-49.7784649999999971
0
LINE
8
BLACK
6
CONTINUOUS
10
146.6623060000000009
20
-49.7784649999999971
11
144.5021529999999927
21
-49.0684149999999946
0
LINE
8
BLACK
6
CONTINUOUS
10
144.5021529999999927
20
-49.0684149999999946
11
142.354219999999998
21
-48.3222149999999999
0
LINE
8
BLACK
6
CONTINUOUS
10
142.354219999999998
20
-48.3222149999999999
11
140.2191119999999955
21
-47.5400749999999945
0
LINE
8
BLACK
6
CONTINUOUS
10
140.2191119999999955
20
-47.5400749999999945
11
138.0974290000000053
21
-46.722215999999996
0
LINE
8
BLACK
6
CONTINUOUS
10
138.0974290000000053
20
-46.722215999999996
11
135.9897699999999929
21
-45.8688669999999945
0
LINE
8
BLACK
6
CONTINUOUS
10
135.9897699999999929
20
-45.8688669999999945
11
133.896727999999996
21
-44.9802689999999998
0
LINE
8
BLACK
6
CONTINUOUS
10
133.896727999999996
20
-44.9802689999999998
11
131.8188930000000028
21
-44.0566729999999964
0
LINE
8
BLACK
6
CONTINUOUS
10
131.8188930000000028
20
-44.0566729999999964
11
129.7702429999999936
21
-43.1045620000000014
0
LINE
8
BLACK
6
CONTINUOUS
10
129.7702429999999936
20
-43.1045620000000014
11
128.4241580000000056
21
-43.2718479999999985
  0
ENDSEC
  0
EOF
